<svg width="190" height="250" viewBox="0 0 190 250" fill="none" xmlns="http://www.w3.org/2000/svg">
<path d="M187.5 14.9604V13.0695L185.681 12.5548C170.583 8.28344 130.532 2.5 95 2.5C59.4676 2.5 19.4169 8.28344 4.31942 12.5548L2.5 13.0695V14.9604V163.317C2.50005 186.679 13.1648 202.353 27.3372 213.41C41.3327 224.329 58.8257 230.807 72.7534 235.964L72.9028 236.019C81.9978 239.387 89.2886 242.107 93.5835 245.06L95 246.034L96.4165 245.06C100.711 242.107 108.002 239.387 117.097 236.019L117.247 235.964C131.174 230.807 148.667 224.329 162.663 213.41C176.835 202.353 187.5 186.679 187.5 163.317V14.9604Z" fill="#111E31" stroke="#111E31" stroke-width="5"/>
<path d="M95 6.5C129.422 6.5 168.042 11.9849 183.5 16.1042V163.317C183.5 185.215 173.602 199.802 160.202 210.256C146.727 220.77 129.759 227.065 115.708 232.268L115.499 232.345C107.216 235.412 99.8167 238.152 95 241.204C90.1833 238.152 82.7844 235.412 74.5011 232.345L74.2918 232.268C60.2405 227.065 43.2731 220.77 29.7977 210.256C16.3984 199.802 6.50004 185.215 6.5 163.317V16.1042C21.9581 11.9849 60.5783 6.5 95 6.5Z" stroke="#FFC845" stroke-width="3"/>
<path d="M94.0949 53.3649H94.9379V52.0166H95.9388V51.1687H94.9379V50.0001H94.0949V51.1687H93.0939V52.0166H94.0949V53.3649Z" fill="#FFC845"/>
<path d="M64.5428 76.9289C64.7202 76.5524 64.9169 76.1855 65.1307 75.8308C65.1793 75.7482 65.1526 75.685 65.138 75.6316C64.3387 72.8304 64.3314 70.3474 65.2474 68.3553C66.9383 64.6746 71.5008 63.2704 77.7422 63.9117C76.3185 66.9316 77.2927 70.5904 78.6897 73.4305C78.8087 73.7026 78.5342 74.0257 78.1844 74.1277C77.9366 74.2128 77.7179 74.3488 77.5357 74.5213C77.3972 74.6841 77.543 74.8031 77.6377 74.8031C78.2038 74.8444 78.6484 75.2696 78.7504 75.8235C78.8646 76.4941 78.4176 77.1257 77.7471 77.2399C77.1931 77.3298 76.6465 77.0528 76.4181 76.5281C76.389 76.4406 76.2262 76.341 76.1217 76.5256C75.9833 76.8439 75.9322 77.2035 75.9954 77.5703C76.01 77.6651 76.061 77.7622 75.9978 77.8473C75.9492 77.9177 75.8812 77.9104 75.8059 77.925C75.1912 78.0319 74.7029 78.4376 74.4624 78.9697C74.426 79.0693 74.4333 79.1082 74.4988 79.1908C74.9021 79.6111 75.4998 79.8297 76.1144 79.7228C76.1897 79.7107 76.2505 79.6815 76.3209 79.7301C76.4084 79.7884 76.3938 79.9002 76.4084 79.9925C76.4716 80.3594 76.6392 80.6801 76.8749 80.9327C77.0352 81.0736 77.1567 80.9254 77.1542 80.8307C77.2539 79.4653 79.3116 79.2102 79.5716 80.7238C79.9749 83.0755 76.6781 83.5274 75.0795 82.2155C75.1329 82.0965 75.1645 81.9628 75.1645 81.8219C75.1645 81.2899 74.7345 80.8574 74.2049 80.8574C73.6752 80.8574 73.2476 81.2899 73.2476 81.8219C73.2476 82.1985 73.4639 82.5265 73.7773 82.6844C73.6096 84.7908 70.5436 84.9487 70.1816 82.8472C70.1355 82.5702 70.1525 82.2957 70.2229 82.043C70.6311 81.9045 71.0635 81.9628 71.4158 82.1693C71.6004 82.2446 71.7486 82.0916 71.7025 81.9531C71.6515 81.7588 71.5616 81.5741 71.4377 81.4162C71.3381 81.2656 71.4741 81.1295 71.5543 81.1295C72.0669 81.0129 72.5236 80.6412 72.752 80.1286C72.7884 80.0387 72.7544 79.9901 72.7302 79.9488C72.2491 79.2855 71.445 79.2418 70.8182 79.5989C70.6578 79.6986 70.4926 79.5285 70.5461 79.4022C70.6116 79.1179 70.6238 78.8191 70.5728 78.5227C70.5582 78.4401 70.4902 78.3915 70.4513 78.3769C69.6957 78.0878 68.9231 78.3793 68.4445 78.9697C68.2866 79.1203 68.0995 79.0013 68.1093 78.8434C68.051 77.9688 67.7035 77.1087 67.0622 76.4187C66.9407 76.2875 66.7487 76.0519 66.5641 76.2438C66.2167 76.618 65.9543 77.0431 65.7794 77.495C65.7211 77.6068 65.5729 77.6092 65.4951 77.5533C65.2376 77.3832 64.9509 77.2666 64.657 77.2108C64.5161 77.1646 64.4918 77.0358 64.5428 76.9289ZM78.9836 77.5242C79.1634 77.1889 79.4866 76.9532 79.8607 76.8901C80.2373 76.8245 80.6163 76.9387 80.8957 77.1913C81.6488 77.8691 81.299 79.1568 80.2786 79.3341C79.2363 79.5139 78.5123 78.3988 78.9836 77.5242ZM80.796 62.6363C82.8417 59.9711 87.3411 59.354 93.2472 60.4837C93.2132 61.2344 93.1621 62.9642 93.1087 64.2616C93.0431 65.8432 92.8293 67.3616 92.3167 68.7634C92.2875 68.8387 92.2632 68.9311 92.2632 69.0112C92.2632 69.2882 92.4892 69.5384 92.7661 69.5141C93.2666 69.4728 93.8667 69.7158 93.8667 70.4106C93.8667 70.8698 93.5922 71.2342 93.1281 71.3071C92.8269 71.3581 92.5451 71.4699 92.3021 71.6327C92.1077 71.793 92.2535 71.9631 92.3628 71.9776C93.303 72.2157 93.7282 73.309 93.2399 74.1277C92.5718 75.204 90.9197 74.9683 90.6112 73.7293C90.5942 73.62 90.4265 73.4718 90.2686 73.6686C90.0451 74.0063 89.9163 74.4095 89.9163 74.8469C89.9163 75.1335 89.9649 75.2186 89.6297 75.2186C88.8984 75.2186 88.2521 75.5903 87.8683 76.1564C87.8075 76.2657 87.8075 76.3118 87.8683 76.4187C88.2497 76.9848 88.896 77.3565 89.6297 77.3565C89.9625 77.3565 89.9163 77.4416 89.9163 77.7307C89.9163 78.1655 90.0451 78.5713 90.2686 78.909C90.4265 79.1033 90.5942 78.9551 90.6112 78.8482C90.9756 77.376 93.1111 77.4197 93.4245 78.9114C93.9493 81.6883 89.1753 82.1791 87.5063 80.0557C87.6812 79.8808 87.7905 79.6402 87.7905 79.373C87.7905 78.8409 87.3605 78.4085 86.8309 78.4085C86.3037 78.4085 85.8737 78.8409 85.8737 79.373C85.8737 79.7496 86.0899 80.0775 86.4057 80.2355C85.2833 82.2179 81.7533 82.6965 81.4034 80.4055C81.3038 79.7641 81.6026 79.1179 82.3922 78.9818C82.9461 78.892 83.4928 79.1714 83.7211 79.6937C83.7503 79.7811 83.9155 79.8808 84.0175 79.6961C84.1585 79.3779 84.207 79.0183 84.1463 78.6514C84.1293 78.5567 84.0783 78.4595 84.1415 78.3745C84.19 78.304 84.2581 78.3113 84.3334 78.2967C84.948 78.1923 85.4364 77.7841 85.6769 77.2521C85.7133 77.1524 85.706 77.1136 85.638 77.031C85.2347 76.6131 84.6395 76.3944 84.0224 76.5013C83.9495 76.5135 83.8888 76.5402 83.8183 76.4941C83.7284 76.4333 83.7454 76.324 83.7284 76.2292C83.6652 75.8648 83.4976 75.5417 83.262 75.289C83.1016 75.1481 82.9826 75.2963 82.9826 75.3911C82.9048 76.4746 81.5492 76.9192 80.8325 76.1102C80.3028 75.4907 80.5021 74.5092 81.2601 74.1739C81.3475 74.1448 81.4471 73.982 81.2601 73.8775C81.0317 73.7755 80.779 73.7196 80.5191 73.722C80.0696 73.6977 79.4647 73.0515 79.7538 72.7454C80.0963 72.4635 80.451 72.2036 80.8228 71.9606C80.9515 71.8756 80.9151 71.7638 80.8908 71.7031C79.7271 68.9554 78.8112 65.2212 80.796 62.6363ZM95.9487 76.0738C96.024 76.6131 95.7933 77.1767 95.3462 77.4877C94.8652 77.8278 94.1728 77.8278 93.6917 77.4877C93.2447 77.1767 93.0139 76.6131 93.0892 76.0738C93.1888 75.3643 93.8011 74.8347 94.5178 74.8347C95.2345 74.8347 95.8491 75.3619 95.9487 76.0738ZM96.2719 69.5141C96.5488 69.5384 96.7748 69.2882 96.7748 69.0112C96.7748 68.9311 96.7505 68.8387 96.7213 68.7634C96.2087 67.3616 95.9585 65.8432 95.9293 64.2616C95.905 63.0031 95.8491 61.7859 95.7908 60.4837C101.697 59.354 106.196 59.9711 108.242 62.6363C110.227 65.2212 109.311 68.9554 108.147 71.7031C108.123 71.7638 108.086 71.8756 108.215 71.9606C108.587 72.2036 108.942 72.4635 109.284 72.7454C109.573 73.0515 108.968 73.6977 108.519 73.722C108.259 73.7196 108.006 73.7755 107.778 73.8775C107.591 73.982 107.69 74.1447 107.778 74.1739C108.536 74.5092 108.735 75.4907 108.205 76.1102C107.489 76.9192 106.133 76.4746 106.055 75.3911C106.055 75.2963 105.936 75.1481 105.776 75.289C105.54 75.5417 105.373 75.8648 105.31 76.2292C105.293 76.324 105.31 76.4333 105.22 76.4941C105.149 76.5402 105.088 76.5135 105.016 76.5013C104.398 76.3944 103.803 76.6131 103.4 77.031C103.332 77.1136 103.325 77.1524 103.361 77.2521C103.602 77.7841 104.09 78.1923 104.705 78.2967C104.78 78.3113 104.848 78.304 104.897 78.3745C104.96 78.4595 104.909 78.5567 104.892 78.6514C104.831 79.0183 104.882 79.3779 105.02 79.6961C105.123 79.8808 105.288 79.7811 105.317 79.6937C105.856 78.4619 107.873 78.8555 107.635 80.4055C107.282 82.6965 103.755 82.2179 102.632 80.2355C102.948 80.0775 103.164 79.7496 103.164 79.373C103.164 78.8409 102.734 78.4085 102.207 78.4085C101.677 78.4085 101.247 78.8409 101.247 79.373C101.247 79.6402 101.357 79.8808 101.532 80.0557C99.8627 82.1791 95.0887 81.6883 95.6135 78.9114C95.9269 77.4197 98.0624 77.376 98.4268 78.8482C98.4438 78.9551 98.6115 79.1033 98.7694 78.909C98.9929 78.5713 99.1217 78.1655 99.1217 77.7307C99.1217 77.4416 99.0755 77.3565 99.4083 77.3565C100.142 77.3565 100.788 76.9848 101.17 76.4187C101.23 76.3118 101.23 76.2657 101.17 76.1564C100.786 75.5903 100.14 75.2186 99.4083 75.2186C99.0731 75.2186 99.1217 75.1335 99.1217 74.8469C99.1217 74.4095 98.9929 74.0063 98.7694 73.6686C98.6115 73.4718 98.4438 73.62 98.4268 73.7293C98.1183 74.9683 96.4662 75.204 95.7981 74.1277C95.3098 73.309 95.735 72.2157 96.6776 71.9776C96.7845 71.9631 96.9303 71.793 96.7359 71.6327C96.493 71.4699 96.2111 71.3581 95.9099 71.3071C95.4458 71.2342 95.1713 70.8698 95.1713 70.4106C95.1713 69.7158 95.7714 69.4728 96.2719 69.5141ZM110.054 77.5242C110.526 78.3988 109.802 79.5139 108.759 79.3341C107.739 79.1568 107.389 77.8691 108.142 77.1913C108.422 76.9387 108.801 76.8245 109.177 76.8901C109.551 76.9532 109.875 77.1889 110.054 77.5242ZM110.288 75.8235C110.39 75.2696 110.834 74.8444 111.4 74.8031C111.495 74.8031 111.641 74.6841 111.502 74.5213C111.32 74.3488 111.101 74.2128 110.854 74.1277C110.504 74.0257 110.229 73.7026 110.348 73.4305C111.745 70.5904 112.72 66.9316 111.296 63.9117C117.537 63.2704 122.1 64.6746 123.791 68.3553C124.707 70.3474 124.699 72.8304 123.9 75.6316C123.885 75.685 123.859 75.7482 123.907 75.8308C124.121 76.1855 124.318 76.5524 124.495 76.9289C124.546 77.0358 124.522 77.1646 124.381 77.2108C124.087 77.2666 123.8 77.3832 123.543 77.5533C123.465 77.6092 123.317 77.6068 123.259 77.495C123.084 77.0431 122.821 76.618 122.474 76.2438C122.289 76.0519 122.097 76.2875 121.976 76.4187C121.334 77.1087 120.987 77.9688 120.929 78.8434C120.938 79.0013 120.751 79.1203 120.593 78.9697C120.115 78.3793 119.342 78.0878 118.587 78.3769C118.548 78.3915 118.48 78.4401 118.465 78.5227C118.414 78.8191 118.426 79.1179 118.492 79.4022C118.545 79.5285 118.38 79.6986 118.22 79.5989C117.593 79.2418 116.789 79.2855 116.308 79.9488C116.284 79.9901 116.25 80.0387 116.286 80.1286C116.514 80.6412 116.971 81.0129 117.484 81.1295C117.564 81.1295 117.7 81.2656 117.6 81.4162C117.476 81.5741 117.387 81.7588 117.336 81.9531C117.289 82.0916 117.438 82.2446 117.622 82.1693C117.972 81.9628 118.407 81.9045 118.815 82.043C118.886 82.2957 118.903 82.5702 118.856 82.8472C118.494 84.9487 115.428 84.7908 115.261 82.6844C115.574 82.5265 115.79 82.1985 115.79 81.8219C115.79 81.2899 115.363 80.8574 114.833 80.8574C114.304 80.8574 113.874 81.2899 113.874 81.8219C113.874 81.9628 113.905 82.0965 113.959 82.2155C112.36 83.5274 109.063 83.0755 109.466 80.7238C109.585 80.0411 110.137 79.5868 110.868 79.7131C111.42 79.8152 111.842 80.2622 111.884 80.8307C111.881 80.9254 112.003 81.0736 112.163 80.9327C112.399 80.6801 112.566 80.3594 112.63 79.9925C112.644 79.9002 112.63 79.7884 112.717 79.7301C112.788 79.6815 112.848 79.7107 112.924 79.7228C113.538 79.8297 114.136 79.6111 114.539 79.1908C114.605 79.1082 114.612 79.0693 114.576 78.9697C114.335 78.4376 113.847 78.0319 113.23 77.925C113.157 77.9105 113.089 77.9177 113.04 77.8473C112.977 77.7622 113.028 77.6651 113.043 77.5703C113.106 77.2035 113.055 76.8439 112.916 76.5256C112.812 76.341 112.649 76.4406 112.62 76.5281C112.391 77.0528 111.845 77.3298 111.291 77.2399C110.62 77.1257 110.173 76.4941 110.288 75.8235ZM113.283 88.848C112.727 88.848 112.275 88.3937 112.275 87.8349C112.275 87.2737 112.727 86.8218 113.283 86.8218C113.839 86.8218 114.289 87.2737 114.289 87.8349C114.289 88.3937 113.839 88.848 113.283 88.848ZM110.324 87.2008L107.474 88.3014C107.387 88.3427 107.331 88.3256 107.268 88.2844C106.413 87.728 105.557 87.1717 104.702 86.6153C104.61 86.5691 104.559 86.3748 104.736 86.297L107.598 85.1916C107.681 85.1649 107.69 85.1576 107.79 85.2232C108.64 85.7747 109.488 86.3286 110.339 86.8801C110.441 86.9457 110.501 87.072 110.324 87.2008ZM101.114 87.5798C100.465 87.5798 99.9379 87.0526 99.9379 86.3991C99.9379 85.748 100.465 85.2183 101.114 85.2183C101.762 85.2183 102.287 85.748 102.287 86.3991C102.287 87.0526 101.762 87.5798 101.114 87.5798ZM97.4769 86.246C96.5269 86.7319 95.577 87.2178 94.6271 87.7061C94.5469 87.7523 94.491 87.7523 94.4109 87.7061C93.4609 87.2178 92.511 86.7319 91.5611 86.246C91.4202 86.1634 91.4299 85.969 91.5781 85.9107C92.5256 85.4273 93.4706 84.9438 94.4157 84.4603C94.5153 84.4093 94.5226 84.4093 94.6222 84.4603C95.5673 84.9438 96.5124 85.4273 97.4599 85.9107C97.6251 85.9812 97.6056 86.1828 97.4769 86.246ZM87.9241 87.5798C87.2754 87.5798 86.7507 87.0526 86.7507 86.3991C86.7507 85.748 87.2754 85.2183 87.9241 85.2183C88.5728 85.2183 89.1 85.748 89.1 86.3991C89.1 87.0526 88.5728 87.5798 87.9241 87.5798ZM84.3358 86.6153C83.4806 87.1716 82.6254 87.728 81.7702 88.2843C81.7071 88.3256 81.6512 88.3427 81.5637 88.3013L78.7139 87.2008C78.5463 87.1376 78.5414 86.9627 78.6994 86.8801C79.5497 86.3286 80.3976 85.7747 81.2479 85.2232C81.3475 85.1576 81.3572 85.1649 81.4398 85.1916L84.3018 86.297C84.4645 86.3529 84.467 86.5473 84.3358 86.6153ZM75.7548 88.848C75.1985 88.848 74.749 88.3937 74.749 87.8349C74.749 87.2737 75.1985 86.8218 75.7548 86.8218C76.3112 86.8218 76.763 87.2737 76.763 87.8349C76.763 88.3937 76.3112 88.848 75.7548 88.848ZM63.1774 77.2302C63.1896 77.3079 63.2066 77.3784 63.0973 77.461C62.5798 77.7501 62.1886 78.2336 62.0137 78.8045C61.9675 78.9017 62.0283 79.113 62.2639 79.0547C63.6585 78.4304 65.2571 79.3268 65.483 80.8258C65.5122 80.9595 65.6385 81.0348 65.7843 80.9473C66.9942 80.0533 68.5758 81.387 67.9562 82.733C67.9271 82.7937 67.9271 82.8982 68.0267 82.9759C71.0757 84.9438 73.0897 88.1945 73.4687 91.829C73.4809 91.9383 73.6072 92.0185 73.7117 91.9893C85.8688 88.4253 103.169 88.4253 115.326 91.9893C115.431 92.0185 115.557 91.9383 115.569 91.829C115.951 88.1945 117.962 84.9438 121.011 82.9759C121.111 82.8982 121.111 82.7937 121.082 82.733C120.462 81.387 122.044 80.0533 123.254 80.9473C123.4 81.0348 123.526 80.9594 123.555 80.8258C123.781 79.3268 125.38 78.4304 126.774 79.0547C127.01 79.113 127.071 78.9017 127.024 78.8045C126.849 78.2336 126.458 77.7501 125.941 77.461C125.831 77.3784 125.848 77.3079 125.861 77.2302C126.526 75.8017 126.964 74.3828 127.131 73.0004C128.02 65.6804 121.101 61.8588 111.009 63.3651C108.796 59.6213 103.045 58.3482 95.701 59.9517C95.6087 59.2787 95.6524 58.0542 94.5178 58.0542C93.3881 58.0542 93.3711 59.2398 93.3371 59.9517C85.9927 58.3482 80.2421 59.6213 78.0289 63.3651C67.9368 61.8588 61.0176 65.6804 61.9068 73.0004C62.0744 74.3828 62.5118 75.8017 63.1774 77.2302Z" fill="#FFC845"/>
<path d="M94.1119 53.7422C93.3758 53.9026 92.8024 54.4954 92.664 55.2412H94.1119V53.7422Z" fill="#FFC845"/>
<path d="M94.9274 53.7422V55.2412H96.3754C96.2369 54.4954 95.6636 53.9026 94.9274 53.7422Z" fill="#FFC845"/>
<path d="M94.5197 57.4753C95.4283 57.4753 96.1887 56.8315 96.3685 55.9763H92.6708C92.8506 56.8315 93.6111 57.4753 94.5197 57.4753Z" fill="#FFC845"/>
<path d="M148.025 99.0757C148.025 98.6991 147.721 98.3954 147.347 98.3954H138.332C137.957 98.3954 137.656 98.6991 137.656 99.0757C137.656 99.3672 137.836 99.6126 138.093 99.7098H138.089C138.487 99.8871 138.703 100.453 138.703 101.048C138.703 101.624 138.453 102.198 138.057 102.385H138.059C137.821 102.511 137.656 102.79 137.656 103.121C137.656 103.563 137.957 103.922 138.332 103.922H147.34C147.714 103.922 148.018 103.563 148.018 103.121C148.018 102.798 147.858 102.523 147.629 102.394C147.634 102.399 147.639 102.399 147.644 102.402C147.265 102.202 146.993 101.675 146.993 101.048C146.993 100.422 147.287 99.8701 147.67 99.6757C147.663 99.6782 147.656 99.6782 147.651 99.6806C147.872 99.5688 148.025 99.3405 148.025 99.0757Z" fill="#FFC845"/>
<path d="M136.324 166.986H149.433V163.262H136.324V166.986Z" fill="#FFC845"/>
<path d="M143.967 115.286C145 115.434 146.016 115.631 146.999 115.869V105.109H138.681V114.929C140.649 114.953 142.505 115.079 143.967 115.286Z" fill="#FFC845"/>
<path d="M139.023 139.804C138.913 139.746 138.797 139.68 138.68 139.617V157.522C138.68 159.388 138.374 160.559 137.873 161.339C137.694 161.621 137.81 161.975 138.097 161.975H147.545C147.837 161.975 148.004 161.608 147.837 161.341C147.344 160.557 147.001 159.303 147.001 157.522V143.698C144.567 142.671 141.804 141.325 139.023 139.804Z" fill="#FFC845"/>
<path d="M137.622 127.317C136.132 127.415 134.568 127.925 133.854 128.503L134.388 129.035C135.114 129.752 136.21 130.731 137.622 131.647V127.317Z" fill="#FFC845"/>
<path d="M149.068 170.322C148.152 170.152 147.409 169.87 146.69 169.6C145.553 169.17 144.374 168.726 142.579 168.726C140.844 168.726 139.683 169.166 138.558 169.593C137.842 169.865 137.101 170.147 136.189 170.317C135.099 170.521 133.986 170.29 133.25 170.137C132.91 170.067 132.662 170.018 132.463 170.018L132.46 171.33C132.536 171.33 132.783 171.381 132.983 171.423C133.77 171.588 135.087 171.857 136.432 171.607C137.458 171.415 138.255 171.112 139.025 170.82C140.13 170.4 141.085 170.038 142.579 170.038C144.134 170.038 145.152 170.422 146.228 170.827C146.998 171.119 147.798 171.42 148.828 171.612C149.221 171.685 149.605 171.714 149.972 171.714C150.839 171.714 151.612 171.554 152.183 171.435C152.423 171.384 152.698 171.33 152.797 171.33V170.018C152.564 170.018 152.278 170.074 151.916 170.15C151.165 170.305 150.132 170.519 149.068 170.322Z" fill="#FFC845"/>
<path d="M149.068 173.301C148.152 173.131 147.409 172.849 146.692 172.579C145.553 172.149 144.374 171.704 142.579 171.704C140.844 171.704 139.683 172.144 138.558 172.572C137.842 172.844 137.101 173.126 136.189 173.296C135.099 173.502 133.986 173.269 133.25 173.116C132.91 173.048 132.662 172.997 132.463 172.997L132.46 174.309C132.536 174.309 132.783 174.36 132.983 174.401C133.77 174.566 135.087 174.839 136.432 174.586C137.458 174.394 138.255 174.09 139.025 173.799C140.13 173.378 141.085 173.016 142.579 173.016C144.134 173.016 145.152 173.4 146.228 173.806C147.001 174.098 147.798 174.399 148.828 174.591C149.221 174.664 149.605 174.693 149.972 174.693C150.839 174.693 151.614 174.532 152.183 174.413C152.423 174.365 152.698 174.309 152.797 174.309V172.997C152.564 172.997 152.278 173.053 151.918 173.131C151.165 173.286 150.132 173.5 149.068 173.301Z" fill="#FFC845"/>
<path d="M149.068 176.075C148.152 175.905 147.409 175.623 146.69 175.354C145.553 174.924 144.374 174.477 142.579 174.477C140.844 174.477 139.683 174.919 138.558 175.346C137.844 175.619 137.101 175.9 136.189 176.07C135.099 176.277 133.986 176.044 133.25 175.891C132.91 175.82 132.662 175.769 132.463 175.769L132.46 177.081C132.536 177.084 132.783 177.135 132.983 177.176C133.77 177.339 135.087 177.613 136.432 177.361C137.458 177.169 138.255 176.865 139.025 176.573C140.13 176.153 141.085 175.789 142.579 175.789C144.134 175.789 145.152 176.175 146.228 176.581C146.998 176.872 147.798 177.173 148.828 177.365C149.221 177.438 149.605 177.467 149.972 177.467C150.839 177.467 151.612 177.307 152.183 177.188C152.423 177.137 152.698 177.081 152.797 177.081V175.769C152.564 175.769 152.278 175.828 151.918 175.903C151.162 176.061 150.132 176.275 149.068 176.075Z" fill="#FFC845"/>
<path d="M147 136.442V124.603C145.583 124.129 143.98 123.748 142.253 123.534C141.142 123.396 139.923 123.311 138.681 123.279V132.137C139.126 132.414 139.568 132.679 139.983 132.922C142.432 134.355 144.867 135.57 147 136.442Z" fill="#FFC845"/>
<path d="M132.991 134.48C133.625 135.646 144.016 141.649 150.746 143.88C150.675 143.583 150.597 143.253 150.512 142.9C150.146 141.37 149.696 139.499 149.497 138.559C146.771 137.777 143.107 136.1 139.395 133.928C137.269 132.687 134.745 131.03 133.567 129.861L132.991 134.48Z" fill="#FFC845"/>
<path d="M146.902 119.309C146.923 119.224 146.933 119.139 146.933 119.032C146.938 118.633 146.537 118.543 146.151 118.453L146.119 118.449L145.784 119.836C146.112 119.931 146.374 119.926 146.564 119.821C146.729 119.729 146.841 119.556 146.902 119.309Z" fill="#FFC845"/>
<path d="M151.259 122.356L151.325 121.18L150.353 121.89L151.259 122.356Z" fill="#FFC845"/>
<path d="M152.306 124.911L152.201 124.848C152.022 124.744 151.312 124.377 151.132 124.299L151.081 124.277L151.094 124.195C151.15 123.769 151.203 123.369 151.22 122.96L149.847 122.251C149.745 122.336 149.646 122.416 149.551 122.492C149.313 122.683 149.089 122.863 148.878 123.065L148.839 123.101L148.79 123.075C148.693 123.019 148.3 122.817 148.203 122.771L148.088 122.72L151.937 119.945L151.978 119.975C152.053 120.026 152.124 120.069 152.199 120.108C152.272 120.147 152.345 120.179 152.437 120.213L152.486 120.232L152.306 124.911ZM147.731 122.632C147.53 122.574 146.699 122.377 146.495 122.338L146.453 122.331L145.912 120.908C145.873 120.803 145.814 120.66 145.754 120.509C145.727 120.441 145.698 120.371 145.671 120.303L145.246 122.052L145.173 122.027C145 121.976 144.32 121.816 144.153 121.787L144.075 121.772L145.056 117.722L146.682 118.104C147.01 118.182 147.457 118.286 147.702 118.473C148.088 118.762 148.229 119.1 148.13 119.503C148.003 120.03 147.534 120.334 146.864 120.334H146.847C147.032 120.801 147.245 121.265 147.452 121.714C147.513 121.848 147.573 121.981 147.634 122.115L147.879 122.676L147.731 122.632ZM143.914 118.041C143.545 117.97 143.164 117.895 142.775 117.856L142.43 121.444L142.352 121.432C142.18 121.403 141.478 121.338 141.308 121.335L141.23 121.333L141.575 117.742C141.106 117.703 140.691 117.703 140.338 117.708L140.241 117.71L140.268 117.616C140.287 117.545 140.319 117.22 140.314 117.147L140.307 117.059L144.102 117.416L144.08 117.501C144.058 117.572 144.029 117.897 144.034 117.97L144.041 118.065L143.914 118.041ZM140.098 121.104L140.11 121.189L137.272 121.119L137.377 116.981L137.454 116.989C137.632 117.003 138.339 117.02 138.504 117.015L138.582 117.011L138.492 120.582C139.058 120.592 139.544 120.567 140.032 120.538L140.127 120.531L140.107 120.623C140.093 120.699 140.086 121.029 140.098 121.104ZM136.041 117.484C135.623 118.721 135.193 119.996 134.855 121.287L134.84 121.338L134.787 121.34C134.692 121.342 134.299 121.403 134.209 121.425L134.158 121.44L134.129 121.393C133.426 120.278 132.661 119.139 131.65 117.703L131.578 117.599L131.704 117.586C131.896 117.572 132.717 117.45 132.924 117.407L132.977 117.397L133.004 117.445C133.339 118.07 133.745 118.689 134.138 119.289C134.291 119.523 134.442 119.756 134.593 119.992C134.855 119.17 135.176 118.128 135.411 117.086L135.423 117.032L135.479 117.03C135.584 117.025 136.011 116.962 136.106 116.938L136.237 116.901L136.041 117.484ZM155.605 121.515C154.245 119.634 149.753 117.285 143.803 116.442C142.119 116.202 140.02 116.09 137.933 116.09C134.653 116.09 131.687 116.26 130.132 116.756V122.905C131.918 122.317 134.573 122.098 137.637 122.098C139.238 122.098 140.875 122.185 142.396 122.375C147.238 122.977 151.934 125.013 153.562 127.222C153.681 127.387 153.786 127.547 153.868 127.708C154.808 125.596 155.919 123.089 156.026 122.778C156.084 122.406 155.943 121.981 155.605 121.515Z" fill="#FFC845"/>
<path d="M152.623 127.914C152.14 127.258 151.211 126.534 149.948 125.859C149.353 125.929 148.758 125.992 148.058 125.992V131.361C151.044 131.138 152.949 130.307 153.182 129.012C153.187 128.985 153.184 128.961 153.187 128.934L152.832 128.244C152.776 128.14 152.706 128.028 152.623 127.914Z" fill="#FFC845"/>
<path d="M141.961 91.6045V85.815C141.818 85.7276 141.667 85.6644 141.514 85.6255C141.383 85.594 141.249 85.5769 141.113 85.5769C140.472 85.5769 139.886 85.9511 139.612 86.5366C139.638 86.6143 139.663 86.6896 139.692 86.7625C140.214 88.1425 141.038 90.1662 141.648 91.6531C141.752 91.6337 141.857 91.619 141.961 91.6045Z" fill="#FFC845"/>
<path d="M135.912 88.0871C135.946 88.1478 135.985 88.211 136.027 88.2717C136.651 89.2144 137.594 90.6842 138.825 92.6375C139.078 92.499 139.343 92.3703 139.612 92.2537C139.029 90.8373 138.245 88.9034 137.717 87.5162C137.705 87.487 137.696 87.4578 137.686 87.4287C137.681 87.4287 137.674 87.4263 137.669 87.4263C137.54 87.3922 137.407 87.3777 137.268 87.3777C136.736 87.3777 136.223 87.6473 135.912 88.0871Z" fill="#FFC845"/>
<path d="M147.369 92.5818C148.586 90.6552 149.517 89.2048 150.134 88.2719C150.165 88.2233 150.194 88.1747 150.219 88.1334C149.913 87.6645 149.385 87.3754 148.829 87.3754C148.71 87.3754 148.593 87.39 148.479 87.4142C148.467 87.4482 148.455 87.4798 148.443 87.5163C147.93 88.8622 147.148 90.7912 146.565 92.2101C146.842 92.3218 147.111 92.4482 147.369 92.5818Z" fill="#FFC845"/>
<path d="M142.705 82.0906C142.824 82.042 142.95 82.0202 143.079 82.0202C143.21 82.0202 143.337 82.042 143.453 82.0906V80.7398H144.481V79.9843H143.453V78.8205H142.705V79.9843H141.68V80.7398H142.705V82.0906Z" fill="#FFC845"/>
<path d="M137.707 93.5415C137.845 93.437 137.991 93.3326 138.149 93.2232C138.209 93.1819 138.273 93.1431 138.336 93.1042C137.466 91.7242 136.271 89.8414 135.474 88.6364C135.447 88.5951 135.423 88.5538 135.399 88.51L135.367 88.4517C134.779 87.4508 134.769 86.4182 135.34 85.7599C135.683 85.3639 136.193 85.1549 136.81 85.1549C136.995 85.1549 137.194 85.1768 137.405 85.2181C137.403 84.9387 137.427 84.6714 137.473 84.4212C137.247 84.3799 137.029 84.3605 136.822 84.3605C135.989 84.3605 135.233 84.6812 134.747 85.2399C133.897 86.219 133.926 87.7253 134.818 89.0737C135.615 90.2811 136.825 92.164 137.707 93.5415Z" fill="#FFC845"/>
<path d="M137.926 85.4975C137.926 85.5266 137.928 85.5558 137.931 85.5874C137.933 85.6214 137.938 85.6554 137.943 85.6918L137.95 85.7429C138.006 86.236 138.137 86.7535 138.336 87.2807L138.368 87.3609C138.898 88.7554 139.699 90.7282 140.285 92.1494C140.518 92.0692 140.768 91.9964 141.045 91.9283C140.455 90.4949 139.646 88.5052 139.107 87.0888L139.073 86.9989C138.873 86.479 138.754 85.9761 138.715 85.5096C138.706 85.3882 138.706 85.2764 138.706 85.1816C138.706 85.0359 138.718 84.895 138.737 84.7613L138.747 84.6982C138.754 84.6569 138.759 84.6229 138.766 84.5913C138.776 84.5451 138.788 84.5038 138.8 84.4625L138.808 84.4407C138.919 84.0714 139.109 83.7823 139.371 83.5831C139.643 83.3765 139.988 83.2672 140.375 83.2672C140.916 83.2672 141.531 83.4834 142.112 83.877V82.9562C141.531 82.6428 140.929 82.4776 140.37 82.4776C139.814 82.4776 139.303 82.6428 138.895 82.9514C138.506 83.2502 138.229 83.6535 138.069 84.154C138.057 84.1856 138.05 84.2196 138.04 84.2536L138.016 84.3435C138.008 84.3702 138.001 84.3969 137.994 84.4261C137.928 84.7298 137.904 85.0675 137.923 85.4343L137.926 85.4975Z" fill="#FFC845"/>
<path d="M149.35 85.1548C149.967 85.1548 150.475 85.3637 150.82 85.7621C151.41 86.44 151.383 87.5016 150.749 88.5269C150.742 88.5415 150.735 88.556 150.725 88.5706C150.713 88.5925 150.701 88.6144 150.686 88.6362C150.059 89.5861 149.109 91.0657 147.866 93.036C147.917 93.0652 147.97 93.0968 148.021 93.1283C148.186 93.2352 148.356 93.3519 148.522 93.4733C149.377 92.1177 150.553 90.2664 151.342 89.0735C152.234 87.7252 152.263 86.2189 151.413 85.2398C150.929 84.681 150.171 84.3603 149.338 84.3603C149.131 84.3603 148.913 84.3822 148.687 84.4211C148.733 84.6713 148.757 84.941 148.755 85.2179C148.966 85.1766 149.165 85.1548 149.35 85.1548Z" fill="#FFC845"/>
<path d="M146.52 86.6126C146.265 85.9907 145.65 85.5777 144.984 85.5777C144.851 85.5777 144.715 85.5947 144.583 85.6263C144.452 85.6578 144.323 85.7089 144.197 85.7793V91.5858C144.304 91.6004 144.411 91.6149 144.52 91.632C145.375 89.5523 146.048 87.8711 146.469 86.7633C146.488 86.7123 146.503 86.6637 146.52 86.6126Z" fill="#FFC845"/>
<path d="M144.048 83.8783C144.627 83.4823 145.241 83.2685 145.785 83.2685C146.169 83.2685 146.517 83.3754 146.789 83.5819C147.051 83.7835 147.241 84.0726 147.352 84.4395L147.357 84.4613C147.372 84.5051 147.384 84.5464 147.394 84.5901C147.401 84.6265 147.408 84.663 147.413 84.6994L147.42 84.748C147.442 84.8913 147.452 85.0323 147.454 85.1805C147.454 85.2606 147.454 85.3821 147.445 85.5084C147.406 85.9773 147.287 86.4778 147.088 87.0001L147.003 87.2212C146.463 88.6279 145.686 90.5375 145.125 91.9077C145.402 91.9709 145.654 92.0389 145.89 92.1166C146.475 90.6905 147.28 88.7105 147.812 87.3135L147.824 87.282C148.023 86.7572 148.154 86.2397 148.21 85.7441L148.217 85.6858C148.222 85.6518 148.227 85.6202 148.229 85.5886C148.232 85.5571 148.232 85.5279 148.234 85.4987L148.237 85.4356C148.256 85.0687 148.232 84.7286 148.166 84.4273C148.159 84.3933 148.149 84.3642 148.142 84.335L148.12 84.2548C148.11 84.2184 148.101 84.1844 148.091 84.1528C147.931 83.6523 147.654 83.249 147.263 82.9526C146.857 82.6417 146.347 82.4789 145.79 82.4789C145.232 82.4789 144.629 82.6441 144.048 82.9551L144.048 83.8783Z" fill="#FFC845"/>
<path d="M143.533 82.9018C143.53 82.8629 143.521 82.8241 143.506 82.7901C143.44 82.637 143.268 82.5325 143.081 82.5325C142.891 82.5325 142.719 82.637 142.653 82.7901C142.639 82.8241 142.629 82.8629 142.627 82.9042L142.624 91.6893C142.916 91.6698 143.251 91.6674 143.535 91.6844L143.533 82.9018Z" fill="#FFC845"/>
<path d="M147.667 93.6484C147.616 93.6144 147.575 93.5926 147.531 93.5658L147.419 93.5002C147.385 93.4808 147.351 93.4614 147.317 93.4419L147.261 93.4055C147.235 93.3909 147.215 93.3788 147.196 93.3691C146.831 93.1674 146.443 92.9876 146.034 92.8346L145.978 92.8127C145.944 92.7982 145.925 92.7885 145.903 92.7836L145.77 92.7374C145.471 92.6378 145.15 92.5504 144.812 92.4799L144.606 92.4338C144.574 92.4265 144.552 92.4216 144.531 92.4168C144.343 92.3828 144.144 92.3584 143.916 92.3342L143.814 92.3269C143.758 92.322 143.736 92.322 143.714 92.3196C143.68 92.3196 143.656 92.3196 143.632 92.3172L143.566 92.3123C143.231 92.2929 142.966 92.288 142.531 92.322L142.388 92.3317C142.366 92.3342 142.346 92.3366 142.327 92.339C142.293 92.3463 142.269 92.3487 142.244 92.3511C142.016 92.3779 141.817 92.4046 141.642 92.4386C141.62 92.4435 141.598 92.4483 141.579 92.4532L141.36 92.5018C141 92.582 140.689 92.6694 140.41 92.769L140.145 92.8735C139.744 93.0338 139.361 93.2185 139.006 93.425L138.671 93.6315C138.607 93.6703 138.561 93.6995 138.515 93.7311C138.384 93.8186 138.141 93.9352 138.019 94.0251L139.492 96.1363C139.514 96.1679 139.545 96.1849 139.584 96.1849C139.586 96.1849 139.599 96.1825 139.623 96.1752C139.871 96.0415 140.119 95.9201 140.378 95.8107L140.519 95.7524C141.365 95.4172 142.252 95.2471 143.151 95.2471C144.006 95.2471 144.822 95.4099 145.646 95.7476L145.697 95.7694C145.726 95.7791 145.755 95.7913 145.787 95.8034C146.046 95.9176 146.304 96.0464 146.554 96.1873C146.593 96.2019 146.61 96.2043 146.615 96.2043C146.651 96.2043 146.683 96.1849 146.705 96.1557L148.194 93.9667C148.061 93.8695 147.82 93.7456 147.667 93.6484Z" fill="#FFC845"/>
<path d="M93.7458 169.181C93.7458 168.313 94.103 167.529 94.6715 166.98C95.2424 167.529 95.5947 168.313 95.5947 169.181C95.5947 170.051 95.24 170.833 94.669 171.382C94.1005 170.833 93.7458 170.051 93.7458 169.181ZM97.7958 171.622C96.5422 171.802 95.3347 172.964 95.0626 173.24C95.0675 173.134 95.0699 173.029 95.0699 172.929C95.0699 172.368 94.8707 171.727 94.8464 171.649C96.4499 171.567 97.6622 170.534 97.6622 169.181C97.6622 168.1 97.0572 167.176 95.8668 166.805C95.8668 166.805 95.8935 166.513 95.947 166.377C95.998 166.241 96.0757 165.964 96.0757 165.964C96.0757 165.964 95.806 166.035 95.5971 166.12C95.3857 166.205 95.1428 166.411 95.1428 166.411C95.1428 166.411 95.0918 166.222 95.0043 166.069C94.9169 165.913 94.6545 165.682 94.6545 165.682C94.6545 165.682 94.4285 165.801 94.2536 165.998C94.0787 166.195 93.9572 166.445 93.9572 166.445C93.9572 166.445 93.7823 166.275 93.5223 166.171C93.2599 166.069 92.8056 166.154 92.8056 166.154C92.8056 166.154 93.051 166.411 93.1725 166.55C93.2745 166.729 93.3134 166.841 93.3134 166.841C92.1278 166.926 91.5569 168.117 91.5569 169.181C91.5569 170.519 92.8056 171.55 94.3921 171.647C94.4018 171.71 94.5063 172.312 94.4771 172.929C94.4747 172.99 94.4698 173.049 94.465 173.109C94.052 172.825 92.31 171.654 91.501 171.477C90.3203 171.219 88.9938 171.428 88.4204 171.396C88.4374 171.411 89.108 171.912 89.4044 172.218C89.6983 172.526 90.6823 173.138 91.2386 173.284C92.7109 173.67 94.0811 173.316 94.4553 173.204C94.3678 173.901 94.0957 174.606 94.0957 174.606C94.0957 174.606 94.4431 174.484 94.5476 174.433C94.652 174.382 94.9679 174.331 94.9679 174.331C94.9679 174.331 95.0335 173.809 95.0602 173.291C95.1598 173.277 95.3712 173.243 95.5291 173.221C95.7429 173.187 97.0257 173.333 98.1894 173.316C99.3531 173.301 100.111 172.638 100.407 172.429C100.701 172.218 101.258 171.946 101.243 171.946C100.587 171.766 99.4819 171.379 97.7958 171.622Z" fill="#FFC845"/>
<path d="M110.777 101.202C112.007 101.615 113.474 102.739 114.196 103.818C114.805 103.374 115.94 103.036 116.654 103.417C116.666 103.427 116.681 103.429 116.698 103.415C116.81 103.293 116.457 102.776 116.231 102.761C116.224 102.761 116.205 102.773 116.195 102.783C116.134 102.827 115.989 102.934 115.906 102.995C115.889 103.007 115.872 102.99 115.874 102.97C115.889 102.89 115.908 102.812 115.928 102.735C115.933 102.72 115.935 102.703 115.925 102.691C115.731 102.482 115.388 102.589 115.352 102.871C115.35 102.885 115.364 102.9 115.374 102.909C115.444 102.97 115.481 103.004 115.554 103.07C115.58 103.097 115.539 103.131 115.5 103.131C115.357 103.135 115.082 103.165 114.971 103.038C114.907 102.965 114.89 102.868 114.92 102.781C114.924 102.764 114.915 102.752 114.898 102.754C114.83 102.756 114.759 102.73 114.708 102.674C114.56 102.509 114.698 102.375 114.808 102.263C114.83 102.244 114.878 102.21 114.888 102.246C114.905 102.319 114.924 102.397 114.949 102.477C114.954 102.492 114.956 102.509 114.973 102.516C115.238 102.618 115.5 102.353 115.396 102.088C115.391 102.076 115.371 102.066 115.357 102.064C115.301 102.052 115.209 102.028 115.124 102.006C115.107 102.001 115.097 101.974 115.116 101.967C115.221 101.913 115.362 101.845 115.437 101.809C115.449 101.802 115.469 101.792 115.473 101.785C115.522 101.668 115.493 101.527 115.398 101.432C115.301 101.34 115.16 101.308 115.046 101.362C115.036 101.364 115.029 101.386 115.024 101.398C114.975 101.505 114.907 101.641 114.866 101.721C114.859 101.738 114.832 101.729 114.827 101.712C114.81 101.658 114.784 101.561 114.767 101.479C114.764 101.464 114.757 101.449 114.742 101.442C114.48 101.335 114.215 101.605 114.32 101.87C114.324 101.882 114.344 101.889 114.356 101.892C114.439 101.913 114.514 101.933 114.589 101.952C114.628 101.96 114.594 102.011 114.572 102.03C114.429 102.173 114.271 102.341 114.052 102.173C113.953 102.098 113.911 101.967 113.943 101.85C113.945 101.843 113.938 101.836 113.928 101.838C113.834 101.875 113.719 101.862 113.632 101.794C113.379 101.602 113.564 101.384 113.693 101.206C113.71 101.182 113.754 101.143 113.768 101.177C113.8 101.253 113.836 101.342 113.858 101.401C113.863 101.413 113.87 101.43 113.887 101.435C114.159 101.515 114.397 101.202 114.252 100.956C114.242 100.944 114.227 100.942 114.213 100.939C114.145 100.932 114.052 100.92 113.975 100.91C113.955 100.908 113.938 100.886 113.96 100.871C113.979 100.859 114.169 100.733 114.256 100.674C114.269 100.665 114.288 100.655 114.29 100.645C114.375 100.373 114.057 100.133 113.814 100.281C113.807 100.286 113.8 100.307 113.795 100.32C113.761 100.424 113.698 100.623 113.683 100.66C113.676 100.679 113.649 100.674 113.642 100.655C113.637 100.645 113.586 100.521 113.554 100.431C113.549 100.419 113.54 100.402 113.523 100.4C113.248 100.329 113.01 100.635 113.158 100.876C113.168 100.891 113.187 100.893 113.197 100.895C113.289 100.905 113.418 100.922 113.438 100.925C113.472 100.927 113.447 100.98 113.428 101.005C113.292 101.175 113.129 101.408 112.876 101.216C112.789 101.151 112.748 101.044 112.757 100.942C112.757 100.932 112.748 100.927 112.74 100.929C112.636 100.993 112.502 100.988 112.4 100.908C112.184 100.745 112.301 100.546 112.403 100.371C112.417 100.344 112.451 100.303 112.476 100.332C112.524 100.395 112.568 100.492 112.592 100.543C112.599 100.555 112.607 100.57 112.626 100.572C112.908 100.604 113.088 100.288 112.927 100.052C112.918 100.04 112.898 100.038 112.886 100.038C112.794 100.04 112.719 100.04 112.646 100.04C112.621 100.04 112.612 100.018 112.626 100.004C112.704 99.9334 112.862 99.7997 112.896 99.7706C112.906 99.7609 112.925 99.7487 112.925 99.739C112.942 99.6127 112.881 99.4839 112.765 99.4183C112.648 99.3503 112.502 99.3552 112.408 99.4378C112.398 99.445 112.395 99.4645 112.393 99.4791C112.378 99.5811 112.344 99.739 112.325 99.8289C112.32 99.8483 112.291 99.8459 112.284 99.8313C112.262 99.7925 112.203 99.6929 112.165 99.6224C112.16 99.6078 112.15 99.5933 112.133 99.5908C111.851 99.5592 111.664 99.8824 111.832 100.111C111.844 100.125 111.858 100.125 111.873 100.125C111.944 100.123 112.029 100.123 112.114 100.123C112.152 100.123 112.131 100.179 112.116 100.203C112.036 100.342 111.946 100.507 111.744 100.407C111.679 100.373 111.635 100.312 111.62 100.244C111.618 100.227 111.603 100.223 111.589 100.232C111.514 100.281 111.414 100.291 111.326 100.247C111.176 100.174 111.139 99.9018 111.098 99.7633C111.088 99.7244 111.11 99.6759 111.144 99.6953C111.183 99.7196 111.3 99.7973 111.346 99.8265C111.358 99.8338 111.373 99.8411 111.387 99.8362C111.654 99.739 111.671 99.3552 111.411 99.2361C111.394 99.2288 111.382 99.2385 111.37 99.2434C111.305 99.2799 111.22 99.326 111.156 99.3576C111.147 99.3624 111.118 99.3552 111.125 99.3357C111.137 99.2993 111.207 99.1195 111.254 99.0005C111.258 98.9859 111.268 98.9689 111.266 98.9592C111.19 98.7478 110.6 98.5389 110.513 98.6798C110.503 98.6992 110.51 98.7138 110.52 98.7211C111.076 99.3114 111.047 100.495 110.777 101.202Z" fill="#FFC845"/>
<path d="M108.833 117.342C107.461 116.895 105.986 117.646 105.539 119.021C105.337 119.638 105.379 120.277 105.61 120.831C105.612 120.624 105.68 120.386 105.794 120.18C105.906 119.973 106.064 119.798 106.205 119.713C106.108 119.924 106.052 120.153 106.086 120.483C106.117 120.782 106.236 121.086 106.479 121.341C106.494 121.12 106.545 120.952 106.586 120.85C106.62 120.772 106.678 120.753 106.727 120.75C106.785 120.748 106.841 120.792 106.861 120.852C106.912 121.001 106.938 121.154 106.941 121.312C106.943 121.47 106.921 121.63 106.868 121.788C106.618 122.563 105.784 122.988 105.009 122.735C104.871 122.692 104.742 122.626 104.628 122.548C104.395 122.388 103.909 122.181 103.649 122.089C103.175 121.919 102.575 122.077 102.383 122.174C102.079 122.327 101.873 122.616 101.827 122.956C102.043 122.713 102.378 122.597 102.714 122.675C102.823 122.699 102.886 122.794 102.896 122.879C102.944 123.143 103.248 123.428 103.615 123.374C103.671 123.369 103.734 123.355 103.809 123.328C103.887 123.314 104.055 123.204 104.21 123.192C104.266 123.185 104.344 123.224 104.375 123.306C104.402 123.374 104.397 123.474 104.271 123.532C104.137 123.571 103.996 123.576 103.702 123.705C103.241 123.906 102.91 124.431 102.837 124.633C102.721 124.953 102.769 125.306 102.966 125.583C102.959 125.26 103.122 124.944 103.421 124.771C103.518 124.715 103.627 124.742 103.693 124.796C103.909 124.956 104.327 124.956 104.558 124.667C104.572 124.64 104.626 124.553 104.667 124.499C104.72 124.429 104.827 124.147 104.951 123.987C104.997 123.887 105.114 123.86 105.187 123.899C105.255 123.936 105.299 123.999 105.284 124.091C105.255 124.2 105.231 124.193 105.192 124.567C105.153 124.941 105.435 125.614 105.573 125.777C105.794 126.037 106.125 126.168 106.462 126.132C106.178 125.981 105.984 125.682 105.981 125.337C105.979 125.226 106.057 125.143 106.137 125.114C106.382 125.004 106.589 124.64 106.45 124.295C106.436 124.271 106.385 124.181 106.358 124.12C106.338 124.074 106.304 123.989 106.278 123.889C106.219 123.758 106.367 123.578 106.535 123.678C106.717 123.792 106.914 123.884 107.125 123.955C108.185 124.298 109.3 123.948 109.983 123.156C109.769 123.141 109.553 123.1 109.336 123.029C109.147 122.969 108.967 122.886 108.799 122.789C109.39 122.738 109.932 122.41 110.25 121.902C110.099 121.953 109.934 121.958 109.771 121.904C109.375 121.776 109.157 121.351 109.288 120.952C109.417 120.556 109.842 120.337 110.24 120.469C110.381 120.52 110.568 120.486 110.6 120.284C110.714 119.652 110.585 119.018 110.272 118.493C109.961 117.966 109.463 117.546 108.833 117.342Z" fill="#FFC845"/>
<path d="M104.045 104.48C104.21 104.692 104.443 104.869 104.725 104.961C104.876 105.01 105.034 105.032 105.187 105.029L108.109 105.034C107.242 104.84 106.229 104.68 105.398 104.41C105.184 104.342 104.973 104.206 104.817 104.043C104.66 103.873 104.458 103.737 104.222 103.659C103.765 103.511 103.287 103.611 102.935 103.883C103.066 103.888 103.199 103.909 103.331 103.951C103.632 104.05 103.877 104.24 104.045 104.48Z" fill="#FFC845"/>
<path d="M108.525 102.916V102.911V102.908V102.903V102.896V102.894V102.889V102.886H108.528V102.882V102.879V102.874V102.872L108.53 102.867V102.865V102.86L108.533 102.852V102.85V102.845V102.843L108.535 102.838V102.835L108.538 102.833V102.831V102.828L108.54 102.821L108.542 102.814L108.545 102.809V102.806L108.547 102.801L108.55 102.794L108.552 102.789L108.555 102.787L108.557 102.78L108.559 102.775L108.562 102.772L108.564 102.767L108.567 102.763L108.569 102.76V102.758L108.572 102.755V102.753L108.576 102.75V102.748L108.579 102.743L108.584 102.738L108.586 102.736L108.589 102.731V102.729L108.591 102.726L108.593 102.724L108.598 102.719L108.601 102.716L108.603 102.714L108.608 102.709L108.61 102.707L108.613 102.704L108.615 102.702L108.618 102.699L108.623 102.695L108.627 102.69L108.632 102.687V102.685H108.635L108.64 102.68L108.644 102.678V102.675L108.649 102.673L108.654 102.67L108.657 102.668L108.661 102.665L108.664 102.663L108.669 102.661L108.674 102.658L108.678 102.656L108.683 102.653L108.686 102.651H108.688L108.691 102.648H108.693L108.698 102.646L108.7 102.644L108.705 102.641L108.712 102.639H108.715L108.717 102.636H108.72L108.722 102.634H108.725H108.727L108.729 102.631H108.734H108.737L108.742 102.629H108.746V102.627H108.751C108.759 102.624 108.763 102.624 108.768 102.622H108.771C108.788 102.619 108.802 102.617 108.819 102.617C108.824 102.617 108.827 102.617 108.831 102.619H108.839H108.844H108.846H108.848H108.851H108.853H108.856L108.858 102.622H108.861H108.863H108.865H108.868H108.87L108.875 102.624H108.88H108.882L108.887 102.627H108.89L108.895 102.629H108.897H108.899H108.902L108.904 102.631H108.907L108.912 102.634H108.916L108.919 102.636H108.921H108.924V102.639H108.926H108.929L108.931 102.641H108.933H108.936V102.644H108.938H108.941V102.646H108.943H108.946L108.948 102.648L110.1 102.959C109.847 103.304 109.393 103.465 108.963 103.324C108.834 103.282 108.717 103.217 108.62 103.132V103.129C108.618 103.127 108.613 103.122 108.61 103.12L108.608 103.117H108.605L108.603 103.112C108.598 103.108 108.596 103.105 108.591 103.1L108.588 103.095C108.586 103.093 108.584 103.091 108.584 103.088L108.579 103.083L108.576 103.078L108.574 103.076V103.074C108.571 103.069 108.569 103.066 108.567 103.061H108.564V103.059L108.562 103.057L108.559 103.054L108.557 103.049C108.557 103.044 108.554 103.042 108.554 103.04L108.552 103.037C108.552 103.035 108.55 103.03 108.547 103.025L108.545 103.02V103.018L108.542 103.01L108.54 103.006L108.537 103.001V102.996L108.535 102.991V102.986L108.533 102.981V102.979V102.974L108.53 102.969V102.967V102.964V102.959H108.528V102.954V102.952V102.947V102.945L108.525 102.94V102.937V102.933V102.928V102.923V102.918L108.525 102.916ZM106.519 103.992C106.502 104.23 106.582 104.461 106.737 104.636C106.886 104.181 107.371 103.936 107.826 104.082C108.28 104.23 108.528 104.718 108.38 105.173C108.251 105.569 107.865 105.807 107.466 105.765C107.439 105.758 107.418 105.751 107.393 105.744C107.119 105.654 106.98 105.401 107.019 105.141C106.92 105.233 106.839 105.348 106.788 105.486C106.655 105.892 106.677 106.307 106.541 106.633C106.436 106.876 106.23 106.844 106.145 107.097C107.359 106.737 107.563 107.038 107.855 106.97C107.879 106.966 108.623 106.63 109.422 106.395C109.478 106.382 109.65 106.276 109.568 106.05C109.512 105.88 109.507 105.695 109.565 105.51C109.602 105.401 109.658 105.301 109.728 105.219C109.774 105.17 109.869 105.209 109.842 105.299C109.818 105.345 109.799 105.391 109.782 105.44C109.716 105.646 109.73 105.86 109.808 106.047C109.835 106.106 109.867 106.161 109.905 106.215C109.976 106.327 110.041 106.409 110.117 106.54C110.131 106.56 110.141 106.621 110.08 106.642C109.971 106.674 109.327 106.866 109.191 106.932C109.053 106.978 109.002 107.119 109.026 107.226C109.04 107.362 108.999 107.502 108.921 107.607C108.829 107.731 108.693 107.794 108.516 107.804C108.312 107.804 107.094 107.86 106.281 108.066C105.554 108.389 105.377 108.941 105.355 109.427C106.227 109.254 106.958 109.645 106.992 109.662L107.384 109.876L107.031 110.151C107 110.175 106.332 110.717 106.419 111.591C107.24 111.224 108.015 111.62 108.052 111.642L108.392 111.822L108.127 112.102C108.059 112.174 107.52 112.791 107.899 113.542C108.368 113.144 108.994 113 109.667 113.144L109.874 113.19L109.903 113.401C109.903 113.418 109.905 113.443 109.908 113.479C109.915 113.678 109.939 114.23 110.318 114.553C110.773 113.967 111.431 113.773 111.949 113.722C112.393 113.501 112.867 113.139 113.01 112.417C111.902 112.92 112.034 112.216 112.272 111.985C112.879 111.319 113.047 110.517 113.348 109.606C113.367 109.553 113.384 109.5 113.399 109.446C113.443 109.3 113.36 109.201 113.28 109.15C113.239 109.116 113.166 109.006 113.064 108.71C113.725 109.186 114.344 108.38 114.269 107.933C113.868 108.474 113.674 108.178 113.674 107.986C113.674 107.796 113.863 105.763 113.411 104.772C113.858 104.901 114.332 104.653 114.475 104.208C114.492 104.16 114.502 104.113 114.509 104.065C114.32 104.15 114.099 104.169 113.887 104.099C113.734 104.05 113.603 103.963 113.506 103.849C113.307 103.603 113.154 103.406 113.052 103.321C112.235 102.464 111.312 101.956 110.505 101.66C110.277 101.876 109.966 101.995 109.645 101.983L108.287 101.932C108.027 101.849 107.748 101.968 107.627 102.206C107.61 102.289 106.849 102.624 106.421 102.821C106.339 102.84 106.268 102.901 106.242 102.988C106.208 103.093 106.247 103.205 106.332 103.268C106.443 103.382 106.528 103.7 106.519 103.992Z" fill="#FFC845"/>
<path d="M98.2269 106.651C98.3848 106.87 98.7832 106.996 99.0917 106.79C99.1136 106.768 99.1889 106.702 99.2448 106.663C99.3298 106.603 99.4222 106.549 99.5169 106.506L99.5193 106.508C99.5606 106.484 99.6141 106.476 99.6627 106.493C99.7453 106.52 99.7939 106.6 99.7841 106.685H99.7866C99.7817 106.695 99.7793 106.705 99.7769 106.714C99.6068 107.239 99.8935 107.803 100.416 107.97C100.501 108 100.588 108.017 100.676 108.022C100.875 108.313 101.106 108.585 101.363 108.833C101.32 108.874 101.259 108.903 101.188 108.899C100.846 108.884 100.554 108.677 100.413 108.388C100.365 108.726 100.484 109.061 100.734 109.29C100.892 109.435 101.417 109.744 101.915 109.717C101.56 109.899 101.15 109.917 100.79 109.776C100.994 110.074 101.293 110.288 101.633 110.385H101.638C101.643 110.388 101.65 110.388 101.655 110.39C102.741 110.689 103.232 110.606 103.866 110.711C104.395 110.801 104.403 111.292 104.898 111.209C105.112 111.156 105.605 110.891 105.97 110.665C106.072 110.41 106.205 110.196 106.332 110.038C106.04 109.96 105.612 109.912 105.178 110.084L104.779 110.244V109.812C104.779 109.8 104.777 109.78 104.774 109.754C104.75 109.329 104.808 108.976 104.92 108.682C104.536 108.665 104.038 108.59 103.717 108.483C103.564 108.432 103.414 108.371 103.273 108.301C102.887 108.109 102.551 107.854 102.272 107.548L102.27 107.545C102.257 107.531 102.245 107.519 102.233 107.506V107.504C102.221 107.492 102.211 107.477 102.199 107.465L102.189 107.455C102.182 107.446 102.175 107.436 102.168 107.426L102.155 107.414C102.146 107.402 102.136 107.39 102.126 107.378L102.119 107.368C102.112 107.358 102.102 107.349 102.095 107.339L102.083 107.322L102.066 107.3C102.061 107.295 102.056 107.288 102.051 107.281C102.044 107.271 102.036 107.261 102.032 107.254C102.024 107.244 102.017 107.234 102.01 107.225L102 107.208C101.993 107.2 101.988 107.193 101.981 107.183L101.973 107.174C101.954 107.144 101.934 107.113 101.915 107.084L101.91 107.076C101.852 106.987 101.798 106.894 101.75 106.799C101.531 106.372 101.4 105.901 101.373 105.415C101.293 105.215 101.254 104.997 101.259 104.771C101.269 104.443 101.371 104.419 101.441 103.918C101.514 103.42 101.242 102.864 101.108 102.696C100.929 102.465 100.649 102.312 100.333 102.302C100.299 102.302 100.265 102.302 100.234 102.305C100.511 102.468 100.693 102.774 100.683 103.119C100.681 103.231 100.601 103.311 100.52 103.337C100.27 103.437 100.049 103.792 100.173 104.142C100.188 104.168 100.236 104.258 100.258 104.321C100.297 104.423 100.326 104.525 100.346 104.635C100.348 104.647 100.35 104.657 100.35 104.669C100.353 104.679 100.353 104.688 100.355 104.698H100.35C100.348 104.71 100.346 104.722 100.343 104.734C100.312 104.827 100.212 104.878 100.12 104.846C100.086 104.836 100.059 104.815 100.037 104.79C99.9787 104.742 99.9252 104.686 99.8742 104.628C99.6628 104.38 99.7187 104.295 99.4369 103.877C99.1551 103.459 98.5768 103.233 98.3655 103.197C98.0764 103.148 97.7678 103.223 97.5273 103.43C97.503 103.452 97.4787 103.474 97.4569 103.498C97.7703 103.432 98.1128 103.534 98.3363 103.797C98.4092 103.879 98.4044 103.993 98.363 104.069C98.244 104.309 98.3217 104.722 98.6497 104.895C98.6764 104.904 98.7736 104.938 98.8319 104.973C98.985 105.045 99.1259 105.147 99.2522 105.271L99.2498 105.276C99.3178 105.317 99.3494 105.403 99.3251 105.48C99.3008 105.556 99.2304 105.602 99.1551 105.602V105.609C99.019 105.604 98.883 105.582 98.5647 105.614C98.0642 105.665 97.5929 106.066 97.4617 106.236C97.2819 106.469 97.2017 106.775 97.2698 107.084C97.2771 107.118 97.2868 107.149 97.2965 107.181C97.3864 106.87 97.639 106.62 97.9743 106.544C98.0836 106.52 98.1807 106.578 98.2269 106.651Z" fill="#FFC845"/>
<path d="M115.569 107.61C114.464 109.971 116.339 112.498 117.255 114.619C117.736 115.734 117.96 117.376 117.858 118.438C117.848 118.581 117.802 118.73 117.756 118.873C117.498 119.665 116.735 120.156 115.938 120.105C115.863 120.097 115.795 120.049 115.778 119.947C115.717 119.252 115.387 118.608 114.862 118.151C113.592 117.075 113.161 116.932 112.491 116.12C112.076 115.605 111.884 115.071 112.146 114.291C111.682 114.313 111.014 114.466 110.657 115.095L110.523 115.328L110.28 115.214C109.724 114.952 109.408 114.439 109.335 113.684C108.971 113.65 108.463 113.708 108.081 114.186L107.855 114.471L107.625 114.189C107.535 114.075 107.459 113.958 107.399 113.844L106.845 113.781C106.704 114.089 106.459 114.57 106.031 114.981C107.384 115.724 108.613 116.188 109.891 116.924C110.404 117.252 110.883 117.763 111.145 118.355C111.427 118.868 111.594 119.835 111.366 120.673C111.313 120.88 110.768 122.765 110.997 123.807C111.075 124.451 111.381 125.012 111.825 125.418C111.738 125.228 111.701 124.986 111.716 124.75C111.733 124.517 111.801 124.291 111.893 124.155C111.893 124.385 111.939 124.616 112.11 124.903C112.263 125.16 112.498 125.384 112.826 125.513C112.727 125.26 112.702 125.007 112.787 124.747C112.897 124.412 113.159 124.169 113.47 124.074C113.851 123.958 114.493 123.596 114.677 122.775C114.797 123.127 114.809 123.521 114.685 123.902C114.636 124.05 114.571 124.186 114.49 124.313C114.775 124.577 114.894 124.995 114.767 125.389C114.748 125.442 114.668 126.12 114.124 126.416C114.092 126.433 113.662 126.616 112.52 126.208C112.044 126.037 111.446 126.195 111.254 126.293C110.948 126.446 110.744 126.737 110.698 127.075C110.912 126.834 111.249 126.715 111.585 126.793C111.694 126.817 111.755 126.912 111.767 126.997C111.813 127.262 112.119 127.549 112.486 127.495C112.54 127.49 112.605 127.473 112.68 127.449C112.756 127.434 112.926 127.323 113.081 127.311C113.137 127.303 113.215 127.342 113.246 127.425C113.273 127.493 113.268 127.595 113.142 127.653C113.008 127.69 112.865 127.697 112.571 127.823C112.109 128.025 111.782 128.55 111.709 128.754C111.59 129.072 111.638 129.424 111.837 129.701C111.83 129.38 111.993 129.065 112.292 128.89C112.389 128.834 112.498 128.861 112.564 128.916C112.78 129.074 113.198 129.077 113.429 128.785C113.443 128.761 113.497 128.671 113.538 128.618C113.591 128.547 113.698 128.265 113.82 128.107C113.868 128.005 113.985 127.979 114.058 128.018C114.126 128.054 114.167 128.117 114.155 128.209C114.09 128.409 114.138 128.477 113.864 128.924C113.591 129.371 113.613 129.968 113.664 130.177C113.745 130.508 113.983 130.775 114.301 130.892C114.114 130.629 114.075 130.277 114.226 129.966C114.274 129.866 114.381 129.827 114.466 129.835C114.733 129.847 115.081 129.616 115.11 129.244C115.093 129.001 114.906 128.797 114.93 128.686C114.933 128.652 114.971 128.535 115.112 128.533C115.596 128.622 116.082 128.341 116.24 127.86C116.32 127.614 116.298 127.359 116.198 127.14C115.661 125.96 117.666 125.058 117.69 124.419C117.855 123.914 117.578 123.37 117.071 123.205C116.917 123.156 116.762 123.146 116.614 123.171C116.264 123.219 116.104 122.964 116.074 122.806C115.958 122.187 115.637 121.652 115.467 121.451C115.518 121.353 115.564 121.254 115.603 121.152C116.92 121.298 118.203 120.508 118.628 119.201C118.732 118.875 118.805 118.533 118.795 118.21C118.822 117.058 118.686 115.681 118.084 114.242C117.168 112.051 114.945 109.42 116.813 107.146C117.6 106.191 118.64 106.332 119.063 106.721C119.442 107.002 119.806 107.445 120.166 108.698C120.36 109.466 120.965 110.19 121.925 110.294C121.521 109.918 121.407 109.629 121.303 109.196C121.244 108.98 121.516 108.769 121.701 108.975C121.83 109.111 122.153 109.692 123.2 109.738C124.116 109.728 124.663 109.172 124.891 108.64C124.723 108.759 124.196 109.046 123.572 108.771C122.882 108.55 122.775 107.544 122.328 106.973C121.684 106.118 121.276 105.89 120.489 105.557C118.482 104.826 116.432 105.766 115.569 107.61Z" fill="#FFC845"/>
<path d="M101.615 117.567C101.816 117.781 102.108 117.907 102.424 117.886C102.458 117.883 102.489 117.881 102.523 117.876C102.23 117.74 102.021 117.451 101.999 117.108C101.991 116.996 102.067 116.909 102.144 116.875C102.383 116.753 102.57 116.379 102.414 116.044C102.397 116.017 102.341 115.932 102.315 115.869C102.268 115.777 102.23 115.68 102.2 115.578H102.205C102.186 115.531 102.186 115.478 102.21 115.432C102.249 115.354 102.339 115.318 102.419 115.342V115.34C102.429 115.344 102.438 115.349 102.446 115.354H102.448C102.939 115.604 103.539 115.408 103.789 114.917C103.828 114.839 103.857 114.754 103.877 114.667C104.197 114.516 104.501 114.331 104.785 114.115C104.819 114.164 104.839 114.227 104.824 114.297C104.756 114.635 104.508 114.89 104.2 114.987C104.525 115.087 104.875 115.019 105.14 114.807C105.308 114.674 105.694 114.205 105.745 113.709C105.871 114.086 105.823 114.494 105.628 114.829C106.087 114.611 106.406 114.181 106.484 113.678C106.486 113.661 106.491 113.641 106.491 113.619C106.479 113.527 106.612 113.367 106.78 113.481C106.824 113.517 107.071 113.532 107.271 113.547C107.081 112.966 107.232 112.427 107.448 112.05C107.176 111.994 106.775 111.992 106.396 112.281L106.068 112.531L105.942 112.14C105.818 111.763 105.803 111.423 105.847 111.124C104.333 112.276 104.27 112.942 102.837 113.418C102.38 113.568 101.894 113.624 101.411 113.576C101.202 113.622 100.981 113.629 100.755 113.585C100.434 113.527 100.427 113.423 99.9433 113.274C99.4623 113.124 98.8719 113.308 98.6824 113.413C98.4273 113.556 98.2354 113.809 98.1771 114.12C98.1698 114.151 98.1649 114.186 98.1625 114.217C98.3666 113.969 98.697 113.836 99.0347 113.899C99.1464 113.921 99.212 114.013 99.2266 114.096C99.2849 114.358 99.6008 114.633 99.9652 114.562C99.9943 114.552 100.092 114.518 100.157 114.506C100.264 114.482 100.371 114.472 100.48 114.47C100.492 114.467 100.502 114.467 100.514 114.47C100.524 114.47 100.534 114.47 100.543 114.47V114.475C100.556 114.477 100.568 114.482 100.577 114.487C100.665 114.531 100.699 114.637 100.655 114.725C100.638 114.756 100.614 114.781 100.585 114.798H100.587C100.529 114.846 100.466 114.892 100.4 114.934C100.123 115.104 100.048 115.036 99.591 115.25C99.1343 115.463 98.8209 115.998 98.7529 116.202C98.6605 116.479 98.6873 116.797 98.8525 117.064C98.8695 117.094 98.8889 117.12 98.9083 117.147C98.8913 116.824 99.0468 116.506 99.3408 116.323C99.4355 116.263 99.5473 116.287 99.6129 116.34C99.834 116.494 100.252 116.481 100.473 116.185C100.488 116.158 100.539 116.068 100.577 116.015C100.677 115.876 100.798 115.753 100.939 115.646L100.944 115.65C100.995 115.59 101.083 115.57 101.158 115.609C101.229 115.643 101.265 115.721 101.25 115.796H101.26C101.233 115.93 101.187 116.061 101.17 116.379C101.143 116.882 101.467 117.412 101.615 117.567Z" fill="#FFC845"/>
<path d="M62.4963 133.793H66.3155V165.43C63.7767 162.274 62.4963 158.467 62.4963 154.045V133.793ZM76.1986 114.96V117.681H74.0461V114.96C74.0461 114.364 74.5296 113.881 75.1224 113.881C75.7176 113.881 76.1986 114.364 76.1986 114.96ZM82.2942 114.96V117.681H80.1417V114.96C80.1417 114.364 80.6227 113.881 81.218 113.881C81.8107 113.881 82.2942 114.364 82.2942 114.96ZM62.4963 96.1117H93.98V120.88C91.6696 120.999 89.5462 121.961 87.8383 123.504H85.1489V113.708H86.3004V109.471H85.1489V106.68H86.0089V105.205V104.224H85.2728V105.205H84.5366V104.224H83.0619V105.205H82.3234V104.224H81.5872V105.205V106.68H82.4473V109.471H79.8915V103.356H80.8681V101.391V100.407H80.132V101.391H78.9027V100.407H77.428V101.391H76.1986V100.407H75.4625V101.391V103.356H76.4489V109.471H73.8833V106.68H74.7434V105.205V104.224H74.0072V105.205H73.2687V104.224H71.794V105.205H71.0578V104.224H70.3193V105.205V106.68H71.1793V109.471H70.0277V113.708H71.1793V123.504H69.0729V128.419H76.2059V124.947C76.2059 123.861 77.0854 122.982 78.1714 122.982C79.2549 122.982 80.1344 123.861 80.1344 124.947V128.419H84.5561C84.0629 129.748 83.7665 131.196 83.7082 132.714H62.4963V96.1117ZM103.348 133.254C103.348 139.05 99.3711 143.747 94.4708 143.747C89.5657 143.747 85.591 139.05 85.591 133.254C85.591 127.459 89.5657 122.758 94.4708 122.758C99.3711 122.758 103.348 127.459 103.348 133.254ZM95.0004 96.1117H126.542V132.714H105.231C104.993 126.335 100.54 121.191 95.0004 120.88V96.1117ZM101.312 150.773C101.312 151.562 100.676 152.204 99.8861 152.204C99.099 152.204 98.46 151.562 98.46 150.773C98.46 149.981 99.099 149.339 99.8861 149.339C100.676 149.339 101.312 149.981 101.312 150.773ZM108.261 149.143C108.088 149.412 107.959 149.711 107.877 150.029H102.369C102.116 149.189 101.456 148.528 100.615 148.28V143.424C101.118 143.02 101.589 142.568 102.024 142.075L108.261 149.143ZM110.046 141.043V147.843C109.789 147.911 109.543 148.008 109.317 148.137L102.935 140.902C103.28 140.396 103.596 139.859 103.873 139.293H108.292C108.542 140.134 109.206 140.795 110.046 141.043ZM110.775 139.981C109.986 139.981 109.349 139.342 109.349 138.55C109.349 137.758 109.986 137.119 110.775 137.119C111.562 137.119 112.201 137.758 112.201 138.55C112.201 139.342 111.562 139.981 110.775 139.981ZM112.262 148.122C112.026 147.991 111.771 147.889 111.504 147.826V141.043C112.342 140.795 113.008 140.134 113.258 139.293H119.179C119.247 139.522 119.349 139.736 119.473 139.935L112.262 148.122ZM120.563 140.902C120.683 140.958 120.806 141.004 120.933 141.043V148.28C120.095 148.525 119.431 149.189 119.179 150.029H113.737C113.654 149.699 113.516 149.388 113.333 149.113L120.563 140.902ZM120.236 138.55C120.236 137.758 120.874 137.119 121.662 137.119C122.451 137.119 123.09 137.758 123.09 138.55C123.09 139.342 122.451 139.981 121.662 139.981C120.874 139.981 120.236 139.342 120.236 138.55ZM120.236 150.773C120.236 149.981 120.874 149.339 121.662 149.339C122.451 149.339 123.09 149.981 123.09 150.773C123.09 151.562 122.451 152.204 121.662 152.204C120.874 152.204 120.236 151.562 120.236 150.773ZM120.138 160.068C120.925 160.068 121.564 160.709 121.564 161.501C121.564 162.291 120.925 162.932 120.138 162.932C119.349 162.932 118.712 162.291 118.712 161.501C118.712 160.709 119.349 160.068 120.138 160.068ZM113.231 152.573C113.465 152.262 113.637 151.902 113.737 151.516H119.181C119.431 152.354 120.095 153.018 120.933 153.265V155.877C120.933 156.939 120.768 157.962 120.466 158.926C120.359 158.912 120.25 158.902 120.138 158.902C119.745 158.902 119.373 158.994 119.038 159.152L113.231 152.573ZM111.504 164.339V153.717C111.715 153.669 111.917 153.596 112.109 153.503L117.947 160.119C117.694 160.52 117.546 160.994 117.546 161.501C117.546 162.067 117.728 162.592 118.037 163.017C116.725 164.371 115.044 165.357 113.161 165.814C112.857 165.104 112.25 164.558 111.504 164.339ZM110.775 165.398C111.562 165.398 112.201 166.04 112.201 166.832C112.201 167.621 111.562 168.263 110.775 168.263C109.986 168.263 109.349 167.621 109.349 166.832C109.349 166.04 109.986 165.398 110.775 165.398ZM109.094 150.773C109.094 149.823 109.862 149.053 110.807 149.053C111.752 149.053 112.519 149.823 112.519 150.773C112.519 151.72 111.752 152.49 110.807 152.49C109.862 152.49 109.094 151.72 109.094 150.773ZM103.642 160.117L109.478 153.489C109.658 153.579 109.847 153.649 110.046 153.7V164.339C109.303 164.558 108.695 165.099 108.394 165.804C106.521 165.347 104.85 164.371 103.54 163.034C103.856 162.604 104.045 162.075 104.045 161.501C104.045 160.991 103.895 160.517 103.642 160.117ZM102.879 161.501C102.879 162.291 102.24 162.932 101.451 162.932C100.664 162.932 100.025 162.291 100.025 161.501C100.025 160.709 100.664 160.068 101.451 160.068C102.24 160.068 102.879 160.709 102.879 161.501ZM102.551 159.152C102.216 158.994 101.844 158.902 101.451 158.902C101.327 158.902 101.205 158.914 101.086 158.931C100.783 157.966 100.615 156.941 100.615 155.877V153.263C101.456 153.018 102.116 152.354 102.369 151.516H107.877C107.974 151.893 108.139 152.243 108.363 152.551L102.551 159.152ZM126.542 154.045C126.542 161.251 123.243 166.81 116.735 170.563C115.94 171.023 115.092 171.448 114.208 171.846C113.29 172.048 112.354 172.155 111.407 172.155C106.718 172.155 102.469 170.192 99.4391 166.63C96.6185 163.309 95.0004 158.749 95.0004 154.113V145.627C96.4848 145.544 97.8891 145.112 99.1573 144.403V148.28C98.081 148.596 97.2939 149.592 97.2939 150.773C97.2939 151.951 98.081 152.947 99.1573 153.263V155.877C99.1573 157.16 99.3687 158.392 99.7501 159.546C99.2059 160.022 98.8585 160.721 98.8585 161.501C98.8585 162.935 100.022 164.101 101.451 164.101C101.776 164.101 102.087 164.035 102.376 163.926C103.929 165.563 105.95 166.747 108.222 167.264C108.428 168.491 109.492 169.429 110.775 169.429C112.053 169.429 113.115 168.496 113.326 167.274C115.607 166.761 117.636 165.568 119.193 163.919C119.487 164.033 119.805 164.101 120.138 164.101C121.567 164.101 122.731 162.935 122.731 161.501C122.731 160.707 122.373 159.995 121.81 159.519C122.184 158.372 122.393 157.148 122.393 155.877V153.263C123.467 152.947 124.256 151.951 124.256 150.773C124.256 149.592 123.467 148.596 122.393 148.28V141.043C123.467 140.727 124.256 139.728 124.256 138.55C124.256 137.117 123.093 135.953 121.662 135.953C120.491 135.953 119.499 136.735 119.179 137.807H113.258C112.937 136.735 111.946 135.953 110.775 135.953C109.602 135.953 108.61 136.735 108.292 137.807H104.488C104.918 136.555 105.178 135.205 105.231 133.793H126.542V154.045ZM90.1828 165.568V144.616C91.3562 145.204 92.6365 145.559 93.98 145.63V154.113C93.98 158.618 92.4786 162.539 90.1828 165.568ZM83.2782 171.049V133.793H83.7082C83.8321 137.095 85.0857 140.064 87.0341 142.204V168.802C85.8534 169.737 84.5852 170.493 83.2782 171.049ZM94.5874 175.522C88.6959 175.522 83.1834 174.701 78.4921 173.165C82.8749 173.058 87.0171 170.933 90.19 167.145C92.2575 164.674 93.7274 161.701 94.4611 158.603C95.1632 161.849 96.6112 164.878 98.6617 167.291C101.757 170.933 106.052 173 110.807 173.16C106.115 174.698 100.554 175.522 94.5874 175.522ZM76.3711 172.06V133.793H80.1271V171.985C79.4639 172.096 78.8006 172.155 78.1422 172.155C77.53 172.155 76.9396 172.118 76.3711 172.06ZM73.2225 170.952C72.931 170.797 72.6419 170.641 72.3625 170.481C71.3154 169.873 70.3484 169.222 69.4665 168.525V133.793H73.2225V170.952ZM60.0182 154.045C60.0182 161.997 63.8568 168.423 71.121 172.624C77.1121 176.09 85.4453 178 94.5874 178C111.234 178 129.023 171.708 129.023 154.045V93.6336H60.0182V154.045Z" fill="#FFC845"/>
<path d="M98.5347 133.412H97.218H96.9653L96.6567 133.835C97.1305 133.891 97.5629 134.139 97.8472 134.523L97.8909 134.583L97.9565 134.498C98.2408 134.129 98.6635 133.891 99.1251 133.838L99.147 133.835L98.8117 133.412L98.5347 133.412Z" fill="#FFC845"/>
<path d="M95.8063 131.805C95.9205 131.542 96.1805 131.397 96.489 131.397C96.8437 131.397 97.1887 131.64 97.281 131.963H98.4958C98.5832 131.64 98.9112 131.397 99.2635 131.397C99.572 131.397 99.8344 131.542 99.9486 131.805L100.286 131.095C100.359 130.954 100.454 130.699 100.454 130.532C100.454 129.966 99.9899 129.506 99.4141 129.506C98.9817 129.506 98.6124 129.769 98.4569 130.138C98.4544 130.145 98.452 130.148 98.4496 130.153C98.4447 130.162 98.4399 130.175 98.435 130.184C98.435 130.187 98.4326 130.189 98.4326 130.189C98.4399 130.172 98.4496 130.158 98.4569 130.138C98.5395 129.949 98.831 129.215 98.831 128.357C98.831 127.356 97.8665 126.28 97.8665 126.28C97.8665 126.28 96.9214 127.356 96.9214 128.357C96.9214 129.215 97.2154 129.949 97.298 130.138C97.298 130.141 97.298 130.141 97.298 130.141C97.3126 130.17 97.3199 130.187 97.3199 130.187C97.3199 130.189 97.3199 130.189 97.3199 130.189C97.3199 130.189 97.3126 130.172 97.298 130.138C97.1425 129.769 96.7732 129.506 96.3408 129.506C95.765 129.506 95.2986 129.966 95.2986 130.532C95.2986 130.699 95.3957 130.954 95.4686 131.095L95.8063 131.805Z" fill="#FFC845"/>
<path d="M99.3782 132.313H96.3753H96.3632V133.063H97.2184H98.5352H99.3903V132.313H99.3782Z" fill="#FFC845"/>
<path d="M89.5234 129.506C88.9476 129.506 88.4836 129.965 88.4836 130.531C88.4836 130.699 88.5784 130.954 88.6512 131.095L88.9889 131.804C89.1031 131.542 89.3655 131.396 89.6741 131.396C90.0263 131.396 90.3737 131.639 90.4636 131.962H91.6784C91.7658 131.639 92.0938 131.396 92.4461 131.396C92.7571 131.396 93.017 131.542 93.1312 131.804L93.4689 131.095C93.5418 130.954 93.6365 130.699 93.6365 130.531C93.6365 129.965 93.1725 129.506 92.5967 129.506C92.1643 129.506 91.795 129.768 91.6395 130.14C91.6371 130.143 91.6371 130.143 91.6371 130.145C91.6298 130.16 91.6225 130.174 91.6177 130.189V130.191C91.6225 130.172 91.6322 130.157 91.6395 130.14C91.7221 129.948 92.0161 129.214 92.0161 128.357C92.0161 127.356 91.0491 126.28 91.0491 126.28C91.0491 126.28 90.1041 127.356 90.1041 128.357C90.1041 129.214 90.398 129.948 90.4806 130.14C90.4879 130.157 90.4976 130.172 90.5049 130.191L90.5025 130.189C90.4976 130.174 90.4904 130.162 90.4855 130.147C90.4831 130.145 90.4831 130.143 90.4806 130.14C90.3252 129.768 89.9559 129.506 89.5234 129.506Z" fill="#FFC845"/>
<path d="M90.4027 133.062H91.7195H92.5722V132.312H92.5625H89.5597H89.5475V133.062H90.4027Z" fill="#FFC845"/>
<path d="M92.3293 133.835L91.994 133.412H91.7171H90.4027H90.1476L89.8391 133.835C90.3153 133.89 90.7453 134.138 91.0295 134.522L91.0733 134.583L91.1413 134.498C91.4255 134.131 91.8458 133.89 92.3099 133.837L92.3293 133.835Z" fill="#FFC845"/>
<path d="M93.8897 136.885C93.8921 136.892 93.8946 136.897 93.8994 136.904C93.9043 136.916 93.9067 136.923 93.9091 136.928C93.9091 136.931 93.9115 136.933 93.9115 136.936C93.9115 136.936 93.9043 136.916 93.8897 136.885C93.7342 136.513 93.3649 136.25 92.9325 136.25C92.3567 136.25 91.8902 136.71 91.8902 137.276C91.8902 137.446 91.9874 137.698 92.0579 137.839L92.398 138.551C92.5122 138.289 92.7721 138.141 93.0807 138.141C93.4354 138.141 93.7804 138.384 93.8727 138.709H95.0874C95.1749 138.384 95.5029 138.141 95.8551 138.141C96.1637 138.141 96.4261 138.289 96.5403 138.551L96.878 137.839C96.9509 137.698 97.0456 137.446 97.0456 137.276C97.0456 136.71 96.5816 136.25 96.0058 136.25C95.5733 136.25 95.204 136.513 95.0461 136.885C95.0413 136.897 95.0388 136.904 95.034 136.914C95.034 136.916 95.0316 136.921 95.0291 136.926C95.0267 136.931 95.0243 136.936 95.0243 136.936C95.0316 136.919 95.0413 136.902 95.0461 136.885C95.1312 136.693 95.4227 135.959 95.4227 135.101C95.4227 134.1 94.4582 133.027 94.4582 133.027C94.4582 133.027 93.5131 134.1 93.5131 135.101C93.5131 135.959 93.8071 136.693 93.8897 136.885Z" fill="#FFC845"/>
<path d="M95.1264 140.157H93.8096H93.5569L93.2484 140.58C93.7221 140.636 94.1546 140.884 94.4388 141.27L94.4826 141.328L94.5482 141.243C94.8324 140.874 95.2551 140.636 95.7167 140.583L95.7386 140.58L95.4033 140.157L95.1264 140.157Z" fill="#FFC845"/>
<path d="M92.9678 139.059H92.9556V139.81H93.8108H95.1276H95.9828V139.059H95.9706H92.9678Z" fill="#FFC845"/>
<path d="M51.3842 99.0638C51.3842 98.6896 51.0805 98.3835 50.7064 98.3835H41.6905C41.3164 98.3835 41.0151 98.6896 41.0151 99.0638C41.0151 99.331 41.1682 99.5594 41.3893 99.6711C41.382 99.6687 41.3747 99.6663 41.3699 99.6639C41.7513 99.8606 42.0477 100.41 42.0477 101.037C42.0477 101.663 41.7731 102.191 41.3966 102.39C41.4014 102.387 41.4063 102.387 41.4111 102.385C41.1803 102.511 41.02 102.788 41.02 103.109C41.02 103.553 41.3237 103.913 41.6978 103.913H50.7064C51.0805 103.913 51.3842 103.553 51.3842 103.109C51.3842 102.781 51.219 102.499 50.9809 102.375C50.9809 102.373 50.9809 102.373 50.9809 102.373C50.5873 102.186 50.3371 101.612 50.3371 101.037C50.3371 100.441 50.5533 99.8777 50.9493 99.7003L50.9469 99.6979C51.202 99.6007 51.3842 99.3553 51.3842 99.0638Z" fill="#FFC845"/>
<path d="M39.6056 166.974H52.7151V163.25H39.6056V166.974Z" fill="#FFC845"/>
<path d="M45.0719 115.275C46.5345 115.066 48.3906 114.942 50.3585 114.918V105.098H42.0399V115.856C43.0239 115.618 44.0394 115.421 45.0719 115.275Z" fill="#FFC845"/>
<path d="M50.0168 139.793C47.235 141.314 44.4727 142.66 42.0383 143.685V157.511C42.0383 159.292 41.6958 160.543 41.2026 161.328C41.035 161.598 41.2026 161.965 41.4941 161.965H50.9424C51.2291 161.965 51.3457 161.608 51.1659 161.328C50.6654 160.546 50.3593 159.377 50.3593 157.511V139.604C50.2427 139.669 50.1261 139.732 50.0168 139.793Z" fill="#FFC845"/>
<path d="M51.4174 127.305V131.635C52.829 130.721 53.9247 129.742 54.6511 129.023L55.1856 128.493C54.4713 127.913 52.9067 127.403 51.4174 127.305Z" fill="#FFC845"/>
<path d="M55.7899 170.126C55.0538 170.279 53.9411 170.51 52.8478 170.306C51.9392 170.136 51.1982 169.854 50.4815 169.582C49.3566 169.155 48.1954 168.712 46.4607 168.712C44.6653 168.712 43.487 169.159 42.3476 169.589C41.6309 169.859 40.8875 170.141 39.9715 170.311C38.9074 170.508 37.8749 170.294 37.1218 170.139C36.7622 170.066 36.4755 170.005 36.2423 170.005V171.317C36.3419 171.317 36.6164 171.375 36.8569 171.424C37.4254 171.543 38.2004 171.701 39.0678 171.701C39.4346 171.701 39.8185 171.674 40.2096 171.601C41.2422 171.409 42.039 171.108 42.8116 170.816C43.8879 170.411 44.9058 170.024 46.4607 170.024C47.9548 170.024 48.9096 170.389 50.015 170.809C50.7852 171.101 51.5821 171.404 52.6073 171.596C53.9532 171.846 55.27 171.574 56.0572 171.412C56.2564 171.37 56.5042 171.319 56.5795 171.317L56.5771 170.005C56.3779 170.005 56.1301 170.056 55.7899 170.126Z" fill="#FFC845"/>
<path d="M55.7905 173.106C55.0543 173.257 53.9416 173.49 52.8484 173.283C51.9373 173.113 51.1963 172.831 50.4796 172.559C49.3572 172.134 48.1959 171.692 46.4612 171.692C44.6659 171.692 43.4876 172.137 42.3481 172.567C41.6314 172.839 40.888 173.118 39.9721 173.288C38.908 173.487 37.8754 173.274 37.1223 173.118C36.7627 173.043 36.4761 172.985 36.2428 172.985V174.296C36.3424 174.296 36.617 174.352 36.8575 174.403C37.426 174.52 38.201 174.68 39.0683 174.68C39.4352 174.68 39.819 174.651 40.2102 174.578C41.2427 174.386 42.0396 174.085 42.8122 173.796C43.8884 173.388 44.9064 173.004 46.4612 173.004C47.9554 173.004 48.9102 173.366 50.0156 173.786C50.7857 174.08 51.5826 174.381 52.6078 174.573C53.9538 174.826 55.2706 174.554 56.0577 174.391C56.2569 174.35 56.5047 174.296 56.5801 174.296L56.5776 172.985C56.3784 172.985 56.1306 173.036 55.7905 173.106Z" fill="#FFC845"/>
<path d="M55.7899 175.88C55.0538 176.033 53.9411 176.263 52.8478 176.059C51.9368 175.889 51.1958 175.607 50.4815 175.335C49.3566 174.908 48.1954 174.466 46.4607 174.466C44.6653 174.466 43.487 174.913 42.3476 175.343C41.6309 175.612 40.8875 175.894 39.9715 176.064C38.9074 176.261 37.8749 176.047 37.1218 175.892C36.7622 175.816 36.4755 175.758 36.2423 175.758V177.07C36.3419 177.07 36.6164 177.128 36.8569 177.177C37.4254 177.296 38.2004 177.454 39.0678 177.454C39.4346 177.454 39.8185 177.427 40.2121 177.352C41.2422 177.162 42.039 176.861 42.8116 176.57C43.8879 176.164 44.9058 175.778 46.4607 175.778C47.9548 175.778 48.9096 176.142 50.015 176.562C50.7852 176.854 51.5821 177.157 52.6073 177.349C53.9532 177.6 55.27 177.328 56.0572 177.165C56.2564 177.123 56.5042 177.072 56.5795 177.07L56.5771 175.758C56.3779 175.758 56.1301 175.809 55.7899 175.88Z" fill="#FFC845"/>
<path d="M50.3586 123.267C49.1171 123.299 47.8975 123.384 46.7848 123.522C45.0599 123.736 43.4564 124.118 42.04 124.594V136.43C44.1731 135.561 46.6075 134.343 49.0564 132.912C49.4718 132.669 49.9116 132.402 50.3586 132.125V123.267Z" fill="#FFC845"/>
<path d="M38.5268 142.889C38.4418 143.242 38.3641 143.572 38.2936 143.868C45.0257 141.638 55.4142 135.635 56.0483 134.469L55.4725 129.85C54.2942 131.019 51.77 132.676 49.6442 133.92C45.9319 136.089 42.2707 137.766 39.5424 138.548C39.3431 139.488 38.8937 141.359 38.5268 142.889Z" fill="#FFC845"/>
<path d="M39.6389 119.438L39.3012 119.569L39.8503 120.935C39.9718 120.881 40.0884 120.825 40.1904 120.762C40.6059 120.478 40.5306 120.089 40.448 119.883C40.2949 119.501 39.9548 119.314 39.6389 119.438Z" fill="#FFC845"/>
<path d="M51.5037 120.86C51.5984 120.649 51.7077 120.404 51.7758 120.151L51.7903 120.093L52.043 120.112L52.0503 120.168C52.111 120.54 52.4341 120.797 52.8957 120.841C53.2674 120.877 53.661 120.746 53.6975 120.377C53.7315 120.005 53.3573 119.821 52.92 119.604C52.354 119.325 51.7126 119.004 51.7927 118.181C51.8535 117.534 52.439 116.937 53.6124 117.044C54.1008 117.087 54.5697 117.282 54.7421 117.445L54.7834 117.483L54.7543 117.534C54.6498 117.714 54.5599 117.904 54.4773 118.084L54.4555 118.13L54.2514 118.113L54.2368 118.069C54.1275 117.753 53.887 117.568 53.5396 117.534C53.0755 117.491 52.8205 117.637 52.7889 117.969C52.7622 118.261 53.1241 118.45 53.5444 118.671C54.1105 118.97 54.8151 119.34 54.7373 120.144C54.6693 120.86 53.9404 121.332 52.9638 121.332C52.869 121.332 52.7719 121.329 52.6723 121.32C52.2349 121.278 51.8292 121.147 51.5304 120.953L51.4769 120.916L51.5037 120.86ZM50.4978 117.508C49.9901 118.718 49.4677 119.971 49.0377 121.242L49.0207 121.288L48.3283 121.344L48.304 121.303C47.6797 120.132 46.9775 118.91 46.0932 117.449L46.0276 117.343L46.1539 117.34C46.358 117.335 47.1865 117.267 47.3857 117.241L47.4391 117.233L47.461 117.284C47.7525 117.93 48.1145 118.579 48.4644 119.204C48.6004 119.446 48.734 119.689 48.8677 119.932C49.1884 119.131 49.5795 118.11 49.8881 117.087L49.9051 117.034L49.9609 117.036C50.0654 117.041 50.4906 117.007 50.5926 116.985L50.7262 116.961L50.4978 117.508ZM43.4815 122.119L43.4645 122.048L42.5656 118.079L42.7648 118.05C42.896 118.03 43.032 118.011 43.1608 117.982C43.2896 117.955 43.4183 117.916 43.5422 117.877L43.7414 117.821L43.7584 117.896L44.5335 121.305C45.0995 121.176 45.5757 121.031 46.0154 120.894L46.0908 120.87L46.2365 121.509L43.4815 122.119ZM41.5865 120.238C41.4018 120.664 40.9184 121.014 40.0243 121.371L40.6827 123.011L39.5627 123.448L38.0054 119.58L39.6915 118.922C40.9087 118.443 41.38 118.883 41.5598 119.332C41.6934 119.663 41.7031 119.969 41.5865 120.238ZM45.2356 116.429C39.2857 117.275 34.796 119.621 33.4331 121.504C33.0954 121.971 32.9545 122.393 33.0128 122.768C33.1197 123.079 34.23 125.586 35.1726 127.697C35.2552 127.537 35.3573 127.374 35.4787 127.211C37.1041 125.005 41.8003 122.967 46.6422 122.364C48.1655 122.177 49.8006 122.085 51.404 122.085C54.4652 122.085 57.123 122.306 58.9063 122.894V116.742C57.3514 116.249 54.3874 116.079 51.1052 116.079C49.0207 116.079 46.9216 116.191 45.2356 116.429Z" fill="#FFC845"/>
<path d="M40.981 131.349V125.982C40.2813 125.98 39.6861 125.917 39.0933 125.846C37.8299 126.524 36.8994 127.248 36.416 127.902C36.3334 128.016 36.2629 128.128 36.2095 128.232L35.8523 128.922C35.8548 128.949 35.8548 128.973 35.8596 129C36.0904 130.297 37.9951 131.126 40.981 131.349Z" fill="#FFC845"/>
<path d="M47.317 91.4857C47.4069 91.4978 47.4968 91.51 47.5843 91.5245C47.871 90.6888 48.1625 89.8409 48.318 89.3866C48.7189 88.2083 49.6518 86.3813 50.9564 85.1034C50.9928 85.0718 51.0196 85.05 51.0414 85.0329V85.0257C51.0414 83.7599 50.0162 82.7274 48.7529 82.7274C48.2305 82.7274 47.7228 82.9096 47.317 83.2376V91.4857Z" fill="#FFC845"/>
<path d="M48.3761 91.6852C48.7041 91.7654 49.0272 91.865 49.3406 91.9792C49.6807 90.988 49.9091 90.3247 50.0354 89.9481C50.4727 88.6484 51.2818 86.8651 52.6641 85.6479C52.5329 85.6164 52.3507 85.5896 52.1199 85.5896C52.0325 85.5896 51.9474 85.5921 51.8697 85.5993C51.7506 85.6163 51.6292 85.6431 51.5101 85.6795C50.3124 86.8554 49.4499 88.5512 49.0758 89.6469C48.9252 90.0842 48.6506 90.8835 48.3761 91.6852Z" fill="#FFC845"/>
<path d="M50.0825 92.2831C50.6413 92.5382 51.1782 92.854 51.686 93.216C52.6359 91.7559 53.8409 89.8293 54.2855 88.7919L54.3074 88.7409C54.4191 88.4518 54.475 88.17 54.475 87.8784C54.475 87.1253 54.1106 86.4256 53.5008 85.9956L53.3745 86.0976C52.0188 87.1909 51.2219 88.9352 50.7943 90.2059C50.617 90.7234 50.2817 91.7024 50.0825 92.2831Z" fill="#FFC845"/>
<path d="M43.7315 89.3755C43.8797 89.8103 44.1543 90.6072 44.4288 91.4089L44.4531 91.4843C44.5235 91.4721 44.5916 91.4624 44.662 91.4527V83.2556C44.2636 82.9398 43.768 82.7648 43.2602 82.7648C42.0236 82.7648 41.0153 83.7706 41.0081 85.0145C41.0226 85.0243 41.0372 85.0364 41.0518 85.0485C42.388 86.3556 43.3282 88.1923 43.7315 89.3755Z" fill="#FFC845"/>
<path d="M37.7269 88.7859C38.1739 89.8282 39.3789 91.7572 40.3288 93.2149C40.8366 92.8529 41.3735 92.5395 41.9323 92.282C41.7331 91.7013 41.3954 90.7223 41.2205 90.2048C40.7929 88.9341 39.996 87.1898 38.6403 86.0989L38.514 85.9969C37.8945 86.4415 37.5398 87.1339 37.5398 87.8773C37.5398 88.1664 37.5957 88.4507 37.7026 88.7252L37.7269 88.7859Z" fill="#FFC845"/>
<path d="M45.5567 81.8141L45.6053 81.7971C45.8628 81.7048 46.1446 81.7048 46.4022 81.7971L46.4507 81.8141V80.8204H47.4736V79.9215H46.4507V78.7602H45.5567V79.9215H44.5339V80.8204H45.5567V81.8141Z" fill="#FFC845"/>
<path d="M46.5164 82.9314C46.5164 82.6472 46.2856 82.4164 46.0037 82.4164C45.7219 82.4164 45.4911 82.6472 45.4911 82.9314V91.4225C45.8337 91.4006 46.1714 91.3982 46.5164 91.4152V82.9314Z" fill="#FFC845"/>
<path d="M40.6449 93.9366L42.1464 96.2203C42.2022 96.3053 42.297 96.3515 42.3942 96.3515C42.4428 96.3515 42.4938 96.3394 42.5375 96.3151C43.6235 95.7223 44.8479 95.4089 46.0773 95.4089C47.3114 95.4089 48.4922 95.7077 49.5854 96.2981C49.7263 96.3734 49.9061 96.3248 49.9839 96.1912L51.3468 93.8589L51.3638 93.8297L51.3371 93.8103C49.7871 92.6855 47.9698 92.0927 46.0773 92.0927C44.1191 92.0927 42.2508 92.7219 40.6717 93.9172L40.6449 93.9366Z" fill="#FFC845"/>
<path d="M42.0142 89.9365C42.16 90.369 42.4248 91.1464 42.6969 91.9312C42.9884 91.8267 43.2872 91.7344 43.5909 91.6591C43.3188 90.8646 43.0516 90.0872 42.9034 89.6572C42.5341 88.5712 41.6789 86.89 40.486 85.7165C40.3719 85.6777 40.2504 85.6509 40.1313 85.6339C40.0706 85.6291 39.988 85.6266 39.8933 85.6266C39.7038 85.6266 39.5483 85.6436 39.4268 85.6679C40.7824 86.89 41.5793 88.6513 42.0142 89.9365Z" fill="#FFC845"/>
<path d="M148.172 19.9275L152.691 20.5365L151.341 30.5559L149.541 28.8604L161.434 30.4629L159.22 31.6176L160.57 21.5982L165.089 22.2071L162.244 43.3163L157.725 42.7074L159.091 32.569L160.921 34.2685L149.028 32.666L151.213 31.5073L149.846 41.6457L145.327 41.0367L148.172 19.9275Z" fill="#FFC845"/>
<path d="M128.572 33.147C128.638 33.9135 128.85 34.6002 129.208 35.2069C129.568 35.7937 130.065 36.2699 130.701 36.6356C131.358 36.9828 132.116 37.1866 132.974 37.2472C133.652 37.2951 134.247 37.2469 134.758 37.1025C135.29 36.9596 135.708 36.7184 136.012 36.379C136.317 36.0397 136.487 35.6206 136.522 35.1218C136.577 34.3438 136.262 33.69 135.578 33.1605C134.895 32.611 133.73 32.0676 132.084 31.5303C129.691 30.7799 127.872 29.8495 126.627 28.7391C125.402 27.6301 124.848 26.2576 124.963 24.6217C125.053 23.3448 125.471 22.2615 126.215 21.3718C126.96 20.482 127.959 19.8207 129.212 19.3879C130.466 18.9551 131.891 18.7951 133.487 18.9078C135.043 19.0176 136.408 19.4148 137.583 20.0992C138.758 20.7837 139.675 21.7006 140.336 22.85C141.018 23.9808 141.389 25.2601 141.448 26.6878L136.883 26.6061C136.855 25.8623 136.681 25.2084 136.36 24.6444C136.04 24.0604 135.602 23.5984 135.044 23.2583C134.487 22.9182 133.839 22.722 133.101 22.6699C132.103 22.5995 131.268 22.7812 130.596 23.2149C129.944 23.65 129.621 24.2488 129.627 25.0111C129.589 25.5498 129.737 26.0113 130.071 26.3958C130.424 26.7817 130.873 27.104 131.416 27.3629C131.959 27.6218 132.662 27.892 133.524 28.1734C133.603 28.199 133.71 28.2367 133.847 28.2864C136.283 28.9998 138.141 29.943 139.422 31.1161C140.704 32.2692 141.287 33.6638 141.171 35.2997C141.08 36.5965 140.641 37.6983 139.855 38.6052C139.089 39.5135 138.07 40.1734 136.798 40.5848C135.526 40.9963 134.122 41.1477 132.586 41.0393C130.87 40.9181 129.355 40.5104 128.041 39.8161C126.746 39.1232 125.739 38.19 125.02 37.0165C124.321 35.8443 123.974 34.5165 123.978 33.0332L128.572 33.147Z" fill="#FFC845"/>
<path d="M119.486 17.9489L118.687 39.2339L114.131 39.0629L114.93 17.7779L119.486 17.9489Z" fill="#FFC845"/>
<path d="M94.1822 17.7446L102.522 32.3765L102.612 17.7968L107.172 17.825L107.04 39.1246L101.85 39.0925L93.6876 24.9417L93.6003 39.0414L89.0404 39.0132L89.1723 17.7136L94.1822 17.7446Z" fill="#FFC845"/>
<path d="M71.6799 18.4172L77.0769 18.2387L85.4567 39.2733L80.7193 39.4299L79.0104 34.9539L70.8249 35.2246L69.4155 39.8037L64.708 39.9594L71.6799 18.4172ZM77.6272 31.2476L74.537 23.1253L71.9902 31.434L77.6272 31.2476Z" fill="#FFC845"/>
<path d="M55.2685 18.9035C56.9441 18.7821 58.4205 18.9558 59.6978 19.4247C60.975 19.8936 61.9711 20.6336 62.686 21.6445C63.4195 22.6341 63.8375 23.837 63.9402 25.2533C64.0428 26.6696 63.8033 27.9302 63.2217 29.0351C62.6585 30.1187 61.7795 30.9945 60.5847 31.6626C59.3884 32.3108 57.9525 32.6956 56.2769 32.817L52.3272 33.1033L52.8585 40.4341L48.3104 40.7637L46.7708 19.5194L55.2685 18.9035ZM55.73 29.0066C56.9468 28.9184 57.8549 28.5819 58.4541 27.997C59.0734 27.4107 59.3461 26.6089 59.2724 25.5916C59.1987 24.5743 58.8139 23.8301 58.118 23.3592C57.4407 22.8669 56.4936 22.6648 55.2768 22.753L51.5964 23.0197L52.0496 29.2733L55.73 29.0066Z" fill="#FFC845"/>
<path d="M30.0068 35.7428C30.2284 36.4796 30.5766 37.1083 31.0513 37.629C31.5234 38.1297 32.108 38.4941 32.8052 38.7219C33.5195 38.9272 34.3027 38.9717 35.1548 38.8555C35.8286 38.7636 36.401 38.5946 36.872 38.3487C37.3629 38.1 37.7228 37.7785 37.9515 37.3839C38.1803 36.9894 38.2609 36.5444 38.1933 36.049C38.0879 35.2761 37.646 34.7006 36.8677 34.3223C36.0867 33.9242 34.8356 33.6307 33.1142 33.4416C30.6182 33.1968 28.6473 32.6583 27.2015 31.8261C25.7756 30.9912 24.9518 29.7613 24.7301 28.1363C24.557 26.8681 24.7438 25.7223 25.2905 24.699C25.8372 23.6757 26.6798 22.824 27.8183 22.1439C28.9568 21.4637 30.3187 21.0155 31.904 20.7992C33.4497 20.5883 34.8675 20.6976 36.1574 21.1272C37.4473 21.5568 38.5333 22.2665 39.4152 23.2564C40.3142 24.2237 40.9389 25.4001 41.2894 26.7854L36.8037 27.6396C36.6244 26.9172 36.3199 26.3128 35.8902 25.8265C35.4578 25.3203 34.934 24.9578 34.3188 24.7389C33.7036 24.5201 33.0293 24.4607 32.2961 24.5607C31.3053 24.6959 30.5253 25.0445 29.9561 25.6067C29.4066 26.1661 29.213 26.8182 29.3752 27.5631C29.4482 28.0982 29.6874 28.5197 30.0927 28.8277C30.5179 29.1331 31.0228 29.3569 31.6074 29.4991C32.192 29.6414 32.9351 29.7621 33.8368 29.8611C33.9188 29.8701 34.0318 29.885 34.1759 29.9057C36.7062 30.1054 38.7181 30.6485 40.2116 31.5347C41.7024 32.4011 42.5586 33.6468 42.7803 35.2717C42.9561 36.5598 42.7521 37.7281 42.1685 38.7766C41.6047 39.8224 40.7423 40.6769 39.5813 41.3399C38.4203 42.0029 37.0768 42.4386 35.5509 42.6467C33.8467 42.8793 32.2803 42.7902 30.8517 42.3795C29.4429 41.9662 28.2664 41.2587 27.3224 40.2572C26.3981 39.2529 25.7864 38.0243 25.4873 36.5714L30.0068 35.7428Z" fill="#FFC845"/>
<path d="M110.832 188C111.645 188.547 112.172 189.173 112.412 189.88V195.22H114.212L114.592 196.7H112.452V198.86L113.272 199.32L113.932 198.82C113.945 198.86 113.959 198.893 113.972 198.92C113.985 198.947 114.005 198.98 114.032 199.02C114.072 199.047 114.092 199.1 114.092 199.18L112.032 200.96L109.792 199.52C110.059 199.333 110.232 199.087 110.312 198.78C110.405 198.46 110.452 198.153 110.452 197.86V196.76H106.212L105.672 195.14L110.832 188ZM110.052 190.1L106.332 195.22H110.412V190.52L110.052 190.1Z" fill="#FFC845"/>
<path d="M99.0413 188L103.501 190.8V191C103.501 191.08 103.508 191.14 103.521 191.18V191.44C103.521 191.467 103.528 191.5 103.541 191.54V191.62C103.541 193.14 102.755 194.507 101.181 195.72L98.3813 197.42C97.5813 197.9 96.9479 198.513 96.4813 199.26C96.8946 199.073 97.3946 198.9 97.9813 198.74C98.5013 198.593 99.0279 198.493 99.5613 198.44C99.6413 198.44 99.7079 198.433 99.7613 198.42H99.9613C100.041 198.42 100.108 198.413 100.161 198.4H100.621C100.621 198.4 100.708 198.407 100.881 198.42C101.228 198.447 101.401 198.46 101.401 198.46C101.481 198.46 101.581 198.473 101.701 198.5C101.835 198.527 101.935 198.547 102.001 198.56C102.001 198.56 102.188 198.613 102.561 198.72C102.935 198.827 103.315 198.967 103.701 199.14L102.141 200.96L100.201 200.3L97.8813 200.22C97.8013 200.247 97.5746 200.307 97.2013 200.4C97.0413 200.44 96.9279 200.46 96.8613 200.46C96.8613 200.46 96.7479 200.487 96.5213 200.54C96.4279 200.567 96.2013 200.627 95.8413 200.72C95.7346 200.76 95.5813 200.793 95.3813 200.82C95.3546 200.833 95.3146 200.847 95.2613 200.86C95.2213 200.873 95.1879 200.88 95.1613 200.88C95.3213 199.92 95.7079 199.093 96.3213 198.4C96.9346 197.707 97.5746 197.053 98.2413 196.44C98.2413 196.44 98.2613 196.42 98.3013 196.38L98.3613 196.32C98.6946 196.013 99.1746 195.547 99.8013 194.92C100.268 194.427 100.661 193.893 100.981 193.32C101.008 193.28 101.035 193.213 101.061 193.12C101.061 193.147 101.088 193.087 101.141 192.94C101.195 192.78 101.228 192.627 101.241 192.48C101.241 192.4 101.255 192.293 101.281 192.16C101.281 192.093 101.288 192.04 101.301 192V191.74C101.288 191.727 101.281 191.693 101.281 191.64V191.4C101.228 191.067 101.115 190.727 100.941 190.38C100.768 190.033 100.535 189.773 100.241 189.6L96.7613 192.32H96.6413L95.4813 191.18L95.4413 190.88L99.0413 188Z" fill="#FFC845"/>
<path d="M89.0506 188.08C91.4506 189 92.9106 190.593 93.4306 192.86C93.4306 192.873 93.4373 192.9 93.4506 192.94V193.02C93.4506 193.033 93.4573 193.073 93.4706 193.14C93.4706 193.247 93.4773 193.32 93.4906 193.36V193.98C93.4906 194.94 93.3173 195.887 92.9706 196.82C92.624 197.753 92.0773 198.567 91.3306 199.26L89.5906 200.88H89.2306C88.9773 200.88 88.6906 200.787 88.3706 200.6C88.1306 200.467 87.8706 200.293 87.5906 200.08C87.5506 200.053 87.504 200.013 87.4506 199.96C87.4373 199.947 87.4173 199.927 87.3906 199.9C87.364 199.873 87.3373 199.853 87.3106 199.84C87.284 199.827 87.2506 199.8 87.2106 199.76C87.184 199.72 87.1373 199.68 87.0706 199.64C86.4306 199.093 85.9173 198.42 85.5306 197.62C85.1573 196.82 84.9706 196 84.9706 195.16V194.98C84.9706 195.033 84.984 194.807 85.0106 194.3C85.0106 194.18 85.024 194.06 85.0506 193.94C85.064 193.86 85.084 193.747 85.1106 193.6C85.1773 193.267 85.2906 192.88 85.4506 192.44C85.544 192.187 85.6973 191.82 85.9106 191.34C86.6573 190.073 87.704 189 89.0506 188.12V188.08ZM87.7306 189.94C86.8506 191.207 86.4106 192.693 86.4106 194.4L87.1906 196.5C87.2306 196.593 87.2773 196.693 87.3306 196.8C87.3973 196.907 87.464 196.993 87.5306 197.06C87.904 197.593 88.3773 198.08 88.9506 198.52C89.524 198.96 90.1373 199.18 90.7906 199.18C90.7906 199.153 90.7973 199.133 90.8106 199.12C90.8373 199.093 90.8573 199.067 90.8706 199.04C90.9373 198.973 90.9773 198.92 90.9906 198.88C91.7373 197.733 92.1106 196.72 92.1106 195.84V195.64C92.0973 195.627 92.0906 195.6 92.0906 195.56V195.38C92.0906 194.3 91.6706 193.147 90.8306 191.92C90.0973 190.84 89.064 190.193 87.7306 189.98V189.94Z" fill="#FFC845"/>
<path d="M78.26 188L82.72 190.8V191C82.72 191.08 82.7267 191.14 82.74 191.18V191.44C82.74 191.467 82.7467 191.5 82.76 191.54V191.62C82.76 193.14 81.9733 194.507 80.4 195.72L77.6 197.42C76.8 197.9 76.1667 198.513 75.7 199.26C76.1133 199.073 76.6133 198.9 77.2 198.74C77.72 198.593 78.2467 198.493 78.78 198.44C78.86 198.44 78.9267 198.433 78.98 198.42H79.18C79.26 198.42 79.3267 198.413 79.38 198.4H79.84C79.84 198.4 79.9267 198.407 80.1 198.42C80.4467 198.447 80.62 198.46 80.62 198.46C80.7 198.46 80.8 198.473 80.92 198.5C81.0533 198.527 81.1533 198.547 81.22 198.56C81.22 198.56 81.4067 198.613 81.78 198.72C82.1533 198.827 82.5333 198.967 82.92 199.14L81.36 200.96L79.42 200.3L77.1 200.22C77.02 200.247 76.7933 200.307 76.42 200.4C76.26 200.44 76.1467 200.46 76.08 200.46C76.08 200.46 75.9667 200.487 75.74 200.54C75.6467 200.567 75.42 200.627 75.06 200.72C74.9533 200.76 74.8 200.793 74.6 200.82C74.5733 200.833 74.5333 200.847 74.48 200.86C74.44 200.873 74.4067 200.88 74.38 200.88C74.54 199.92 74.9267 199.093 75.54 198.4C76.1533 197.707 76.7933 197.053 77.46 196.44C77.46 196.44 77.48 196.42 77.52 196.38L77.58 196.32C77.9133 196.013 78.3933 195.547 79.02 194.92C79.4867 194.427 79.88 193.893 80.2 193.32C80.2267 193.28 80.2533 193.213 80.28 193.12C80.28 193.147 80.3067 193.087 80.36 192.94C80.4133 192.78 80.4467 192.627 80.46 192.48C80.46 192.4 80.4733 192.293 80.5 192.16C80.5 192.093 80.5067 192.04 80.52 192V191.74C80.5067 191.727 80.5 191.693 80.5 191.64V191.4C80.4467 191.067 80.3333 190.727 80.16 190.38C79.9867 190.033 79.7533 189.773 79.46 189.6L75.98 192.32H75.86L74.7 191.18L74.66 190.88L78.26 188Z" fill="#FFC845"/>
<path d="M33 192H64V194H33V192Z" fill="#ED1C24"/>
<path d="M33 194H64V196H33V194Z" fill="#FFC845"/>
<path d="M33 196H64V198H33V196Z" fill="#ED1C24"/>
<path d="M125 192H156V194H125V192Z" fill="#ED1C24"/>
<path d="M125 194H156V196H125V194Z" fill="#FFC845"/>
<path d="M125 196H156V198H125V196Z" fill="#ED1C24"/>
</svg>
