<svg width="1000" height="1000" viewBox="0 0 1000 1000" fill="none" xmlns="http://www.w3.org/2000/svg">
<circle cx="500" cy="500" r="500" fill="#040A12"/>
<path d="M214.42 314.719L160.94 272.462L190.103 235.553L199.745 243.172L174.628 274.958L173.075 263.453L197.555 282.796L187.584 285.195L211.629 254.764L221.12 262.264L197.075 292.694L197.103 282.439L223.466 303.27L214.42 314.719ZM279.705 245.04C275.237 248.676 270.699 251.009 266.09 252.037C261.53 253.025 257.125 252.732 252.873 251.159C248.582 249.536 244.759 246.664 241.406 242.544L213.833 208.667L225.15 199.456L252.723 233.333C255.511 236.758 258.566 238.686 261.888 239.118C265.219 239.46 268.572 238.257 271.948 235.51C275.323 232.763 277.157 229.744 277.449 226.453C277.701 223.112 276.433 219.729 273.645 216.304L246.072 182.427L257.389 173.216L284.962 207.093C288.316 211.213 290.351 215.539 291.069 220.071C291.796 224.513 291.188 228.886 289.245 233.19C287.303 237.495 284.122 241.445 279.705 245.04ZM320.429 210.842L290.738 149.489L317.613 136.483C322.106 134.309 326.357 133.176 330.366 133.084C334.432 132.965 338.027 133.856 341.151 135.757C344.247 137.601 346.701 140.395 348.513 144.139C349.879 146.962 350.487 149.761 350.337 152.535C350.244 155.282 349.495 157.848 348.091 160.235C346.743 162.593 344.828 164.586 342.346 166.214L341.71 165.562C345.8 163.583 349.343 162.97 352.339 163.724C355.307 164.421 357.813 166.515 359.858 170.005L369.944 186.88L356.55 193.362L347.899 178.351C346.583 176.073 344.998 174.707 343.143 174.254C341.318 173.715 338.85 174.198 335.74 175.704L322.691 182.018L333.564 204.486L320.429 210.842ZM317.38 171.044L329.651 165.106C332.819 163.572 334.919 161.667 335.951 159.391C337.012 157.029 336.887 154.494 335.577 151.786C334.238 149.021 332.342 147.379 329.887 146.861C327.404 146.285 324.463 146.819 321.064 148.464L309.226 154.193L317.38 171.044ZM392.555 176.737L374.231 111.087L388.286 107.164L406.61 172.814L392.555 176.737ZM426.716 166.961L445.053 96.8641L462.263 95.3077L492.878 160.977L477.772 162.343L471.495 148.356L445.393 150.716L441.727 165.603L426.716 166.961ZM448.424 138.393L466.398 136.768L455.042 111.383L448.424 138.393ZM549.919 163.309L566.78 97.2678L595.708 104.653C600.545 105.888 604.525 107.763 607.648 110.278C610.833 112.808 613.007 115.807 614.169 119.274C615.348 122.68 615.422 126.398 614.393 130.428C613.617 133.467 612.277 135.998 610.374 138.022C608.532 140.062 606.305 141.541 603.692 142.459C601.142 143.393 598.393 143.682 595.446 143.326L595.38 142.418C599.783 143.542 602.886 145.358 604.69 147.866C606.509 150.312 607.075 153.528 606.388 157.514L603.218 176.917L588.8 173.236L591.866 156.184C592.329 153.594 591.998 151.528 590.872 149.986C589.824 148.397 587.626 147.176 584.278 146.321L570.232 142.735L564.058 166.919L549.919 163.309ZM573.248 130.922L586.457 134.294C589.867 135.165 592.701 135.062 594.957 133.987C597.291 132.866 598.83 130.848 599.574 127.933C600.334 124.956 599.942 122.479 598.4 120.5C596.874 118.459 594.281 116.971 590.622 116.037L577.879 112.784L573.248 130.922ZM649.576 198.371C643.471 195.129 638.89 191.066 635.832 186.181C632.83 181.326 631.388 175.922 631.505 169.97C631.679 164.048 633.477 157.865 636.899 151.421C640.321 144.977 644.437 140.025 649.246 136.564C654.141 133.077 659.441 131.217 665.144 130.985C670.933 130.726 676.881 132.218 682.985 135.46C689.09 138.702 693.628 142.778 696.599 147.69C699.657 152.575 701.084 158.007 700.88 163.985C700.763 169.938 698.993 176.136 695.571 182.579C692.149 189.023 688.005 193.96 683.14 197.391C678.331 200.852 673.047 202.683 667.287 202.885C661.584 203.118 655.68 201.613 649.576 198.371ZM655.254 187.473C658.646 189.274 661.949 190.014 665.163 189.692C668.464 189.344 671.547 187.973 674.411 185.581C677.332 183.22 679.948 179.862 682.26 175.51C684.571 171.158 685.887 167.11 686.208 163.368C686.616 159.598 686.039 156.249 684.479 153.319C682.976 150.419 680.528 148.068 677.137 146.267C673.802 144.496 670.512 143.8 667.268 144.179C664.023 144.557 660.926 145.955 657.975 148.374C655.11 150.766 652.522 154.138 650.211 158.49C647.899 162.842 646.555 166.875 646.178 170.588C645.857 174.33 646.448 177.652 647.952 180.552C649.542 183.425 651.976 185.732 655.254 187.473ZM714.312 239.283C710.303 235.798 707.632 231.993 706.3 227.867C705.016 223.783 704.885 219.641 705.907 215.442C707.019 211.235 709.188 207.228 712.415 203.418L723.941 212.547C720.799 216.26 719.148 219.573 718.989 222.488C718.83 225.402 719.958 227.909 722.373 230.009C724.837 232.15 727.479 232.963 730.301 232.448C733.123 231.933 736.067 229.913 739.132 226.386L767.787 193.42L778.8 202.992L750.145 235.959C746.66 239.968 742.84 242.753 738.685 244.314C734.578 245.917 730.431 246.298 726.244 245.457C722.057 244.616 718.079 242.558 714.312 239.283ZM748.008 266.144L816.934 243.809L827.521 257.466L788.708 318.648L779.415 306.66L787.814 293.834L771.757 273.121L757.242 278.056L748.008 266.144ZM783.77 269.031L794.827 283.295L810.088 260.048L783.77 269.031Z" fill="#DD1C39"/>
<circle cx="500" cy="500" r="460" stroke="#C6DDFF" stroke-width="20"/>
<circle cx="500" cy="500" r="292" stroke="#C6DDFF" stroke-width="16"/>
<path d="M116.248 492.098C116.248 485.38 119.015 479.302 123.418 475.049C127.84 479.302 130.569 485.38 130.569 492.098C130.569 498.834 127.821 504.894 123.399 509.147C118.996 504.894 116.248 498.834 116.248 492.098ZM147.618 511.01C137.908 512.402 128.555 521.397 126.448 523.542C126.485 522.714 126.504 521.905 126.504 521.133C126.504 516.787 124.961 511.819 124.773 511.217C137.193 510.577 146.583 502.579 146.583 492.098C146.583 483.724 141.897 476.573 132.676 473.694C132.676 473.694 132.883 471.436 133.297 470.382C133.692 469.328 134.295 467.183 134.295 467.183C134.295 467.183 132.206 467.729 130.588 468.387C128.95 469.046 127.069 470.646 127.069 470.646C127.069 470.646 126.673 469.178 125.996 467.992C125.319 466.788 123.286 465 123.286 465C123.286 465 121.536 465.922 120.181 467.446C118.826 468.971 117.886 470.909 117.886 470.909C117.886 470.909 116.531 469.592 114.517 468.783C112.485 467.992 108.966 468.651 108.966 468.651C108.966 468.651 110.867 470.645 111.807 471.718C112.598 473.111 112.899 473.976 112.899 473.976C103.716 474.635 99.2936 483.856 99.2936 492.098C99.2936 502.466 108.966 510.445 121.254 511.198C121.329 511.687 122.138 516.354 121.913 521.133C121.894 521.604 121.856 522.056 121.819 522.526C118.619 520.324 105.127 511.254 98.8608 509.88C89.7154 507.886 79.441 509.504 75 509.259C75.1317 509.372 80.3254 513.249 82.6212 515.62C84.8981 518.01 92.5193 522.752 96.8285 523.881C108.232 526.873 118.845 524.125 121.743 523.26C121.066 528.661 118.958 534.118 118.958 534.118C118.958 534.118 121.649 533.177 122.458 532.782C123.267 532.386 125.714 531.991 125.714 531.991C125.714 531.991 126.222 527.945 126.429 523.937C127.2 523.824 128.837 523.561 130.061 523.392C131.717 523.128 141.652 524.257 150.666 524.125C159.68 524.013 165.551 518.875 167.847 517.257C170.124 515.62 174.433 513.512 174.32 513.512C169.239 512.12 160.677 509.128 147.618 511.01Z" fill="#DD1C39"/>
<path d="M866.248 492.098C866.248 485.38 869.015 479.302 873.418 475.049C877.84 479.302 880.569 485.38 880.569 492.098C880.569 498.834 877.821 504.894 873.399 509.147C868.996 504.894 866.248 498.834 866.248 492.098ZM897.618 511.01C887.908 512.402 878.555 521.397 876.448 523.542C876.485 522.714 876.504 521.905 876.504 521.133C876.504 516.787 874.961 511.819 874.773 511.217C887.193 510.577 896.583 502.579 896.583 492.098C896.583 483.724 891.897 476.573 882.676 473.694C882.676 473.694 882.883 471.436 883.297 470.382C883.692 469.328 884.295 467.183 884.295 467.183C884.295 467.183 882.206 467.729 880.588 468.387C878.95 469.046 877.069 470.646 877.069 470.646C877.069 470.646 876.673 469.178 875.996 467.992C875.319 466.788 873.286 465 873.286 465C873.286 465 871.536 465.922 870.181 467.446C868.826 468.971 867.886 470.909 867.886 470.909C867.886 470.909 866.531 469.592 864.517 468.783C862.485 467.992 858.966 468.651 858.966 468.651C858.966 468.651 860.867 470.645 861.807 471.718C862.598 473.111 862.899 473.976 862.899 473.976C853.716 474.635 849.294 483.856 849.294 492.098C849.294 502.466 858.966 510.445 871.254 511.198C871.329 511.687 872.138 516.354 871.913 521.133C871.894 521.604 871.856 522.056 871.819 522.526C868.619 520.324 855.127 511.254 848.861 509.88C839.715 507.886 829.441 509.504 825 509.259C825.132 509.372 830.325 513.249 832.621 515.62C834.898 518.01 842.519 522.752 846.829 523.881C858.232 526.873 868.845 524.125 871.743 523.26C871.066 528.661 868.958 534.118 868.958 534.118C868.958 534.118 871.649 533.177 872.458 532.782C873.267 532.386 875.714 531.991 875.714 531.991C875.714 531.991 876.222 527.945 876.429 523.937C877.2 523.824 878.837 523.561 880.061 523.392C881.717 523.128 891.652 524.257 900.666 524.125C909.68 524.013 915.551 518.875 917.847 517.257C920.124 515.62 924.433 513.512 924.32 513.512C919.239 512.12 910.677 509.128 897.618 511.01Z" fill="#DD1C39"/>
<mask id="path-7-outside-1_650_205" maskUnits="userSpaceOnUse" x="340.961" y="172" width="83" height="134" fill="black">
<rect fill="white" x="340.961" y="172" width="83" height="134"/>
<path d="M402.226 193C378.011 240.674 384.739 263.93 393.79 272.305L367.251 292.708C353.207 282.306 348.017 265.53 355.142 243.681C364.332 215.496 390.36 198.15 402.226 193Z"/>
</mask>
<path d="M402.226 193C378.011 240.674 384.739 263.93 393.79 272.305L367.251 292.708C353.207 282.306 348.017 265.53 355.142 243.681C364.332 215.496 390.36 198.15 402.226 193Z" fill="#C6DDFF"/>
<path d="M402.226 193L411.141 197.529L423.716 172.771L398.244 183.827L402.226 193ZM393.79 272.305L399.885 280.233L409.278 273.011L400.582 264.965L393.79 272.305ZM367.251 292.708L361.299 300.744L367.363 305.235L373.346 300.636L367.251 292.708ZM355.142 243.681L345.634 240.58L345.634 240.58L355.142 243.681ZM402.226 193L393.31 188.471C368.715 236.894 372.607 266.329 386.998 279.645L393.79 272.305L400.582 264.965C396.87 261.53 387.307 244.454 411.141 197.529L402.226 193ZM393.79 272.305L387.695 264.377L361.156 284.78L367.251 292.708L373.346 300.636L399.885 280.233L393.79 272.305ZM367.251 292.708L373.203 284.672C367.861 280.716 364.468 275.797 362.929 269.945C361.363 263.988 361.535 256.331 364.649 246.781L355.142 243.681L345.634 240.58C341.624 252.88 340.828 264.535 343.587 275.03C346.373 285.628 352.596 294.298 361.299 300.744L367.251 292.708ZM355.142 243.681L364.649 246.781C372.61 222.366 395.751 206.711 406.207 202.173L402.226 193L398.244 183.827C384.97 189.588 356.054 208.625 345.634 240.58L355.142 243.681Z" fill="#040A12" mask="url(#path-7-outside-1_650_205)"/>
<path d="M402.226 193C373.9 248.767 387.911 271.124 398.458 275.332C405.803 268.11 425.579 256.342 445.919 267.043C471.344 280.42 481.326 282.492 499.406 282.681C513.87 282.831 514.975 292.792 513.72 297.753C548.072 282.229 554.526 250.715 553.459 236.898C585.098 292.853 527.282 326.953 523.514 326.013C520.5 325.259 513.595 316.028 510.519 311.506C511.837 327.709 530.482 332.042 540.464 339.013C550.446 345.984 551.764 357.477 549.127 362.94C546.49 368.404 546.679 388.751 540.464 389.693C534.249 390.635 525.209 390.824 518.24 392.708C511.272 394.592 500.724 396.288 496.581 395.911C492.437 395.535 471.344 401.563 461.174 410.606C451.004 419.65 436.69 433.78 426.144 451.302C417.706 465.319 392.369 475.229 380.755 478.432C420.87 477.113 433.3 449.04 454.582 425.113C475.864 401.186 482.833 409.664 489.989 421.722C497.146 433.78 506.563 455.07 540.464 473.722C574.364 492.374 602.614 509.707 629.923 504.997C651.77 501.229 664.64 465.997 668.344 448.853C655.16 435.853 654.595 429.447 652.9 416.447C651.205 403.447 665.331 395.534 676.631 389.693C685.67 385.021 683.662 373.303 681.527 368.027C683.976 370.602 688.57 378.54 687.365 389.693C685.859 403.635 686.424 413.244 688.872 412.679C690.831 412.227 692.952 406.964 693.769 404.389C700.699 435.438 686.612 448.35 678.702 450.925C680.523 448.35 683.071 441.241 678.702 433.403C674.333 425.566 672.989 417.828 672.863 414.939C671.671 417.451 670.001 423.531 672.863 427.751C676.442 433.026 676.63 454.504 674.37 465.243C672.11 475.982 667.402 493.504 656.855 504.997C648.418 514.191 639.905 519.126 636.703 520.445L640.878 527.796C644.363 533.931 648.495 539.675 653.204 544.93C661.466 554.148 667.921 564.837 672.231 576.44L691.886 629.343L717.311 672.299L721.077 684.733L723.362 687.874C716.214 696.408 708.063 705.003 699.059 713.409C692.831 702.997 687.098 701.339 685.105 699.806C682.654 697.92 630.49 662.88 624.085 656.662C617.682 650.445 610.901 640.271 611.466 626.329C611.918 615.176 609.896 605.227 608.829 601.647C610.185 611.143 604.246 624.822 601.107 630.474C561.783 643.436 516.294 632.232 498.465 625.01C510.142 636.126 530.482 637.633 532.365 640.271C534.249 642.908 531.801 659.299 528.976 667.777C526.151 676.256 512.025 733.342 514.474 743.893C516.432 752.333 516.922 757.332 516.922 758.776C512.854 762.394 491.748 761.163 481.703 760.096C483.21 757.383 484.214 746.279 484.528 741.066C493.869 741.368 499.971 739.936 501.854 739.183C493.869 739.333 487.73 736.984 485.658 735.791C486.864 732.926 488.797 702.694 489.613 687.937C474.848 677.838 469.147 656.976 468.143 647.807C464.564 658.546 471.344 707.529 470.591 710.545C469.837 713.559 468.896 743.139 472.851 747.661C476.806 752.183 481.326 772.342 481.703 779.501C482.08 786.66 479.82 787.414 477.56 787.414C476.472 787.414 466.265 787.717 455.277 787.887C443.959 785.643 433.061 782.879 422.664 779.758C422.699 779.109 422.734 778.398 422.754 777.617C422.905 771.739 423.947 758.713 424.449 752.936C430.627 755.196 447.237 754.757 454.771 754.255C448.555 752.999 434.844 750.148 429.722 748.791C423.319 747.095 424.449 745.023 427.462 729.951C430.475 714.879 425.579 705.835 424.449 700.56C423.319 695.284 422.188 690.386 420.87 674.372C419.815 661.561 405.365 613.768 398.271 591.474C365.274 577.306 338.442 545.126 329.15 530.808C331.712 545.578 357.715 572.885 370.396 584.691C370.961 589.59 354.199 603.532 344.971 607.677C337.588 610.993 321.304 626.768 314.084 634.241C311.636 645.734 292.614 663.82 289.035 667.023C287.67 668.245 285.045 676.431 282.277 686.413C272.925 672.47 262.382 656.23 252.774 641.222C262.115 587.247 276.982 509.853 296.381 440.562C329.716 321.491 353.635 313.201 361.168 306.23C368.701 299.26 372.656 300.956 381.508 304.912C388.589 308.077 398.271 305.854 402.226 304.347C364.182 300.955 343.653 278.912 355.142 243.681C364.332 215.496 390.36 198.15 402.226 193Z" fill="#C6DDFF"/>
<path d="M499.209 824.706C499.791 824.183 501.746 823.686 502.202 824.248C503.02 824.586 503.281 826.495 503.027 827.338C502.721 828.216 503.03 828.61 504.088 828.694C504.882 828.757 505.006 828.711 505.487 828.164C505.936 827.655 506.138 827.564 506.836 827.564C508.005 827.564 508.632 828.218 508.808 829.617C508.966 830.884 508.64 831.644 507.812 831.932C507.448 832.058 507.158 832.34 506.991 832.729C506.849 833.061 506.41 833.668 506.017 834.079L505.302 834.827L505.162 838.932C505.085 841.189 505.003 845.961 504.979 849.536C504.956 853.111 504.87 857.411 504.79 859.094L504.644 862.152L505.265 862.664C506.271 863.494 507.223 864.562 507.456 865.124C507.629 865.54 507.793 865.649 508.248 865.655C511.37 865.695 517.021 865.612 522.842 865.441L529.886 865.234L530.519 864.536C530.867 864.152 531.425 863.748 531.759 863.638C532.181 863.499 532.536 863.163 532.928 862.535C533.727 861.252 534.713 861.092 535.843 862.061C536.559 862.675 536.528 863.752 535.769 864.696C535.397 865.158 535.192 865.654 535.124 866.256C535.035 867.046 535.067 867.154 535.434 867.293C535.659 867.378 535.986 867.59 536.159 867.763C536.395 867.998 536.527 868.025 536.683 867.87C536.797 867.756 537.326 867.662 537.857 867.662C538.674 867.662 538.895 867.74 539.289 868.164C540.057 868.991 539.803 870.808 538.848 871.318C538.383 871.566 537.498 871.558 536.932 871.301C536.555 871.13 536.369 871.161 535.843 871.485C534.821 872.115 534.69 873.219 535.533 874.099C535.99 874.576 536.084 874.825 536.084 875.562C536.084 876.197 535.982 876.552 535.729 876.805C535.289 877.243 534.271 877.537 533.625 877.414C533.089 877.312 532.412 876.497 532.412 875.954C532.412 875.724 532.164 875.497 531.682 875.284C531.28 875.107 530.722 874.69 530.442 874.357C529.807 873.602 529.568 873.56 525.069 873.416C523.1 873.353 521.076 873.276 520.571 873.244C520.458 873.237 520.222 873.228 519.889 873.216V876.594H520.677C520.317 876.872 520.09 877.286 520.037 877.745C519.93 878.815 520.13 879.888 520.623 880.833C521.237 882.028 522.904 881.942 523.411 880.691C523.611 880.191 523.701 879.648 523.701 879.12V878.984C523.661 877.706 522.956 876.549 521.849 875.979H524.826C524.626 876.174 524.547 876.481 524.613 876.759C524.853 877.662 524.986 878.579 524.986 879.51C524.986 879.954 524.945 880.404 524.892 880.862C524.705 882.405 523.437 883.555 521.943 883.555C520.77 883.555 519.7 882.844 519.22 881.719C518.753 882.83 517.688 883.555 516.515 883.555C515.021 883.555 513.753 882.403 513.566 880.874C513.5 880.416 513.472 879.968 513.472 879.51C513.472 878.579 513.593 877.648 513.833 876.759C513.86 876.689 513.862 876.621 513.862 876.552C513.862 876.33 513.78 876.132 513.62 875.979H516.609C515.502 876.535 514.792 877.706 514.738 878.984C514.725 879.568 514.833 880.15 515.047 880.691C515.554 881.942 517.221 882.023 517.835 880.814C518.235 880.05 518.45 879.193 518.45 878.317C518.45 878.123 518.436 877.943 518.409 877.763C518.369 877.29 518.141 876.872 517.781 876.594H518.569V873.174C517.33 873.137 515.668 873.092 513.959 873.052L508.265 872.916L508.053 873.379C507.735 874.075 506.747 875.131 505.675 875.921L504.718 876.626L504.781 881.527C504.898 890.539 505.233 903.243 505.43 906.111C505.537 907.672 505.614 909.32 505.602 909.773C505.573 910.852 505.767 915.091 505.9 916.324C505.981 917.071 506.103 917.355 506.44 917.575C506.68 917.732 507.054 918.224 507.27 918.669C507.486 919.114 507.791 919.477 507.949 919.478C508.107 919.478 508.563 919.819 508.962 920.237C509.614 920.921 509.676 921.067 509.577 921.684C509.42 922.664 508.727 923.864 508.146 924.164C507.482 924.507 506.338 924.489 505.419 924.122C503.855 923.528 502.968 924.215 501.803 924.773C500.196 925.394 499.97 924.589 498.88 924.148C498.662 924.125 498.373 924.065 498.237 924.015C497.865 923.875 495.504 924.201 495.228 924.43C494.905 924.696 493.425 924.561 493.022 924.228C492.047 923.42 492.102 921.501 493.126 920.636C493.463 920.351 493.973 920.054 494.259 919.976C494.545 919.897 494.778 919.718 494.778 919.578C494.778 919.213 495.681 918.193 496.167 918.009C496.545 917.865 496.586 917.704 496.683 915.965C496.927 904.378 496.886 892.787 497.102 881.199L497.222 876.151L496.597 875.896C495.908 875.614 494.127 873.885 493.949 873.326C493.887 873.131 493.697 872.967 493.527 872.961C492.82 872.936 489.282 873.012 488.262 873.073C487.813 873.1 486.244 873.168 484.394 873.244V875.991H485.565L485.062 877.077L488.496 883.2L489.502 884.369H486.151L486.696 883.059L486.051 881.89L483.748 883.944L481.422 881.89L480.776 883.059L481.321 884.369H477.971L479 883.2L482.416 877.077L481.931 875.991H483.085V873.298C482.853 873.307 482.62 873.318 482.388 873.327C477.298 873.528 471.785 873.902 471.922 874.038C472.167 874.283 471.179 875.173 470.36 875.444C469.654 875.678 469.445 875.835 469.445 876.128C469.445 876.65 468.564 877.759 468.189 877.709C468.021 877.687 467.556 877.763 467.156 877.879C465.603 878.33 464.27 876.893 464.938 875.488C465.105 875.139 465.438 874.764 465.679 874.654C466.078 874.473 466.101 874.398 465.935 873.799C465.835 873.438 465.802 872.987 465.862 872.797C465.943 872.545 465.859 872.417 465.552 872.321C465.32 872.25 464.924 872.051 464.672 871.88C464.279 871.614 464.147 871.604 463.754 871.811C462.964 872.225 462.134 872.117 461.537 871.521C461.089 871.074 461 870.837 461 870.081C461 868.507 461.984 867.775 463.974 867.869C465.14 867.924 465.743 867.759 465.706 867.397L465.675 867.247C465.647 867.047 465.687 866.682 465.775 866.376C465.951 865.769 465.925 865.711 465.224 865.129C464.593 864.606 464.488 864.416 464.488 863.795C464.488 862.436 465.267 861.863 466.965 861.973C468.126 862.048 468.595 862.387 469.187 863.577C469.378 863.963 469.656 864.2 470.009 864.277C470.302 864.342 470.71 864.607 470.914 864.866C471.18 865.204 471.544 865.378 472.195 865.48C472.696 865.559 477.564 865.63 483.015 865.638C488.465 865.645 493.042 865.697 493.186 865.752C493.345 865.813 493.677 865.561 494.041 865.103C494.689 864.287 495.673 863.268 495.812 863.268C495.861 863.267 496.19 863.041 496.543 862.765L497.186 862.261L497.082 855.028C496.948 845.631 496.821 839.939 496.68 837.022L496.565 834.671L495.869 833.868C495.486 833.427 495.07 832.781 494.943 832.433C494.807 832.057 494.557 831.759 494.328 831.702C493.587 831.517 492.897 830.579 492.807 829.633C492.731 828.844 492.78 828.694 493.293 828.159C493.77 827.662 493.999 827.564 494.683 827.564C495.378 827.564 495.563 827.647 495.904 828.107C496.278 828.612 496.383 828.648 497.378 828.611C497.986 828.589 498.45 828.487 498.45 828.377C498.451 828.27 498.618 828.003 498.823 827.784C499.176 827.406 499.18 827.355 498.898 826.812C498.534 826.108 498.669 825.192 499.209 824.706ZM482.274 880.378L483.748 881.688L485.204 880.378L483.748 877.763L482.274 880.378Z" fill="#DD1C39"/>
</svg>
