<svg width="350" height="350" viewBox="0 0 350 350" fill="none" xmlns="http://www.w3.org/2000/svg">
<path d="M175 347.5C270.269 347.5 347.5 270.269 347.5 175C347.5 79.7309 270.269 2.5 175 2.5C79.7309 2.5 2.5 79.7309 2.5 175C2.5 270.269 79.7309 347.5 175 347.5Z" fill="#C6DDFF" stroke="#111E31" stroke-width="5"/>
<path d="M287.828 286.868C286.651 288.067 285.366 289.062 283.973 289.853C282.566 290.629 281.276 291.101 280.104 291.267L278.648 287.526C279.735 287.332 280.856 286.947 282.011 286.37C283.165 285.766 284.183 285.014 285.066 284.115C285.739 283.43 286.214 282.817 286.492 282.277C286.769 281.709 286.885 281.206 286.838 280.768C286.792 280.33 286.612 279.957 286.298 279.648C285.898 279.256 285.43 279.105 284.893 279.195C284.343 279.27 283.744 279.495 283.096 279.869C282.435 280.228 281.732 280.659 280.987 281.161C280.242 281.635 279.461 282.087 278.645 282.519C277.842 282.937 277.032 283.248 276.214 283.454C275.395 283.659 274.568 283.674 273.732 283.498C272.91 283.307 272.099 282.82 271.3 282.035C270.444 281.194 269.89 280.202 269.639 279.059C269.388 277.888 269.511 276.635 270.008 275.301C270.504 273.939 271.446 272.551 272.833 271.138C273.758 270.196 274.783 269.381 275.908 268.691C277.019 267.988 278.139 267.504 279.268 267.239L280.85 270.895C279.764 271.202 278.785 271.614 277.913 272.131C277.026 272.634 276.254 273.221 275.595 273.892C274.937 274.562 274.476 275.189 274.212 275.771C273.949 276.354 273.855 276.864 273.93 277.301C273.99 277.725 274.184 278.098 274.513 278.42C274.898 278.799 275.366 278.95 275.917 278.874C276.454 278.784 277.045 278.553 277.693 278.179C278.34 277.805 279.036 277.382 279.781 276.908C280.54 276.42 281.314 275.961 282.102 275.529C282.904 275.083 283.714 274.758 284.533 274.552C285.351 274.346 286.171 274.339 286.993 274.529C287.829 274.706 288.64 275.179 289.425 275.95C290.267 276.776 290.806 277.768 291.043 278.926C291.28 280.083 291.15 281.343 290.654 282.706C290.171 284.054 289.229 285.441 287.828 286.868Z" fill="#111E31"/>
<path d="M255.345 296.643L263.684 290.928L265.821 294.046L257.482 299.761L255.345 296.643ZM260.526 303.567L269.954 297.105L272.159 300.322L258.746 309.514L246.875 292.191L259.966 283.22L262.171 286.437L253.064 292.678L260.526 303.567Z" fill="#111E31"/>
<path d="M232.165 322.592L223.777 303.34L228.232 301.398L235.039 317.02L244.692 312.814L246.274 316.444L232.165 322.592Z" fill="#111E31"/>
<path d="M204.193 330.714L199.51 310.243L204.248 309.159L208.048 325.77L218.313 323.422L219.196 327.282L204.193 330.714Z" fill="#111E31"/>
<path d="M177.829 320.207L187.933 319.854L188.065 323.632L177.961 323.985L177.829 320.207ZM178.49 328.829L189.913 328.431L190.049 332.328L173.799 332.895L173.066 311.908L188.927 311.355L189.063 315.252L178.03 315.637L178.49 328.829Z" fill="#111E31"/>
<path d="M138.69 329.632L149.617 318.809L149.044 322.302L142.477 308.972L147.924 309.866L152.449 319.152L150.165 318.807L157.338 311.412L162.548 312.267L152.157 322.6L152.721 319.166L159.65 333.072L154.114 332.163L149.459 322.37L151.649 322.73L144.196 330.535L138.69 329.632Z" fill="#111E31"/>
<path d="M118.638 322.648C115.862 321.565 113.993 319.945 113.032 317.788C112.07 315.631 112.149 313.117 113.268 310.248L117.543 299.292L122.071 301.059L117.861 311.847C117.134 313.71 116.993 315.201 117.437 316.319C117.881 317.436 118.792 318.264 120.171 318.802C121.55 319.34 122.781 319.348 123.865 318.827C124.949 318.305 125.854 317.112 126.581 315.249L130.79 304.461L135.262 306.206L130.987 317.162C129.868 320.031 128.224 321.933 126.055 322.869C123.887 323.805 121.415 323.731 118.638 322.648Z" fill="#111E31"/>
<path d="M82.5529 302.656L94.0175 285.062L101.633 290.025C103.208 291.051 104.397 292.195 105.197 293.457C106.009 294.702 106.414 296.004 106.412 297.363C106.409 298.723 105.977 300.064 105.114 301.388C104.263 302.695 103.216 303.624 101.973 304.175C100.742 304.709 99.3926 304.857 97.9256 304.617C96.4586 304.377 94.9376 303.744 93.3624 302.718L88.0087 299.229L90.9813 298.624L86.6247 305.31L82.5529 302.656ZM93.7379 309.945L93.4993 300.694L97.8476 303.528L98.1365 312.811L93.7379 309.945ZM90.6865 299.076L90.1215 295.987L95.249 299.328C96.5057 300.147 97.6188 300.49 98.5882 300.358C99.5685 300.209 100.37 299.657 100.992 298.702C101.625 297.73 101.807 296.774 101.536 295.834C101.266 294.893 100.502 294.014 99.2452 293.195L94.1177 289.854L97.1885 289.098L90.6865 299.076Z" fill="#111E31"/>
<path d="M57.4377 280.169L72.3641 265.397L79.5811 272.69C81.4381 274.566 82.4755 276.325 82.6932 277.967C82.925 279.623 82.4581 281.027 81.2924 282.181C80.5106 282.955 79.6383 283.438 78.6756 283.631C77.7271 283.81 76.7659 283.72 75.792 283.362C74.818 283.003 73.902 282.39 73.0438 281.523L74.319 281.063C75.2475 282.001 75.9141 282.987 76.3189 284.022C76.7378 285.042 76.8457 286.047 76.6426 287.036C76.4535 288.039 75.9254 288.97 75.0583 289.828C73.7789 291.094 72.2772 291.581 70.5534 291.289C68.8438 290.984 67.0182 289.85 65.0768 287.888L57.4377 280.169ZM63.4367 281.027L67.425 285.058C68.3113 285.953 69.1217 286.488 69.8562 286.661C70.619 286.835 71.3203 286.605 71.96 285.972C72.5854 285.353 72.8153 284.661 72.6496 283.897C72.5121 283.132 72.0003 282.302 71.114 281.407L66.8724 277.121L69.3885 274.631L73.0393 278.32C73.8693 279.158 74.6445 279.657 75.3649 279.817C76.1137 279.976 76.7865 279.761 77.3836 279.17C77.9664 278.593 78.1749 277.936 78.009 277.2C77.8714 276.464 77.3876 275.677 76.5576 274.838L73.1601 271.405L63.4367 281.027Z" fill="#111E31"/>
<path d="M87 177H52V182H87V177Z" fill="#111E31"/>
<path d="M87 167H52V172H87V167Z" fill="#111E31"/>
<path d="M294 177H259V182H294V177Z" fill="#111E31"/>
<path d="M294 167H259V172H294V167Z" fill="#111E31"/>
<path d="M175 296.5C242.103 296.5 296.5 242.103 296.5 175C296.5 107.897 242.103 53.5 175 53.5C107.897 53.5 53.5 107.897 53.5 175C53.5 242.103 107.897 296.5 175 296.5Z" stroke="#C6DDFF" stroke-width="7"/>
<path d="M175 298C242.931 298 298 242.931 298 175C298 107.069 242.931 52 175 52C107.069 52 52 107.069 52 175C52 242.931 107.069 298 175 298Z" stroke="#111E31" stroke-width="4"/>
<path d="M266.5 220.317L266.492 221.39C266.172 243.793 255.808 258.885 242.048 269.621C229.883 279.113 215.026 285.228 202.139 290.075L196.75 292.081C187.711 295.428 180.273 298.195 175.85 301.236L175 301.82L174.15 301.236C170.28 298.575 164.102 296.124 156.562 293.311L153.25 292.081C139.273 286.906 121.855 280.468 107.952 269.621C93.9732 258.715 83.5001 243.312 83.5 220.317V70.8262L84.5918 70.5166L86.0693 70.1152C102.073 65.9213 140.643 60.5 175 60.5C210.465 60.5 250.42 66.2763 265.408 70.5166L266.5 70.8262V220.317Z" fill="#C6DDFF" stroke="#C6DDFF" stroke-width="3"/>
<path d="M175 63.5C209.422 63.5 248.042 68.9872 263.5 73.1064V220.317L263.493 221.338C263.19 242.669 253.392 256.965 240.202 267.256C227.569 277.112 211.866 283.261 198.375 288.278L195.708 289.268C187.34 292.366 179.857 295.127 175 298.204C170.787 295.535 164.597 293.103 157.568 290.483L154.292 289.268C140.241 284.065 123.273 277.769 109.798 267.256C96.3986 256.802 86.5001 242.215 86.5 220.317V73.1064C101.958 68.9872 140.578 63.5 175 63.5Z" stroke="#111E31" stroke-width="3"/>
<path d="M174.44 97.8245H175.398V96.2919H176.536V95.3282H175.398V94H174.44V95.3282H173.302V96.2919H174.44V97.8245Z" fill="#111E31"/>
<path d="M140.851 124.607C141.053 124.179 141.277 123.762 141.52 123.359C141.575 123.265 141.545 123.193 141.528 123.133C140.619 119.949 140.611 117.127 141.652 114.863C143.574 110.679 148.76 109.083 155.854 109.812C154.236 113.244 155.343 117.403 156.931 120.631C157.066 120.94 156.754 121.307 156.356 121.423C156.075 121.52 155.826 121.675 155.619 121.871C155.462 122.056 155.627 122.191 155.735 122.191C156.378 122.238 156.884 122.721 157 123.351C157.13 124.113 156.621 124.831 155.859 124.961C155.23 125.063 154.608 124.748 154.349 124.152C154.316 124.052 154.131 123.939 154.012 124.149C153.855 124.511 153.797 124.919 153.868 125.336C153.885 125.444 153.943 125.554 153.871 125.651C153.816 125.731 153.739 125.723 153.653 125.739C152.954 125.861 152.399 126.322 152.126 126.927C152.085 127.04 152.093 127.084 152.167 127.178C152.626 127.656 153.305 127.904 154.004 127.783C154.089 127.769 154.158 127.736 154.238 127.791C154.338 127.857 154.321 127.984 154.338 128.089C154.41 128.506 154.6 128.871 154.868 129.158C155.05 129.318 155.188 129.15 155.186 129.042C155.299 127.49 157.638 127.2 157.933 128.921C158.391 131.594 154.644 132.107 152.827 130.616C152.888 130.481 152.924 130.329 152.924 130.169C152.924 129.564 152.435 129.072 151.833 129.072C151.231 129.072 150.745 129.564 150.745 130.169C150.745 130.597 150.991 130.969 151.347 131.149C151.157 133.543 147.672 133.723 147.261 131.334C147.208 131.019 147.227 130.707 147.307 130.42C147.771 130.263 148.263 130.329 148.663 130.564C148.873 130.649 149.042 130.475 148.989 130.318C148.931 130.097 148.829 129.887 148.688 129.708C148.575 129.536 148.73 129.382 148.821 129.382C149.403 129.249 149.922 128.827 150.182 128.244C150.223 128.142 150.185 128.087 150.157 128.04C149.61 127.286 148.696 127.236 147.984 127.642C147.802 127.755 147.614 127.562 147.675 127.418C147.749 127.095 147.763 126.756 147.705 126.419C147.689 126.325 147.611 126.27 147.567 126.253C146.708 125.924 145.83 126.256 145.286 126.927C145.107 127.098 144.894 126.963 144.905 126.783C144.839 125.789 144.444 124.812 143.715 124.027C143.577 123.878 143.359 123.61 143.149 123.829C142.754 124.254 142.456 124.737 142.257 125.251C142.191 125.378 142.022 125.38 141.934 125.317C141.641 125.124 141.315 124.991 140.981 124.928C140.821 124.875 140.793 124.729 140.851 124.607ZM157.265 125.284C157.469 124.903 157.836 124.635 158.262 124.563C158.69 124.489 159.12 124.618 159.438 124.906C160.294 125.676 159.896 127.139 158.737 127.341C157.552 127.545 156.729 126.278 157.265 125.284ZM159.325 108.362C161.65 105.333 166.764 104.632 173.477 105.916C173.438 106.769 173.38 108.735 173.319 110.21C173.245 112.007 173.002 113.733 172.419 115.326C172.386 115.412 172.358 115.517 172.358 115.608C172.358 115.923 172.615 116.207 172.93 116.18C173.499 116.133 174.181 116.409 174.181 117.199C174.181 117.72 173.869 118.135 173.341 118.218C172.999 118.276 172.679 118.403 172.403 118.588C172.182 118.77 172.347 118.963 172.472 118.98C173.54 119.25 174.023 120.493 173.468 121.423C172.709 122.647 170.831 122.379 170.481 120.971C170.461 120.846 170.271 120.678 170.091 120.902C169.837 121.285 169.691 121.744 169.691 122.241C169.691 122.567 169.746 122.663 169.365 122.663C168.534 122.663 167.799 123.086 167.363 123.729C167.294 123.853 167.294 123.906 167.363 124.027C167.797 124.671 168.531 125.093 169.365 125.093C169.743 125.093 169.691 125.19 169.691 125.519C169.691 126.013 169.837 126.474 170.091 126.858C170.271 127.079 170.461 126.91 170.481 126.789C170.895 125.115 173.322 125.165 173.678 126.861C174.275 130.017 168.849 130.575 166.952 128.161C167.15 127.962 167.275 127.689 167.275 127.385C167.275 126.78 166.786 126.289 166.184 126.289C165.585 126.289 165.096 126.78 165.096 127.385C165.096 127.813 165.342 128.186 165.701 128.365C164.425 130.619 160.413 131.163 160.015 128.559C159.902 127.83 160.242 127.095 161.139 126.941C161.769 126.838 162.39 127.156 162.649 127.75C162.683 127.849 162.87 127.962 162.986 127.752C163.147 127.391 163.202 126.982 163.133 126.565C163.113 126.457 163.055 126.347 163.127 126.25C163.182 126.17 163.26 126.179 163.345 126.162C164.044 126.043 164.599 125.579 164.872 124.975C164.914 124.861 164.905 124.817 164.828 124.723C164.37 124.248 163.693 124 162.992 124.121C162.909 124.135 162.84 124.166 162.76 124.113C162.658 124.044 162.677 123.92 162.658 123.812C162.586 123.398 162.395 123.031 162.128 122.743C161.945 122.583 161.81 122.752 161.81 122.859C161.722 124.091 160.181 124.596 159.366 123.677C158.764 122.973 158.991 121.857 159.852 121.476C159.952 121.443 160.065 121.258 159.852 121.139C159.593 121.023 159.305 120.96 159.01 120.962C158.499 120.935 157.812 120.2 158.14 119.852C158.53 119.532 158.933 119.236 159.355 118.96C159.502 118.864 159.46 118.737 159.432 118.668C158.11 115.545 157.069 111.3 159.325 108.362ZM176.547 123.635C176.633 124.248 176.371 124.889 175.863 125.242C175.316 125.629 174.529 125.629 173.982 125.242C173.474 124.889 173.212 124.248 173.297 123.635C173.41 122.829 174.106 122.227 174.921 122.227C175.735 122.227 176.434 122.826 176.547 123.635ZM176.915 116.18C177.229 116.207 177.486 115.923 177.486 115.608C177.486 115.517 177.459 115.412 177.425 115.326C176.843 113.733 176.558 112.007 176.525 110.21C176.498 108.779 176.434 107.396 176.368 105.916C183.081 104.632 188.195 105.333 190.52 108.362C192.776 111.3 191.735 115.545 190.412 118.668C190.384 118.737 190.343 118.864 190.489 118.96C190.912 119.236 191.315 119.532 191.704 119.852C192.033 120.2 191.345 120.935 190.835 120.962C190.539 120.96 190.252 121.023 189.992 121.139C189.78 121.258 189.893 121.443 189.992 121.476C190.854 121.857 191.08 122.973 190.478 123.677C189.664 124.596 188.123 124.091 188.035 122.859C188.035 122.752 187.899 122.583 187.717 122.743C187.449 123.031 187.259 123.398 187.187 123.812C187.167 123.92 187.187 124.044 187.085 124.113C187.005 124.165 186.936 124.135 186.853 124.121C186.151 124 185.475 124.248 185.016 124.723C184.939 124.817 184.931 124.861 184.972 124.975C185.246 125.579 185.801 126.043 186.499 126.162C186.585 126.178 186.662 126.17 186.717 126.25C186.789 126.347 186.731 126.457 186.712 126.565C186.643 126.982 186.701 127.391 186.858 127.752C186.974 127.962 187.162 127.849 187.195 127.75C187.808 126.35 190.1 126.797 189.829 128.559C189.429 131.163 185.42 130.619 184.144 128.365C184.503 128.186 184.749 127.813 184.749 127.385C184.749 126.78 184.26 126.289 183.661 126.289C183.059 126.289 182.57 126.78 182.57 127.385C182.57 127.689 182.694 127.962 182.893 128.161C180.996 130.575 175.57 130.017 176.166 126.861C176.522 125.165 178.95 125.115 179.364 126.789C179.383 126.91 179.574 127.079 179.753 126.858C180.007 126.474 180.154 126.013 180.154 125.519C180.154 125.19 180.101 125.093 180.48 125.093C181.313 125.093 182.048 124.671 182.481 124.027C182.551 123.906 182.551 123.853 182.481 123.729C182.045 123.086 181.311 122.663 180.48 122.663C180.098 122.663 180.154 122.567 180.154 122.241C180.154 121.744 180.007 121.285 179.753 120.902C179.574 120.678 179.383 120.846 179.364 120.971C179.013 122.379 177.136 122.647 176.376 121.423C175.821 120.493 176.304 119.25 177.376 118.98C177.497 118.963 177.663 118.77 177.442 118.588C177.166 118.403 176.846 118.276 176.503 118.218C175.976 118.135 175.664 117.72 175.664 117.199C175.664 116.409 176.346 116.133 176.915 116.18ZM192.58 125.284C193.115 126.278 192.293 127.545 191.108 127.341C189.948 127.139 189.551 125.676 190.407 124.906C190.724 124.618 191.155 124.489 191.583 124.563C192.008 124.635 192.375 124.903 192.58 125.284ZM192.845 123.351C192.961 122.721 193.466 122.238 194.11 122.191C194.217 122.191 194.383 122.056 194.225 121.871C194.018 121.675 193.77 121.52 193.488 121.423C193.091 121.307 192.779 120.94 192.914 120.631C194.502 117.403 195.609 113.244 193.991 109.812C201.085 109.083 206.27 110.679 208.192 114.863C209.233 117.127 209.225 119.949 208.317 123.133C208.3 123.193 208.27 123.265 208.325 123.359C208.568 123.762 208.792 124.179 208.993 124.607C209.051 124.729 209.024 124.875 208.863 124.928C208.529 124.991 208.203 125.124 207.911 125.317C207.822 125.38 207.654 125.378 207.588 125.251C207.389 124.737 207.091 124.254 206.696 123.829C206.486 123.61 206.268 123.878 206.13 124.027C205.401 124.812 205.006 125.789 204.94 126.783C204.951 126.963 204.738 127.098 204.558 126.927C204.014 126.256 203.136 125.924 202.278 126.253C202.233 126.27 202.156 126.325 202.14 126.419C202.082 126.756 202.095 127.095 202.17 127.418C202.231 127.562 202.043 127.755 201.861 127.642C201.148 127.236 200.234 127.286 199.687 128.04C199.66 128.087 199.621 128.142 199.663 128.244C199.922 128.827 200.441 129.249 201.024 129.382C201.115 129.382 201.27 129.536 201.156 129.708C201.016 129.887 200.913 130.097 200.855 130.318C200.803 130.475 200.971 130.649 201.181 130.564C201.579 130.329 202.073 130.263 202.537 130.42C202.617 130.707 202.637 131.019 202.584 131.334C202.173 133.723 198.688 133.543 198.497 131.149C198.854 130.969 199.099 130.597 199.099 130.169C199.099 129.564 198.613 129.072 198.011 129.072C197.409 129.072 196.921 129.564 196.921 130.169C196.921 130.329 196.956 130.481 197.017 130.616C195.2 132.107 191.453 131.594 191.911 128.921C192.047 128.145 192.674 127.628 193.505 127.772C194.132 127.888 194.612 128.396 194.659 129.042C194.656 129.15 194.794 129.318 194.977 129.158C195.244 128.871 195.435 128.506 195.507 128.089C195.523 127.984 195.507 127.857 195.606 127.791C195.686 127.736 195.755 127.769 195.841 127.783C196.539 127.904 197.219 127.656 197.677 127.178C197.752 127.084 197.76 127.04 197.719 126.927C197.445 126.322 196.89 125.861 196.189 125.739C196.106 125.723 196.029 125.731 195.973 125.651C195.902 125.554 195.96 125.444 195.976 125.336C196.048 124.919 195.99 124.511 195.833 124.149C195.714 123.939 195.529 124.052 195.496 124.152C195.236 124.748 194.615 125.063 193.985 124.961C193.223 124.831 192.715 124.113 192.845 123.351ZM196.25 138.154C195.617 138.154 195.104 137.638 195.104 137.003C195.104 136.365 195.617 135.852 196.25 135.852C196.882 135.852 197.393 136.365 197.393 137.003C197.393 137.638 196.882 138.154 196.25 138.154ZM192.886 136.282L189.647 137.533C189.548 137.58 189.484 137.561 189.412 137.514C188.44 136.881 187.468 136.249 186.496 135.617C186.392 135.564 186.334 135.343 186.535 135.255L189.788 133.999C189.882 133.968 189.893 133.96 190.006 134.035C190.973 134.661 191.936 135.291 192.903 135.918C193.019 135.992 193.088 136.136 192.886 136.282ZM182.418 136.713C181.681 136.713 181.081 136.114 181.081 135.371C181.081 134.631 181.681 134.029 182.418 134.029C183.155 134.029 183.752 134.631 183.752 135.371C183.752 136.114 183.155 136.713 182.418 136.713ZM178.284 135.197C177.205 135.749 176.125 136.302 175.045 136.857C174.954 136.909 174.89 136.909 174.799 136.857C173.72 136.302 172.64 135.749 171.56 135.197C171.4 135.103 171.411 134.882 171.58 134.816C172.657 134.266 173.731 133.717 174.805 133.167C174.918 133.109 174.926 133.109 175.04 133.167C176.114 133.717 177.188 134.266 178.265 134.816C178.453 134.896 178.431 135.125 178.284 135.197ZM167.427 136.713C166.689 136.713 166.093 136.114 166.093 135.371C166.093 134.631 166.689 134.029 167.427 134.029C168.164 134.029 168.763 134.631 168.763 135.371C168.763 136.114 168.164 136.713 167.427 136.713ZM163.348 135.617C162.376 136.249 161.404 136.881 160.432 137.514C160.36 137.561 160.297 137.58 160.197 137.533L156.958 136.282C156.768 136.21 156.762 136.012 156.942 135.918C157.908 135.291 158.872 134.661 159.838 134.035C159.952 133.96 159.963 133.968 160.057 133.999L163.309 135.255C163.494 135.319 163.497 135.539 163.348 135.617ZM153.595 138.154C152.963 138.154 152.452 137.638 152.452 137.003C152.452 136.365 152.963 135.852 153.595 135.852C154.227 135.852 154.741 136.365 154.741 137.003C154.741 137.638 154.227 138.154 153.595 138.154ZM139.3 124.95C139.313 125.038 139.333 125.118 139.208 125.212C138.62 125.541 138.176 126.09 137.977 126.739C137.924 126.85 137.993 127.09 138.261 127.023C139.846 126.314 141.663 127.333 141.92 129.036C141.953 129.188 142.097 129.274 142.262 129.175C143.638 128.158 145.435 129.674 144.731 131.204C144.698 131.273 144.698 131.392 144.811 131.48C148.277 133.717 150.566 137.412 150.997 141.543C151.01 141.667 151.154 141.758 151.273 141.725C165.091 137.674 184.754 137.674 198.572 141.725C198.691 141.758 198.834 141.667 198.848 141.543C199.282 137.412 201.568 133.717 205.033 131.48C205.147 131.392 205.147 131.273 205.114 131.204C204.409 129.674 206.207 128.158 207.582 129.175C207.748 129.274 207.891 129.188 207.925 129.036C208.181 127.333 209.998 126.314 211.583 127.023C211.851 127.09 211.92 126.85 211.868 126.739C211.669 126.09 211.224 125.541 210.636 125.212C210.512 125.118 210.531 125.038 210.545 124.95C211.302 123.326 211.799 121.713 211.989 120.142C213 111.822 205.136 107.479 193.665 109.191C191.149 104.935 184.613 103.489 176.266 105.311C176.161 104.546 176.21 103.154 174.921 103.154C173.637 103.154 173.618 104.502 173.579 105.311C165.231 103.489 158.695 104.935 156.18 109.191C144.709 107.479 136.845 111.822 137.855 120.142C138.046 121.713 138.543 123.326 139.3 124.95Z" fill="#111E31"/>
<path d="M174.46 98.2534C173.623 98.4357 172.971 99.1094 172.814 99.9572H174.46V98.2534Z" fill="#111E31"/>
<path d="M175.386 98.2534V99.9572H177.032C176.875 99.1094 176.223 98.4357 175.386 98.2534Z" fill="#111E31"/>
<path d="M174.923 102.496C175.956 102.496 176.82 101.765 177.024 100.793H172.822C173.026 101.765 173.89 102.496 174.923 102.496Z" fill="#111E31"/>
<path d="M235.737 149.779C235.737 149.351 235.392 149.006 234.967 149.006H224.719C224.294 149.006 223.952 149.351 223.952 149.779C223.952 150.111 224.156 150.389 224.449 150.5H224.443C224.896 150.702 225.142 151.345 225.142 152.021C225.142 152.676 224.858 153.328 224.407 153.54H224.41C224.14 153.684 223.952 154.001 223.952 154.377C223.952 154.879 224.294 155.288 224.719 155.288H234.959C235.384 155.288 235.729 154.879 235.729 154.377C235.729 154.01 235.547 153.698 235.287 153.551C235.293 153.557 235.298 153.557 235.304 153.56C234.873 153.333 234.564 152.734 234.564 152.021C234.564 151.309 234.898 150.682 235.334 150.461C235.326 150.464 235.317 150.464 235.312 150.467C235.563 150.34 235.737 150.08 235.737 149.779Z" fill="#111E31"/>
<path d="M222.437 226.966H237.337V222.733H222.437V226.966Z" fill="#111E31"/>
<path d="M231.125 168.204C232.299 168.372 233.453 168.596 234.571 168.867V156.637H225.116V167.798C227.353 167.825 229.463 167.969 231.125 168.204Z" fill="#111E31"/>
<path d="M225.505 196.071C225.381 196.004 225.248 195.93 225.116 195.858V216.209C225.116 218.33 224.768 219.661 224.199 220.547C223.994 220.868 224.127 221.271 224.453 221.271H235.192C235.523 221.271 235.714 220.854 235.523 220.55C234.962 219.658 234.573 218.233 234.573 216.209V200.497C231.806 199.329 228.667 197.799 225.505 196.071Z" fill="#111E31"/>
<path d="M223.913 181.879C222.22 181.989 220.442 182.569 219.63 183.226L220.237 183.831C221.063 184.646 222.308 185.758 223.913 186.799V181.879Z" fill="#111E31"/>
<path d="M236.923 230.758C235.882 230.564 235.037 230.244 234.219 229.938C232.927 229.449 231.588 228.943 229.547 228.943C227.576 228.943 226.256 229.443 224.977 229.929C224.163 230.239 223.32 230.559 222.285 230.752C221.045 230.984 219.78 230.722 218.944 230.548C218.557 230.468 218.275 230.412 218.049 230.412L218.046 231.904C218.132 231.904 218.413 231.962 218.64 232.009C219.535 232.196 221.031 232.503 222.561 232.218C223.726 232 224.632 231.655 225.507 231.324C226.764 230.846 227.849 230.435 229.547 230.435C231.314 230.435 232.471 230.871 233.695 231.332C234.57 231.663 235.479 232.006 236.649 232.224C237.097 232.307 237.533 232.34 237.95 232.34C238.936 232.34 239.814 232.158 240.463 232.022C240.736 231.964 241.048 231.904 241.161 231.904V230.412C240.896 230.412 240.57 230.476 240.159 230.562C239.306 230.738 238.132 230.981 236.923 230.758Z" fill="#111E31"/>
<path d="M236.923 234.143C235.882 233.95 235.037 233.629 234.222 233.323C232.927 232.834 231.588 232.329 229.547 232.329C227.576 232.329 226.256 232.829 224.977 233.315C224.163 233.624 223.32 233.944 222.285 234.138C221.045 234.372 219.78 234.107 218.944 233.933C218.557 233.856 218.275 233.798 218.049 233.798L218.046 235.289C218.132 235.289 218.413 235.347 218.64 235.394C219.535 235.582 221.031 235.891 222.561 235.604C223.726 235.386 224.632 235.041 225.507 234.709C226.764 234.231 227.849 233.82 229.547 233.82C231.314 233.82 232.471 234.256 233.695 234.717C234.573 235.049 235.479 235.391 236.649 235.609C237.097 235.692 237.533 235.725 237.95 235.725C238.936 235.725 239.817 235.543 240.463 235.408C240.736 235.353 241.048 235.289 241.161 235.289V233.798C240.896 233.798 240.57 233.861 240.162 233.95C239.306 234.127 238.132 234.37 236.923 234.143Z" fill="#111E31"/>
<path d="M236.923 237.297C235.882 237.104 235.037 236.783 234.219 236.477C232.927 235.988 231.588 235.48 229.547 235.48C227.576 235.48 226.256 235.982 224.977 236.468C224.165 236.778 223.32 237.098 222.285 237.291C221.045 237.526 219.78 237.261 218.944 237.087C218.557 237.007 218.275 236.949 218.049 236.949L218.046 238.44C218.132 238.443 218.413 238.501 218.64 238.548C219.535 238.733 221.031 239.045 222.561 238.758C223.726 238.539 224.632 238.194 225.507 237.863C226.764 237.385 227.849 236.971 229.547 236.971C231.314 236.971 232.471 237.41 233.695 237.871C234.57 238.203 235.479 238.545 236.649 238.763C237.097 238.846 237.533 238.879 237.95 238.879C238.936 238.879 239.814 238.697 240.463 238.562C240.736 238.504 241.048 238.44 241.161 238.44V236.949C240.896 236.949 240.57 237.015 240.162 237.101C239.303 237.28 238.132 237.523 236.923 237.297Z" fill="#111E31"/>
<path d="M234.572 192.25V178.794C232.962 178.255 231.139 177.822 229.176 177.579C227.914 177.421 226.528 177.325 225.117 177.289V187.357C225.622 187.671 226.125 187.972 226.597 188.248C229.38 189.878 232.147 191.258 234.572 192.25Z" fill="#111E31"/>
<path d="M218.649 190.02C219.37 191.345 231.18 198.168 238.829 200.703C238.749 200.366 238.661 199.991 238.564 199.59C238.147 197.851 237.636 195.724 237.41 194.656C234.312 193.767 230.148 191.861 225.928 189.393C223.512 187.982 220.643 186.098 219.304 184.77L218.649 190.02Z" fill="#111E31"/>
<path d="M234.46 172.776C234.485 172.679 234.496 172.583 234.496 172.461C234.502 172.008 234.046 171.906 233.607 171.804L233.571 171.798L233.19 173.375C233.563 173.483 233.861 173.477 234.076 173.359C234.264 173.254 234.391 173.058 234.46 172.776Z" fill="#111E31"/>
<path d="M239.413 176.24L239.488 174.903L238.383 175.71L239.413 176.24Z" fill="#111E31"/>
<path d="M240.603 179.144L240.484 179.072C240.28 178.953 239.473 178.536 239.269 178.448L239.211 178.423L239.225 178.329C239.288 177.846 239.349 177.39 239.368 176.927L237.808 176.12C237.692 176.217 237.579 176.308 237.471 176.394C237.201 176.612 236.947 176.816 236.706 177.045L236.662 177.087L236.607 177.056C236.497 176.993 236.049 176.764 235.939 176.711L235.809 176.653L240.183 173.5L240.23 173.533C240.316 173.591 240.396 173.641 240.481 173.685C240.564 173.729 240.647 173.765 240.752 173.804L240.807 173.826L240.603 179.144ZM235.403 176.554C235.174 176.488 234.23 176.264 233.998 176.22L233.951 176.211L233.335 174.593C233.291 174.475 233.224 174.312 233.155 174.14C233.125 174.063 233.092 173.983 233.061 173.906L232.578 175.894L232.495 175.866C232.299 175.808 231.526 175.626 231.336 175.593L231.247 175.576L232.363 170.973L234.21 171.407C234.583 171.495 235.091 171.614 235.37 171.826C235.809 172.155 235.969 172.539 235.856 172.997C235.712 173.596 235.179 173.942 234.417 173.942H234.398C234.608 174.472 234.851 174.999 235.086 175.51C235.155 175.662 235.224 175.814 235.293 175.966L235.572 176.604L235.403 176.554ZM231.065 171.335C230.645 171.255 230.212 171.169 229.77 171.125L229.378 175.204L229.289 175.19C229.093 175.157 228.295 175.082 228.102 175.079L228.014 175.076L228.406 170.995C227.873 170.951 227.401 170.951 227 170.957L226.89 170.959L226.92 170.852C226.942 170.772 226.978 170.402 226.973 170.319L226.964 170.219L231.278 170.625L231.253 170.722C231.228 170.802 231.195 171.172 231.2 171.255L231.209 171.362L231.065 171.335ZM226.727 174.817L226.741 174.914L223.515 174.833L223.634 170.131L223.723 170.139C223.924 170.156 224.728 170.175 224.915 170.17L225.004 170.164L224.902 174.223C225.545 174.234 226.097 174.207 226.652 174.174L226.76 174.165L226.738 174.27C226.721 174.356 226.713 174.731 226.727 174.817ZM222.116 170.703C221.641 172.108 221.152 173.558 220.768 175.024L220.751 175.082L220.691 175.085C220.583 175.088 220.136 175.157 220.033 175.181L219.975 175.198L219.942 175.146C219.144 173.878 218.274 172.583 217.126 170.951L217.043 170.832L217.187 170.818C217.405 170.802 218.338 170.664 218.573 170.614L218.633 170.603L218.664 170.658C219.045 171.368 219.506 172.072 219.953 172.754C220.127 173.019 220.299 173.284 220.47 173.552C220.768 172.619 221.132 171.434 221.4 170.25L221.414 170.189L221.478 170.186C221.596 170.181 222.082 170.109 222.19 170.081L222.339 170.04L222.116 170.703ZM244.353 175.284C242.806 173.146 237.701 170.476 230.938 169.518C229.024 169.245 226.639 169.118 224.267 169.118C220.539 169.118 217.167 169.311 215.4 169.874V176.863C217.429 176.195 220.448 175.946 223.93 175.946C225.749 175.946 227.611 176.046 229.339 176.261C234.843 176.946 240.18 179.26 242.03 181.77C242.166 181.958 242.284 182.14 242.378 182.322C243.447 179.923 244.709 177.073 244.83 176.719C244.897 176.297 244.736 175.814 244.353 175.284Z" fill="#111E31"/>
<path d="M240.963 182.557C240.414 181.811 239.359 180.988 237.923 180.221C237.246 180.301 236.57 180.373 235.775 180.373V186.475C239.168 186.221 241.333 185.277 241.598 183.805C241.604 183.775 241.601 183.747 241.604 183.717L241.201 182.932C241.137 182.814 241.057 182.687 240.963 182.557Z" fill="#111E31"/>
<path d="M228.845 141.288V134.707C228.682 134.608 228.511 134.536 228.337 134.492C228.187 134.456 228.036 134.437 227.881 134.437C227.152 134.437 226.486 134.862 226.174 135.527C226.205 135.616 226.232 135.701 226.266 135.784C226.859 137.353 227.795 139.653 228.488 141.343C228.607 141.321 228.726 141.304 228.845 141.288Z" fill="#111E31"/>
<path d="M221.97 137.29C222.008 137.359 222.053 137.431 222.1 137.5C222.809 138.571 223.881 140.242 225.281 142.462C225.568 142.304 225.869 142.158 226.175 142.025C225.513 140.416 224.621 138.218 224.022 136.641C224.008 136.608 223.997 136.575 223.986 136.541C223.98 136.541 223.972 136.539 223.966 136.539C223.82 136.5 223.668 136.483 223.511 136.483C222.906 136.483 222.323 136.79 221.97 137.29Z" fill="#111E31"/>
<path d="M234.991 142.398C236.375 140.209 237.432 138.56 238.134 137.5C238.17 137.444 238.203 137.389 238.23 137.342C237.883 136.809 237.283 136.481 236.651 136.481C236.516 136.481 236.383 136.497 236.253 136.525C236.24 136.564 236.226 136.599 236.212 136.641C235.629 138.171 234.74 140.363 234.077 141.976C234.392 142.103 234.699 142.246 234.991 142.398Z" fill="#111E31"/>
<path d="M229.69 130.474C229.826 130.419 229.969 130.394 230.116 130.394C230.265 130.394 230.408 130.419 230.541 130.474V128.939H231.709V128.08H230.541V126.757H229.69V128.08H228.525V128.939H229.69V130.474Z" fill="#111E31"/>
<path d="M224.009 143.489C224.166 143.37 224.332 143.252 224.512 143.127C224.581 143.081 224.652 143.036 224.724 142.992C223.736 141.424 222.377 139.284 221.471 137.914C221.441 137.867 221.413 137.82 221.386 137.77L221.35 137.704C220.682 136.567 220.671 135.393 221.32 134.645C221.709 134.195 222.289 133.957 222.99 133.957C223.2 133.957 223.426 133.982 223.667 134.029C223.664 133.711 223.692 133.408 223.744 133.123C223.487 133.076 223.239 133.054 223.004 133.054C222.057 133.054 221.198 133.419 220.646 134.054C219.679 135.167 219.712 136.879 220.726 138.411C221.632 139.783 223.007 141.924 224.009 143.489Z" fill="#111E31"/>
<path d="M224.258 134.346C224.258 134.379 224.261 134.413 224.264 134.449C224.267 134.487 224.272 134.526 224.278 134.567L224.286 134.625C224.349 135.186 224.499 135.774 224.725 136.373L224.761 136.464C225.363 138.049 226.274 140.292 226.94 141.907C227.205 141.816 227.489 141.733 227.804 141.656C227.133 140.026 226.213 137.765 225.6 136.155L225.562 136.053C225.335 135.462 225.2 134.89 225.156 134.36C225.145 134.222 225.145 134.095 225.145 133.987C225.145 133.822 225.159 133.662 225.181 133.51L225.192 133.438C225.2 133.391 225.205 133.352 225.214 133.316C225.225 133.264 225.239 133.217 225.252 133.17L225.261 133.145C225.388 132.725 225.603 132.397 225.901 132.17C226.211 131.936 226.603 131.811 227.042 131.811C227.657 131.811 228.356 132.057 229.016 132.505V131.458C228.356 131.102 227.671 130.914 227.036 130.914C226.404 130.914 225.824 131.102 225.36 131.452C224.918 131.792 224.603 132.251 224.421 132.819C224.407 132.855 224.399 132.894 224.388 132.933L224.36 133.035C224.352 133.065 224.344 133.095 224.336 133.129C224.261 133.474 224.233 133.858 224.256 134.275L224.258 134.346Z" fill="#111E31"/>
<path d="M237.243 133.957C237.944 133.957 238.521 134.194 238.914 134.647C239.585 135.418 239.554 136.624 238.833 137.79C238.825 137.806 238.817 137.823 238.806 137.839C238.792 137.864 238.778 137.889 238.762 137.914C238.049 138.993 236.97 140.675 235.556 142.915C235.614 142.948 235.675 142.984 235.733 143.02C235.92 143.141 236.114 143.274 236.301 143.412C237.273 141.871 238.61 139.767 239.507 138.411C240.521 136.878 240.554 135.166 239.587 134.053C239.038 133.418 238.176 133.054 237.229 133.054C236.994 133.054 236.746 133.079 236.489 133.123C236.542 133.407 236.569 133.714 236.566 134.029C236.807 133.982 237.033 133.957 237.243 133.957Z" fill="#111E31"/>
<path d="M234.026 135.614C233.736 134.907 233.038 134.437 232.281 134.437C232.129 134.437 231.974 134.457 231.825 134.493C231.676 134.529 231.53 134.587 231.386 134.667V141.266C231.508 141.283 231.629 141.299 231.753 141.319C232.725 138.955 233.49 137.044 233.968 135.785C233.99 135.727 234.007 135.672 234.026 135.614Z" fill="#111E31"/>
<path d="M231.217 132.506C231.874 132.056 232.573 131.813 233.191 131.813C233.628 131.813 234.023 131.934 234.332 132.169C234.63 132.398 234.845 132.727 234.972 133.144L234.978 133.169C234.995 133.218 235.008 133.265 235.019 133.315C235.028 133.356 235.036 133.398 235.042 133.439L235.05 133.494C235.075 133.657 235.086 133.818 235.088 133.986C235.088 134.077 235.088 134.215 235.077 134.359C235.033 134.892 234.898 135.461 234.671 136.054L234.575 136.306C233.962 137.904 233.078 140.075 232.44 141.632C232.755 141.704 233.042 141.781 233.31 141.87C233.976 140.249 234.89 137.998 235.494 136.41L235.508 136.375C235.735 135.778 235.884 135.19 235.947 134.627L235.955 134.56C235.961 134.522 235.967 134.486 235.969 134.45C235.972 134.414 235.972 134.381 235.975 134.348L235.978 134.276C236 133.859 235.972 133.472 235.897 133.13C235.889 133.091 235.878 133.058 235.87 133.025L235.845 132.934C235.834 132.892 235.823 132.854 235.812 132.818C235.63 132.249 235.315 131.791 234.87 131.454C234.409 131.1 233.829 130.915 233.197 130.915C232.562 130.915 231.877 131.103 231.217 131.457V132.506Z" fill="#111E31"/>
<path d="M230.631 131.396C230.628 131.352 230.617 131.308 230.601 131.269C230.526 131.095 230.33 130.976 230.118 130.976C229.902 130.976 229.706 131.095 229.632 131.269C229.615 131.308 229.604 131.352 229.601 131.399L229.598 141.384C229.93 141.362 230.311 141.359 230.634 141.378L230.631 131.396Z" fill="#111E31"/>
<path d="M235.33 143.611C235.272 143.572 235.225 143.547 235.175 143.517L235.048 143.442C235.01 143.42 234.971 143.398 234.932 143.376L234.869 143.335C234.839 143.318 234.816 143.304 234.794 143.293C234.38 143.064 233.938 142.86 233.474 142.686L233.411 142.661C233.372 142.644 233.35 142.633 233.325 142.628L233.173 142.575C232.834 142.462 232.469 142.363 232.085 142.283L231.851 142.23C231.815 142.222 231.79 142.216 231.765 142.211C231.553 142.172 231.326 142.145 231.067 142.117L230.951 142.109C230.887 142.103 230.862 142.103 230.837 142.1C230.799 142.1 230.771 142.1 230.743 142.098L230.669 142.092C230.288 142.07 229.987 142.064 229.493 142.103L229.33 142.114C229.305 142.117 229.283 142.12 229.261 142.122C229.222 142.131 229.194 142.133 229.167 142.136C228.907 142.167 228.681 142.197 228.482 142.236C228.457 142.241 228.432 142.247 228.41 142.252L228.162 142.307C227.753 142.399 227.399 142.498 227.082 142.611L226.781 142.73C226.325 142.912 225.889 143.122 225.486 143.357L225.105 143.591C225.033 143.636 224.981 143.669 224.928 143.705C224.779 143.804 224.503 143.937 224.365 144.039L226.038 146.438C226.063 146.474 226.099 146.494 226.143 146.494C226.146 146.494 226.16 146.491 226.187 146.483C226.469 146.331 226.751 146.193 227.046 146.068L227.206 146.002C228.167 145.621 229.175 145.428 230.197 145.428C231.169 145.428 232.097 145.613 233.033 145.997L233.091 146.021C233.124 146.032 233.157 146.046 233.193 146.06C233.488 146.19 233.781 146.336 234.065 146.496C234.109 146.513 234.129 146.516 234.134 146.516C234.176 146.516 234.212 146.494 234.237 146.46L235.929 143.972C235.777 143.862 235.504 143.721 235.33 143.611Z" fill="#111E31"/>
<path d="M174.044 229.46C174.044 228.475 174.45 227.583 175.096 226.959C175.745 227.583 176.145 228.475 176.145 229.46C176.145 230.449 175.742 231.338 175.093 231.962C174.447 231.338 174.044 230.449 174.044 229.46ZM178.647 232.236C177.222 232.44 175.85 233.76 175.54 234.075C175.546 233.953 175.549 233.834 175.549 233.721C175.549 233.083 175.322 232.354 175.294 232.266C177.117 232.172 178.495 230.999 178.495 229.46C178.495 228.232 177.807 227.182 176.454 226.76C176.454 226.76 176.485 226.428 176.545 226.274C176.603 226.119 176.692 225.804 176.692 225.804C176.692 225.804 176.385 225.884 176.148 225.981C175.907 226.078 175.631 226.313 175.631 226.313C175.631 226.313 175.573 226.097 175.474 225.923C175.375 225.746 175.076 225.484 175.076 225.484C175.076 225.484 174.82 225.619 174.621 225.843C174.422 226.067 174.284 226.351 174.284 226.351C174.284 226.351 174.085 226.158 173.79 226.039C173.491 225.923 172.975 226.02 172.975 226.02C172.975 226.02 173.254 226.313 173.392 226.47C173.508 226.674 173.552 226.801 173.552 226.801C172.205 226.898 171.556 228.251 171.556 229.46C171.556 230.982 172.975 232.153 174.778 232.263C174.789 232.335 174.908 233.02 174.875 233.721C174.872 233.79 174.866 233.857 174.861 233.926C174.392 233.602 172.412 232.271 171.492 232.07C170.15 231.777 168.642 232.015 167.991 231.979C168.01 231.995 168.772 232.564 169.109 232.912C169.443 233.263 170.562 233.959 171.194 234.124C172.867 234.563 174.425 234.16 174.85 234.033C174.75 234.826 174.441 235.627 174.441 235.627C174.441 235.627 174.836 235.488 174.955 235.43C175.074 235.372 175.433 235.314 175.433 235.314C175.433 235.314 175.507 234.721 175.537 234.133C175.651 234.116 175.891 234.077 176.07 234.053C176.313 234.014 177.771 234.18 179.094 234.16C180.417 234.144 181.278 233.39 181.615 233.152C181.949 232.912 182.582 232.603 182.565 232.603C181.82 232.399 180.563 231.959 178.647 232.236Z" fill="#111E31"/>
<path d="M193.402 152.195C194.799 152.665 196.467 153.943 197.287 155.169C197.98 154.664 199.269 154.28 200.081 154.714C200.095 154.725 200.112 154.728 200.131 154.711C200.258 154.573 199.858 153.985 199.601 153.968C199.592 153.968 199.57 153.982 199.559 153.993C199.49 154.043 199.325 154.164 199.231 154.233C199.211 154.247 199.192 154.228 199.195 154.206C199.211 154.115 199.233 154.026 199.256 153.938C199.261 153.921 199.264 153.902 199.253 153.888C199.032 153.651 198.643 153.772 198.601 154.093C198.598 154.109 198.615 154.126 198.626 154.137C198.706 154.206 198.748 154.244 198.83 154.319C198.861 154.349 198.814 154.388 198.77 154.388C198.607 154.393 198.295 154.427 198.168 154.283C198.096 154.2 198.076 154.09 198.11 153.99C198.115 153.971 198.104 153.957 198.085 153.96C198.007 153.963 197.927 153.932 197.869 153.869C197.701 153.681 197.858 153.529 197.983 153.402C198.007 153.38 198.063 153.341 198.074 153.383C198.093 153.466 198.115 153.554 198.143 153.645C198.148 153.662 198.151 153.681 198.17 153.689C198.471 153.805 198.77 153.504 198.651 153.203C198.645 153.19 198.623 153.179 198.607 153.176C198.543 153.162 198.438 153.134 198.342 153.109C198.322 153.104 198.311 153.074 198.333 153.065C198.452 153.005 198.612 152.927 198.698 152.886C198.712 152.878 198.734 152.866 198.739 152.858C198.794 152.726 198.761 152.565 198.654 152.458C198.543 152.353 198.383 152.317 198.253 152.378C198.242 152.38 198.234 152.405 198.228 152.419C198.173 152.541 198.096 152.695 198.049 152.786C198.041 152.806 198.01 152.795 198.005 152.775C197.985 152.715 197.955 152.604 197.936 152.51C197.933 152.494 197.925 152.477 197.908 152.469C197.61 152.347 197.309 152.654 197.428 152.955C197.433 152.969 197.455 152.977 197.469 152.98C197.563 153.005 197.649 153.027 197.734 153.049C197.778 153.057 197.74 153.115 197.715 153.137C197.552 153.3 197.372 153.491 197.124 153.3C197.011 153.214 196.964 153.065 197 152.933C197.002 152.924 196.994 152.916 196.983 152.919C196.875 152.96 196.746 152.947 196.646 152.869C196.359 152.651 196.569 152.403 196.715 152.201C196.735 152.173 196.784 152.129 196.801 152.168C196.837 152.253 196.878 152.356 196.903 152.422C196.909 152.436 196.917 152.455 196.936 152.461C197.245 152.552 197.516 152.195 197.35 151.917C197.339 151.903 197.323 151.9 197.306 151.897C197.229 151.889 197.124 151.875 197.036 151.864C197.013 151.861 196.994 151.836 197.019 151.82C197.041 151.806 197.256 151.663 197.356 151.596C197.37 151.585 197.392 151.574 197.395 151.563C197.491 151.254 197.129 150.98 196.853 151.149C196.845 151.154 196.837 151.179 196.831 151.193C196.793 151.312 196.721 151.538 196.704 151.58C196.696 151.602 196.666 151.596 196.657 151.574C196.652 151.563 196.594 151.422 196.558 151.32C196.552 151.306 196.541 151.287 196.522 151.284C196.21 151.204 195.939 151.552 196.108 151.825C196.119 151.842 196.141 151.845 196.152 151.848C196.257 151.859 196.403 151.878 196.425 151.881C196.464 151.883 196.436 151.944 196.414 151.972C196.26 152.165 196.075 152.43 195.787 152.212C195.688 152.137 195.641 152.016 195.652 151.9C195.652 151.889 195.641 151.883 195.633 151.886C195.514 151.958 195.362 151.952 195.246 151.861C195 151.676 195.133 151.45 195.249 151.251C195.266 151.221 195.304 151.174 195.332 151.207C195.387 151.279 195.437 151.389 195.464 151.447C195.473 151.461 195.481 151.478 195.503 151.48C195.823 151.516 196.028 151.157 195.845 150.889C195.834 150.876 195.812 150.873 195.798 150.873C195.694 150.876 195.608 150.876 195.525 150.876C195.497 150.876 195.486 150.851 195.503 150.834C195.591 150.754 195.771 150.602 195.81 150.569C195.821 150.558 195.843 150.544 195.843 150.533C195.862 150.39 195.793 150.243 195.66 150.169C195.528 150.091 195.362 150.097 195.254 150.191C195.243 150.199 195.241 150.221 195.238 150.238C195.221 150.354 195.183 150.533 195.161 150.635C195.155 150.657 195.122 150.655 195.114 150.638C195.089 150.594 195.023 150.481 194.978 150.401C194.973 150.384 194.962 150.367 194.942 150.365C194.622 150.329 194.41 150.696 194.6 150.956C194.614 150.972 194.63 150.972 194.647 150.972C194.727 150.969 194.824 150.969 194.92 150.969C194.965 150.969 194.94 151.033 194.923 151.061C194.832 151.218 194.73 151.406 194.501 151.293C194.426 151.254 194.376 151.185 194.36 151.108C194.357 151.088 194.341 151.083 194.324 151.094C194.238 151.149 194.125 151.16 194.026 151.11C193.855 151.027 193.813 150.718 193.766 150.561C193.755 150.517 193.78 150.461 193.819 150.483C193.863 150.511 193.995 150.599 194.048 150.633C194.062 150.641 194.078 150.649 194.095 150.644C194.399 150.533 194.418 150.097 194.122 149.962C194.103 149.953 194.089 149.964 194.075 149.97C194.001 150.011 193.904 150.064 193.832 150.1C193.821 150.105 193.788 150.097 193.797 150.075C193.81 150.033 193.89 149.829 193.943 149.694C193.948 149.677 193.959 149.658 193.957 149.647C193.871 149.407 193.2 149.169 193.101 149.329C193.09 149.351 193.098 149.368 193.109 149.376C193.741 150.047 193.708 151.392 193.402 152.195Z" fill="#111E31"/>
<path d="M191.192 170.54C189.632 170.032 187.956 170.886 187.448 172.449C187.219 173.15 187.265 173.876 187.528 174.506C187.531 174.271 187.608 174 187.738 173.766C187.865 173.531 188.044 173.332 188.204 173.236C188.094 173.476 188.03 173.735 188.069 174.111C188.105 174.451 188.24 174.796 188.516 175.086C188.533 174.834 188.591 174.644 188.638 174.528C188.677 174.44 188.743 174.417 188.798 174.415C188.864 174.412 188.928 174.462 188.95 174.531C189.008 174.699 189.038 174.873 189.041 175.053C189.044 175.232 189.019 175.414 188.958 175.594C188.674 176.475 187.727 176.958 186.846 176.671C186.688 176.621 186.542 176.546 186.412 176.458C186.147 176.276 185.595 176.041 185.299 175.936C184.761 175.743 184.079 175.922 183.861 176.033C183.516 176.207 183.281 176.535 183.228 176.922C183.474 176.646 183.855 176.513 184.236 176.602C184.361 176.629 184.432 176.737 184.443 176.834C184.499 177.135 184.844 177.458 185.261 177.397C185.324 177.391 185.396 177.375 185.482 177.344C185.57 177.328 185.761 177.204 185.937 177.19C186.001 177.182 186.089 177.226 186.125 177.32C186.155 177.397 186.15 177.51 186.006 177.576C185.854 177.621 185.694 177.626 185.36 177.772C184.836 178.002 184.46 178.598 184.377 178.827C184.245 179.192 184.3 179.592 184.523 179.907C184.515 179.54 184.7 179.181 185.04 178.985C185.15 178.921 185.275 178.952 185.349 179.012C185.595 179.195 186.07 179.195 186.332 178.866C186.349 178.836 186.409 178.736 186.456 178.675C186.517 178.595 186.639 178.275 186.779 178.093C186.832 177.98 186.964 177.949 187.047 177.993C187.125 178.035 187.174 178.107 187.158 178.212C187.125 178.336 187.097 178.327 187.053 178.753C187.009 179.178 187.329 179.943 187.486 180.128C187.738 180.423 188.113 180.572 188.497 180.531C188.174 180.36 187.953 180.02 187.95 179.628C187.948 179.501 188.036 179.407 188.127 179.374C188.406 179.25 188.641 178.836 188.483 178.443C188.467 178.416 188.409 178.314 188.378 178.245C188.356 178.192 188.318 178.096 188.287 177.982C188.221 177.833 188.389 177.629 188.58 177.742C188.787 177.872 189.011 177.977 189.251 178.057C190.455 178.446 191.722 178.049 192.498 177.148C192.255 177.132 192.009 177.085 191.764 177.005C191.548 176.936 191.344 176.842 191.153 176.731C191.824 176.673 192.44 176.301 192.802 175.724C192.631 175.782 192.443 175.787 192.258 175.726C191.808 175.58 191.559 175.097 191.708 174.644C191.855 174.194 192.338 173.945 192.791 174.094C192.951 174.152 193.164 174.114 193.2 173.884C193.329 173.167 193.183 172.446 192.827 171.849C192.473 171.25 191.907 170.772 191.192 170.54Z" fill="#111E31"/>
<path d="M185.749 155.922C185.937 156.162 186.202 156.364 186.523 156.469C186.694 156.524 186.873 156.549 187.047 156.546L190.369 156.552C189.383 156.331 188.232 156.149 187.287 155.842C187.044 155.765 186.804 155.61 186.627 155.425C186.448 155.232 186.219 155.077 185.951 154.989C185.432 154.82 184.888 154.934 184.487 155.243C184.637 155.248 184.788 155.273 184.938 155.32C185.28 155.433 185.559 155.649 185.749 155.922Z" fill="#111E31"/>
<path d="M190.842 154.144V154.138V154.135V154.13V154.122V154.119V154.113V154.11H190.845V154.105V154.102V154.097V154.094L190.848 154.088V154.086V154.08L190.85 154.072V154.069V154.064V154.061L190.853 154.055V154.053L190.856 154.05V154.047V154.044L190.859 154.036L190.861 154.028L190.864 154.022V154.019L190.867 154.014L190.87 154.006L190.872 154L190.875 153.997L190.878 153.989L190.881 153.983L190.883 153.981L190.886 153.975L190.889 153.97L190.892 153.967V153.964L190.895 153.961V153.959L190.9 153.956V153.953L190.903 153.948L190.908 153.942L190.911 153.939L190.914 153.934V153.931L190.917 153.928L190.919 153.925L190.925 153.92L190.928 153.917L190.93 153.914L190.936 153.909L190.939 153.906L190.941 153.903L190.944 153.901L190.947 153.898L190.952 153.892L190.958 153.887L190.964 153.884V153.881H190.966L190.972 153.876L190.977 153.873V153.87L190.983 153.868L190.988 153.865L190.991 153.862L190.997 153.859L190.999 153.856L191.005 153.854L191.01 153.851L191.016 153.848L191.021 153.845L191.024 153.843H191.027L191.03 153.84H191.033L191.038 153.837L191.041 153.834L191.046 153.832L191.055 153.829H191.057L191.06 153.826H191.063L191.066 153.823H191.068H191.071L191.074 153.821H191.079H191.082L191.088 153.818H191.093V153.815H191.099C191.107 153.812 191.113 153.812 191.118 153.81H191.121C191.14 153.807 191.157 153.804 191.176 153.804C191.182 153.804 191.184 153.804 191.19 153.807H191.198H191.204H191.206H191.209H191.212H191.215H191.217L191.22 153.81H191.223H191.226H191.228H191.231H191.234L191.24 153.812H191.245H191.248L191.253 153.815H191.256L191.262 153.818H191.264H191.267H191.27L191.273 153.821H191.275L191.281 153.823H191.286L191.289 153.826H191.292H191.295V153.829H191.297H191.3L191.303 153.832H191.306H191.309V153.834H191.311H191.314V153.837H191.317H191.32L191.322 153.84L192.631 154.193C192.344 154.585 191.828 154.768 191.339 154.608C191.193 154.561 191.06 154.486 190.95 154.389V154.387C190.947 154.384 190.941 154.378 190.939 154.376L190.936 154.373H190.933L190.93 154.367C190.925 154.362 190.922 154.359 190.916 154.354L190.914 154.348C190.911 154.345 190.908 154.342 190.908 154.34L190.903 154.334L190.9 154.329L190.897 154.326V154.323C190.894 154.318 190.892 154.315 190.889 154.309H190.886V154.307L190.883 154.304L190.881 154.301L190.878 154.296C190.878 154.29 190.875 154.287 190.875 154.284L190.872 154.282C190.872 154.279 190.87 154.273 190.867 154.268L190.864 154.262V154.26L190.861 154.251L190.858 154.246L190.856 154.24V154.235L190.853 154.229V154.224L190.85 154.218V154.215V154.21L190.847 154.204V154.202V154.199V154.193H190.845V154.188V154.185V154.18V154.177L190.842 154.171V154.168V154.163V154.157V154.152V154.146V154.144ZM188.561 155.367C188.542 155.638 188.633 155.9 188.81 156.099C188.978 155.582 189.53 155.303 190.047 155.469C190.563 155.638 190.845 156.193 190.676 156.709C190.53 157.159 190.091 157.43 189.638 157.383C189.608 157.374 189.583 157.366 189.555 157.358C189.243 157.256 189.086 156.968 189.13 156.673C189.017 156.778 188.926 156.908 188.868 157.065C188.716 157.526 188.741 157.998 188.586 158.368C188.467 158.645 188.233 158.609 188.136 158.896C189.517 158.487 189.749 158.83 190.08 158.752C190.108 158.747 190.953 158.366 191.861 158.098C191.925 158.084 192.121 157.963 192.027 157.706C191.963 157.512 191.958 157.303 192.024 157.093C192.065 156.968 192.129 156.855 192.209 156.761C192.261 156.706 192.369 156.75 192.339 156.853C192.311 156.905 192.289 156.957 192.27 157.013C192.195 157.247 192.212 157.49 192.3 157.703C192.33 157.769 192.366 157.833 192.41 157.894C192.491 158.021 192.565 158.114 192.651 158.264C192.667 158.286 192.678 158.355 192.609 158.38C192.485 158.415 191.753 158.634 191.599 158.708C191.441 158.761 191.383 158.921 191.411 159.042C191.427 159.197 191.381 159.357 191.292 159.476C191.187 159.617 191.033 159.688 190.831 159.699C190.599 159.699 189.216 159.763 188.291 159.998C187.465 160.365 187.263 160.992 187.239 161.544C188.23 161.348 189.061 161.793 189.1 161.812L189.544 162.055L189.144 162.367C189.108 162.395 188.349 163.01 188.448 164.004C189.381 163.587 190.262 164.038 190.304 164.062L190.69 164.267L190.389 164.584C190.312 164.667 189.699 165.369 190.13 166.222C190.663 165.769 191.375 165.606 192.14 165.769L192.375 165.821L192.408 166.062C192.408 166.081 192.411 166.109 192.413 166.15C192.422 166.376 192.449 167.003 192.88 167.37C193.396 166.705 194.145 166.484 194.733 166.426C195.238 166.175 195.777 165.763 195.94 164.943C194.68 165.515 194.829 164.714 195.1 164.452C195.79 163.695 195.981 162.784 196.323 161.748C196.345 161.688 196.365 161.627 196.381 161.566C196.431 161.4 196.337 161.287 196.246 161.229C196.199 161.191 196.116 161.066 196 160.729C196.751 161.271 197.455 160.354 197.37 159.846C196.914 160.462 196.693 160.125 196.693 159.907C196.693 159.691 196.909 157.38 196.395 156.253C196.903 156.4 197.442 156.118 197.605 155.613C197.624 155.557 197.635 155.505 197.643 155.45C197.428 155.546 197.177 155.568 196.936 155.488C196.762 155.433 196.613 155.334 196.503 155.204C196.276 154.925 196.102 154.701 195.986 154.605C195.059 153.63 194.009 153.053 193.093 152.716C192.833 152.962 192.48 153.097 192.115 153.083L190.571 153.025C190.276 152.931 189.958 153.067 189.82 153.337C189.801 153.431 188.937 153.812 188.451 154.036C188.357 154.058 188.277 154.127 188.246 154.226C188.208 154.345 188.252 154.472 188.349 154.544C188.476 154.674 188.572 155.036 188.561 155.367Z" fill="#111E31"/>
<path d="M179.137 158.389C179.316 158.638 179.769 158.782 180.12 158.547C180.145 158.522 180.23 158.447 180.294 158.403C180.39 158.334 180.495 158.274 180.603 158.224L180.606 158.227C180.653 158.199 180.713 158.191 180.769 158.21C180.863 158.24 180.918 158.332 180.907 158.428H180.91C180.904 158.439 180.901 158.45 180.899 158.461C180.705 159.058 181.031 159.698 181.625 159.889C181.721 159.922 181.821 159.941 181.92 159.947C182.147 160.278 182.409 160.588 182.702 160.869C182.652 160.916 182.583 160.949 182.503 160.944C182.113 160.927 181.782 160.692 181.622 160.364C181.567 160.748 181.702 161.129 181.986 161.388C182.166 161.554 182.762 161.905 183.328 161.874C182.925 162.081 182.459 162.101 182.05 161.941C182.282 162.28 182.622 162.523 183.008 162.634H183.014C183.019 162.636 183.027 162.636 183.033 162.639C184.267 162.979 184.825 162.885 185.546 163.004C186.148 163.106 186.156 163.664 186.719 163.57C186.962 163.509 187.523 163.208 187.937 162.951C188.053 162.661 188.205 162.418 188.349 162.239C188.017 162.15 187.531 162.095 187.037 162.291L186.584 162.474V161.982C186.584 161.968 186.581 161.946 186.579 161.916C186.551 161.432 186.617 161.032 186.744 160.698C186.308 160.679 185.742 160.593 185.377 160.472C185.203 160.414 185.032 160.345 184.872 160.264C184.433 160.046 184.052 159.756 183.734 159.408L183.732 159.406C183.718 159.389 183.704 159.375 183.69 159.361V159.359C183.676 159.345 183.665 159.328 183.652 159.315L183.641 159.304C183.632 159.292 183.624 159.281 183.616 159.27L183.602 159.257C183.591 159.243 183.58 159.229 183.569 159.215L183.561 159.204C183.552 159.193 183.541 159.182 183.533 159.171L183.519 159.152L183.5 159.127C183.494 159.121 183.489 159.113 183.483 159.105C183.475 159.094 183.467 159.083 183.461 159.074C183.453 159.063 183.445 159.052 183.436 159.041L183.425 159.022C183.417 159.014 183.411 159.005 183.403 158.994L183.395 158.983C183.373 158.95 183.351 158.914 183.329 158.881L183.323 158.873C183.257 158.771 183.196 158.666 183.141 158.558C182.892 158.072 182.743 157.536 182.713 156.984C182.622 156.758 182.578 156.509 182.583 156.252C182.594 155.879 182.71 155.852 182.79 155.283C182.873 154.717 182.564 154.085 182.412 153.894C182.208 153.632 181.89 153.458 181.531 153.447C181.492 153.447 181.454 153.447 181.418 153.449C181.733 153.634 181.94 153.982 181.929 154.374C181.926 154.502 181.835 154.593 181.744 154.623C181.459 154.736 181.208 155.139 181.349 155.537C181.365 155.567 181.421 155.67 181.445 155.741C181.49 155.857 181.523 155.973 181.545 156.098C181.548 156.111 181.55 156.122 181.55 156.136C181.553 156.147 181.553 156.158 181.556 156.169H181.55C181.548 156.183 181.545 156.197 181.542 156.211C181.506 156.316 181.393 156.374 181.288 156.338C181.249 156.327 181.219 156.302 181.194 156.274C181.128 156.219 181.067 156.156 181.009 156.089C180.769 155.808 180.832 155.711 180.512 155.236C180.192 154.761 179.535 154.504 179.294 154.463C178.966 154.408 178.615 154.493 178.342 154.728C178.314 154.753 178.286 154.778 178.262 154.805C178.618 154.731 179.007 154.847 179.261 155.145C179.344 155.239 179.339 155.369 179.292 155.454C179.156 155.728 179.245 156.197 179.617 156.393C179.648 156.404 179.758 156.443 179.824 156.481C179.998 156.564 180.159 156.68 180.302 156.821L180.299 156.827C180.377 156.874 180.413 156.97 180.385 157.059C180.357 157.144 180.277 157.197 180.192 157.197V157.205C180.037 157.199 179.882 157.175 179.521 157.21C178.952 157.268 178.416 157.724 178.267 157.917C178.063 158.182 177.972 158.53 178.049 158.881C178.057 158.92 178.068 158.956 178.079 158.991C178.181 158.638 178.469 158.354 178.85 158.268C178.974 158.24 179.084 158.307 179.137 158.389Z" fill="#111E31"/>
<path d="M198.848 159.479C197.591 162.163 199.723 165.035 200.764 167.446C201.311 168.713 201.565 170.58 201.449 171.786C201.438 171.949 201.386 172.118 201.333 172.281C201.04 173.181 200.173 173.739 199.268 173.681C199.182 173.672 199.105 173.617 199.085 173.501C199.016 172.711 198.641 171.98 198.044 171.461C196.6 170.237 196.111 170.074 195.349 169.152C194.877 168.567 194.659 167.959 194.957 167.073C194.43 167.098 193.67 167.272 193.264 167.987L193.113 168.252L192.836 168.122C192.204 167.824 191.845 167.241 191.762 166.382C191.348 166.344 190.771 166.41 190.337 166.954L190.081 167.277L189.818 166.957C189.716 166.827 189.631 166.694 189.561 166.565L188.932 166.493C188.772 166.844 188.493 167.39 188.007 167.857C189.545 168.702 190.942 169.229 192.395 170.066C192.977 170.439 193.521 171.019 193.819 171.692C194.14 172.275 194.33 173.374 194.071 174.327C194.01 174.562 193.391 176.704 193.651 177.889C193.739 178.621 194.087 179.259 194.593 179.72C194.493 179.504 194.452 179.228 194.468 178.96C194.488 178.695 194.565 178.438 194.67 178.284C194.67 178.546 194.722 178.808 194.916 179.134C195.09 179.427 195.358 179.681 195.73 179.827C195.617 179.54 195.589 179.253 195.686 178.958C195.81 178.576 196.109 178.3 196.462 178.193C196.896 178.06 197.625 177.649 197.834 176.715C197.97 177.116 197.984 177.563 197.843 177.997C197.787 178.165 197.713 178.32 197.622 178.463C197.945 178.764 198.08 179.239 197.937 179.687C197.915 179.747 197.823 180.518 197.205 180.855C197.169 180.874 196.68 181.081 195.382 180.617C194.841 180.424 194.162 180.603 193.944 180.714C193.596 180.888 193.364 181.219 193.311 181.603C193.554 181.33 193.938 181.194 194.319 181.283C194.444 181.31 194.513 181.418 194.526 181.515C194.579 181.816 194.927 182.141 195.344 182.081C195.404 182.075 195.479 182.056 195.565 182.028C195.65 182.012 195.844 181.885 196.02 181.871C196.084 181.863 196.172 181.907 196.208 182.001C196.238 182.078 196.233 182.194 196.089 182.26C195.937 182.302 195.774 182.31 195.44 182.453C194.916 182.683 194.543 183.279 194.46 183.511C194.325 183.873 194.38 184.273 194.606 184.588C194.598 184.223 194.783 183.864 195.123 183.666C195.233 183.602 195.358 183.633 195.432 183.696C195.678 183.876 196.153 183.878 196.415 183.547C196.432 183.519 196.492 183.417 196.539 183.356C196.6 183.276 196.722 182.956 196.86 182.777C196.915 182.661 197.047 182.63 197.13 182.674C197.208 182.716 197.255 182.788 197.241 182.892C197.166 183.119 197.221 183.196 196.909 183.704C196.6 184.212 196.625 184.892 196.683 185.129C196.774 185.505 197.045 185.808 197.406 185.941C197.194 185.643 197.15 185.242 197.321 184.889C197.376 184.776 197.498 184.732 197.594 184.74C197.898 184.754 198.293 184.491 198.326 184.069C198.307 183.793 198.094 183.561 198.122 183.434C198.124 183.395 198.169 183.263 198.329 183.26C198.878 183.362 199.431 183.042 199.61 182.495C199.701 182.216 199.676 181.926 199.563 181.677C198.953 180.335 201.231 179.311 201.259 178.585C201.446 178.01 201.131 177.392 200.554 177.204C200.38 177.149 200.204 177.138 200.035 177.165C199.638 177.221 199.455 176.931 199.422 176.751C199.29 176.047 198.925 175.44 198.732 175.21C198.79 175.1 198.842 174.987 198.887 174.871C200.383 175.036 201.841 174.139 202.324 172.653C202.443 172.283 202.526 171.894 202.515 171.527C202.545 170.218 202.391 168.652 201.706 167.017C200.665 164.527 198.138 161.536 200.262 158.952C201.156 157.866 202.338 158.027 202.819 158.468C203.249 158.789 203.664 159.291 204.072 160.716C204.293 161.589 204.981 162.412 206.072 162.53C205.613 162.102 205.483 161.774 205.365 161.282C205.298 161.036 205.608 160.796 205.817 161.031C205.964 161.186 206.331 161.845 207.521 161.898C208.562 161.887 209.184 161.255 209.443 160.65C209.253 160.785 208.653 161.111 207.944 160.799C207.16 160.548 207.038 159.404 206.53 158.756C205.798 157.784 205.334 157.524 204.44 157.146C202.159 156.315 199.828 157.383 198.848 159.479Z" fill="#111E31"/>
<path d="M182.988 170.797C183.217 171.04 183.548 171.183 183.907 171.158C183.946 171.156 183.982 171.153 184.02 171.147C183.686 170.993 183.449 170.664 183.424 170.275C183.416 170.148 183.501 170.048 183.589 170.01C183.86 169.872 184.073 169.446 183.896 169.065C183.877 169.035 183.813 168.938 183.783 168.867C183.73 168.762 183.686 168.651 183.653 168.535H183.659C183.636 168.483 183.636 168.422 183.664 168.37C183.708 168.281 183.81 168.24 183.902 168.267V168.265C183.913 168.27 183.924 168.276 183.932 168.281H183.935C184.492 168.566 185.174 168.342 185.459 167.784C185.503 167.696 185.536 167.599 185.558 167.5C185.923 167.328 186.268 167.119 186.591 166.873C186.63 166.928 186.652 167 186.635 167.08C186.558 167.464 186.276 167.754 185.926 167.864C186.296 167.977 186.693 167.9 186.994 167.66C187.185 167.508 187.624 166.975 187.682 166.412C187.825 166.84 187.77 167.304 187.549 167.685C188.071 167.436 188.433 166.947 188.521 166.376C188.524 166.356 188.529 166.334 188.529 166.31C188.516 166.205 188.668 166.022 188.858 166.152C188.908 166.194 189.189 166.21 189.416 166.227C189.2 165.567 189.372 164.954 189.617 164.526C189.308 164.462 188.853 164.459 188.422 164.788L188.049 165.072L187.905 164.628C187.765 164.2 187.748 163.813 187.798 163.474C186.077 164.783 186.006 165.539 184.376 166.08C183.857 166.252 183.305 166.315 182.756 166.26C182.518 166.312 182.267 166.321 182.01 166.271C181.645 166.205 181.637 166.086 181.088 165.917C180.541 165.746 179.87 165.956 179.655 166.075C179.365 166.238 179.146 166.525 179.08 166.878C179.072 166.914 179.066 166.953 179.064 166.989C179.296 166.707 179.671 166.555 180.055 166.627C180.182 166.652 180.257 166.757 180.273 166.851C180.339 167.149 180.698 167.461 181.113 167.381C181.146 167.37 181.256 167.331 181.331 167.317C181.452 167.29 181.574 167.279 181.698 167.276C181.712 167.273 181.723 167.273 181.737 167.276C181.748 167.276 181.759 167.276 181.77 167.276V167.282C181.783 167.284 181.797 167.29 181.808 167.295C181.908 167.345 181.946 167.467 181.897 167.566C181.877 167.602 181.85 167.629 181.817 167.649H181.819C181.753 167.704 181.681 167.756 181.607 167.803C181.292 167.997 181.206 167.919 180.687 168.162C180.168 168.405 179.812 169.013 179.735 169.245C179.63 169.56 179.66 169.921 179.848 170.225C179.867 170.258 179.889 170.289 179.911 170.319C179.892 169.952 180.069 169.59 180.403 169.383C180.511 169.314 180.638 169.342 180.712 169.402C180.963 169.576 181.438 169.562 181.69 169.226C181.706 169.195 181.764 169.093 181.808 169.032C181.922 168.875 182.06 168.734 182.22 168.613L182.225 168.618C182.283 168.549 182.383 168.527 182.468 168.571C182.548 168.61 182.59 168.698 182.573 168.784H182.584C182.554 168.936 182.501 169.085 182.482 169.446C182.452 170.018 182.819 170.62 182.988 170.797Z" fill="#111E31"/>
<path d="M138.525 189.239H142.866V225.197C139.981 221.61 138.525 217.283 138.525 212.257V189.239ZM154.099 167.833V170.926H151.653V167.833C151.653 167.156 152.202 166.607 152.876 166.607C153.553 166.607 154.099 167.156 154.099 167.833ZM161.028 167.833V170.926H158.581V167.833C158.581 167.156 159.128 166.607 159.804 166.607C160.478 166.607 161.028 167.156 161.028 167.833ZM138.525 146.41H174.31V174.562C171.684 174.698 169.27 175.791 167.329 177.545H164.272V166.411H165.581V161.595H164.272V158.422H165.25V156.746V155.631H164.413V156.746H163.576V155.631H161.9V156.746H161.061V155.631H160.224V156.746V158.422H161.202V161.595H158.297V154.645H159.407V152.411V151.292H158.57V152.411H157.173V151.292H155.497V152.411H154.099V151.292H153.263V152.411V154.645H154.384V161.595H151.468V158.422H152.445V156.746V155.631H151.609V156.746H150.769V155.631H149.093V156.746H148.256V155.631H147.417V156.746V158.422H148.394V161.595H147.086V166.411H148.394V177.545H146V183.131H154.108V179.185C154.108 177.951 155.107 176.951 156.342 176.951C157.573 176.951 158.573 177.951 158.573 179.185V183.131H163.598C163.038 184.641 162.701 186.287 162.635 188.013H138.525V146.41ZM184.957 188.626C184.957 195.214 180.437 200.552 174.867 200.552C169.292 200.552 164.775 195.214 164.775 188.626C164.775 182.04 169.292 176.697 174.867 176.697C180.437 176.697 184.957 182.04 184.957 188.626ZM175.469 146.41H211.32V188.013H187.097C186.827 180.762 181.765 174.916 175.469 174.562V146.41ZM182.643 208.538C182.643 209.435 181.92 210.164 181.023 210.164C180.128 210.164 179.402 209.435 179.402 208.538C179.402 207.638 180.128 206.909 181.023 206.909C181.92 206.909 182.643 207.638 182.643 208.538ZM190.541 206.685C190.345 206.992 190.198 207.331 190.105 207.693H183.845C183.557 206.738 182.806 205.986 181.851 205.705V200.185C182.423 199.727 182.958 199.213 183.452 198.652L190.541 206.685ZM192.57 197.479V205.208C192.278 205.285 191.999 205.396 191.742 205.542L184.488 197.319C184.88 196.744 185.239 196.134 185.554 195.491H190.577C190.861 196.446 191.615 197.197 192.57 197.479ZM193.399 196.272C192.501 196.272 191.778 195.546 191.778 194.646C191.778 193.745 192.501 193.019 193.399 193.019C194.294 193.019 195.02 193.745 195.02 194.646C195.02 195.546 194.294 196.272 193.399 196.272ZM195.089 205.525C194.821 205.376 194.531 205.26 194.227 205.188V197.479C195.18 197.197 195.937 196.446 196.221 195.491H202.95C203.028 195.75 203.144 195.993 203.284 196.22L195.089 205.525ZM204.524 197.319C204.66 197.382 204.8 197.435 204.944 197.479V205.705C203.991 205.984 203.238 206.738 202.95 207.693H196.765C196.671 207.317 196.514 206.964 196.307 206.652L204.524 197.319ZM204.152 194.646C204.152 193.745 204.878 193.019 205.772 193.019C206.67 193.019 207.396 193.745 207.396 194.646C207.396 195.546 206.67 196.272 205.772 196.272C204.878 196.272 204.152 195.546 204.152 194.646ZM204.152 208.538C204.152 207.638 204.878 206.909 205.772 206.909C206.67 206.909 207.396 207.638 207.396 208.538C207.396 209.435 206.67 210.164 205.772 210.164C204.878 210.164 204.152 209.435 204.152 208.538ZM204.041 219.103C204.936 219.103 205.662 219.832 205.662 220.732C205.662 221.63 204.936 222.359 204.041 222.359C203.144 222.359 202.42 221.63 202.42 220.732C202.42 219.832 203.144 219.103 204.041 219.103ZM196.191 210.584C196.456 210.231 196.652 209.822 196.765 209.383H202.953C203.238 210.336 203.991 211.089 204.944 211.371V214.34C204.944 215.546 204.756 216.709 204.414 217.805C204.292 217.788 204.168 217.777 204.041 217.777C203.594 217.777 203.171 217.882 202.79 218.062L196.191 210.584ZM194.227 223.957V211.885C194.468 211.829 194.697 211.747 194.915 211.642L201.55 219.161C201.263 219.616 201.095 220.155 201.095 220.732C201.095 221.375 201.302 221.972 201.653 222.455C200.161 223.993 198.251 225.114 196.111 225.633C195.765 224.827 195.075 224.206 194.227 223.957ZM193.399 225.161C194.294 225.161 195.02 225.89 195.02 226.79C195.02 227.688 194.294 228.417 193.399 228.417C192.501 228.417 191.778 227.688 191.778 226.79C191.778 225.89 192.501 225.161 193.399 225.161ZM191.488 208.538C191.488 207.458 192.361 206.583 193.435 206.583C194.509 206.583 195.382 207.458 195.382 208.538C195.382 209.615 194.509 210.49 193.435 210.49C192.361 210.49 191.488 209.615 191.488 208.538ZM185.292 219.158L191.924 211.625C192.129 211.727 192.344 211.807 192.57 211.865V223.957C191.725 224.206 191.035 224.822 190.693 225.622C188.564 225.103 186.664 223.993 185.176 222.474C185.535 221.986 185.75 221.384 185.75 220.732C185.75 220.152 185.579 219.614 185.292 219.158ZM184.424 220.732C184.424 221.63 183.698 222.359 182.801 222.359C181.906 222.359 181.18 221.63 181.18 220.732C181.18 219.832 181.906 219.103 182.801 219.103C183.698 219.103 184.424 219.832 184.424 220.732ZM184.052 218.062C183.671 217.882 183.248 217.777 182.801 217.777C182.66 217.777 182.522 217.791 182.387 217.811C182.041 216.714 181.851 215.549 181.851 214.34V211.368C182.806 211.089 183.557 210.336 183.845 209.383H190.105C190.215 209.811 190.403 210.209 190.657 210.559L184.052 218.062ZM211.32 212.257C211.32 220.448 207.57 226.766 200.172 231.032C199.269 231.554 198.306 232.037 197.301 232.49C196.257 232.719 195.194 232.841 194.117 232.841C188.787 232.841 183.958 230.609 180.514 226.561C177.308 222.787 175.469 217.603 175.469 212.335V202.689C177.157 202.596 178.753 202.104 180.194 201.298V205.705C178.971 206.064 178.076 207.196 178.076 208.538C178.076 209.877 178.971 211.009 180.194 211.368V214.34C180.194 215.798 180.434 217.198 180.868 218.509C180.249 219.05 179.854 219.846 179.854 220.732C179.854 222.361 181.177 223.687 182.801 223.687C183.171 223.687 183.524 223.612 183.853 223.488C185.617 225.349 187.915 226.694 190.497 227.282C190.731 228.676 191.941 229.742 193.399 229.742C194.851 229.742 196.058 228.682 196.298 227.293C198.891 226.71 201.197 225.355 202.967 223.48C203.301 223.609 203.663 223.687 204.041 223.687C205.665 223.687 206.987 222.361 206.987 220.732C206.987 219.829 206.582 219.02 205.941 218.479C206.366 217.175 206.604 215.784 206.604 214.34V211.368C207.824 211.009 208.722 209.877 208.722 208.538C208.722 207.196 207.824 206.064 206.604 205.705V197.479C207.824 197.12 208.722 195.985 208.722 194.646C208.722 193.016 207.399 191.694 205.772 191.694C204.441 191.694 203.315 192.583 202.95 193.801H196.221C195.856 192.583 194.73 191.694 193.399 191.694C192.065 191.694 190.938 192.583 190.577 193.801H186.252C186.741 192.379 187.037 190.843 187.097 189.239H211.32V212.257ZM169.994 225.355V201.541C171.327 202.209 172.783 202.612 174.31 202.692V212.335C174.31 217.454 172.603 221.911 169.994 225.355ZM162.146 231.584V189.239H162.635C162.776 192.992 164.2 196.366 166.415 198.799V229.03C165.073 230.093 163.632 230.952 162.146 231.584ZM175 236.668C168.304 236.668 162.038 235.734 156.706 233.989C161.688 233.868 166.396 231.452 170.002 227.147C172.352 224.338 174.022 220.958 174.856 217.438C175.654 221.127 177.3 224.57 179.631 227.312C183.149 231.452 188.031 233.802 193.435 233.984C188.103 235.732 181.782 236.668 175 236.668ZM154.295 232.733V189.239H158.564V232.647C157.811 232.774 157.057 232.841 156.308 232.841C155.613 232.841 154.942 232.799 154.295 232.733ZM150.717 231.474C150.385 231.297 150.057 231.12 149.739 230.938C148.549 230.248 147.45 229.508 146.448 228.715V189.239H150.717V231.474ZM135.709 212.257C135.709 221.295 140.072 228.599 148.328 233.374C155.138 237.314 164.609 239.484 175 239.484C193.921 239.484 214.139 232.332 214.139 212.257V143.594H135.709V212.257Z" fill="#111E31"/>
<path d="M179.487 188.806H177.99H177.703L177.352 189.287C177.891 189.35 178.382 189.632 178.705 190.068L178.755 190.137L178.829 190.041C179.152 189.621 179.633 189.35 180.158 189.29L180.182 189.287L179.801 188.806H179.487Z" fill="#111E31"/>
<path d="M176.385 186.979C176.515 186.681 176.811 186.515 177.161 186.515C177.565 186.515 177.957 186.791 178.062 187.159H179.442C179.542 186.791 179.914 186.515 180.315 186.515C180.666 186.515 180.964 186.681 181.094 186.979L181.477 186.173C181.56 186.013 181.668 185.723 181.668 185.532C181.668 184.889 181.141 184.367 180.486 184.367C179.995 184.367 179.575 184.665 179.398 185.085C179.395 185.093 179.393 185.096 179.39 185.101C179.384 185.112 179.379 185.126 179.373 185.137C179.373 185.14 179.37 185.143 179.37 185.143C179.379 185.123 179.39 185.107 179.398 185.085C179.492 184.869 179.823 184.035 179.823 183.061C179.823 181.923 178.727 180.7 178.727 180.7C178.727 180.7 177.653 181.923 177.653 183.061C177.653 184.035 177.987 184.869 178.081 185.085C178.081 185.088 178.081 185.088 178.081 185.088C178.097 185.121 178.106 185.14 178.106 185.14C178.106 185.143 178.106 185.143 178.106 185.143C178.106 185.143 178.097 185.123 178.081 185.085C177.904 184.665 177.484 184.367 176.993 184.367C176.339 184.367 175.808 184.889 175.808 185.532C175.808 185.723 175.919 186.013 176.002 186.173L176.385 186.979Z" fill="#111E31"/>
<path d="M180.445 187.556H177.032H177.019V188.409H177.991H179.487H180.459V187.556H180.445Z" fill="#111E31"/>
<path d="M169.244 184.366C168.59 184.366 168.063 184.888 168.063 185.532C168.063 185.722 168.17 186.012 168.253 186.172L168.637 186.978C168.767 186.68 169.065 186.515 169.416 186.515C169.816 186.515 170.211 186.791 170.313 187.158H171.694C171.793 186.791 172.166 186.515 172.566 186.515C172.92 186.515 173.215 186.68 173.345 186.978L173.729 186.172C173.812 186.012 173.919 185.722 173.919 185.532C173.919 184.888 173.392 184.366 172.738 184.366C172.246 184.366 171.826 184.664 171.65 185.087C171.647 185.09 171.647 185.09 171.647 185.092C171.639 185.109 171.63 185.126 171.625 185.142V185.145C171.63 185.123 171.641 185.106 171.65 185.087C171.743 184.869 172.078 184.035 172.078 183.06C172.078 181.922 170.979 180.699 170.979 180.699C170.979 180.699 169.904 181.922 169.904 183.06C169.904 184.035 170.239 184.869 170.332 185.087C170.341 185.106 170.352 185.123 170.36 185.145L170.357 185.142C170.352 185.126 170.343 185.112 170.338 185.095C170.335 185.092 170.335 185.09 170.332 185.087C170.156 184.664 169.736 184.366 169.244 184.366Z" fill="#111E31"/>
<path d="M170.244 188.408H171.74H172.71V187.555H172.699H169.286H169.272V188.408H170.244Z" fill="#111E31"/>
<path d="M172.434 189.286L172.053 188.806H171.738H170.244H169.954L169.603 189.286C170.144 189.35 170.633 189.631 170.956 190.068L171.006 190.137L171.083 190.04C171.406 189.623 171.884 189.35 172.412 189.289L172.434 189.286Z" fill="#111E31"/>
<path d="M174.207 192.753C174.21 192.761 174.213 192.767 174.218 192.775C174.224 192.789 174.226 192.797 174.229 192.802C174.229 192.805 174.232 192.808 174.232 192.811C174.232 192.811 174.224 192.789 174.207 192.753C174.03 192.33 173.611 192.032 173.119 192.032C172.465 192.032 171.935 192.554 171.935 193.197C171.935 193.391 172.045 193.678 172.125 193.838L172.512 194.647C172.641 194.349 172.937 194.18 173.288 194.18C173.691 194.18 174.083 194.457 174.188 194.827H175.568C175.668 194.457 176.041 194.18 176.441 194.18C176.792 194.18 177.09 194.349 177.22 194.647L177.604 193.838C177.686 193.678 177.794 193.391 177.794 193.197C177.794 192.554 177.267 192.032 176.612 192.032C176.121 192.032 175.701 192.33 175.522 192.753C175.516 192.767 175.513 192.775 175.508 192.786C175.508 192.789 175.505 192.794 175.502 192.8C175.499 192.805 175.497 192.811 175.497 192.811C175.505 192.791 175.516 192.772 175.522 192.753C175.618 192.535 175.95 191.701 175.95 190.726C175.95 189.588 174.853 188.368 174.853 188.368C174.853 188.368 173.779 189.588 173.779 190.726C173.779 191.701 174.113 192.535 174.207 192.753Z" fill="#111E31"/>
<path d="M175.613 196.473H174.116H173.829L173.478 196.953C174.017 197.017 174.508 197.298 174.831 197.737L174.881 197.804L174.956 197.707C175.279 197.287 175.759 197.017 176.284 196.956L176.309 196.953L175.928 196.473H175.613Z" fill="#111E31"/>
<path d="M173.159 195.224H173.146V196.077H174.118H175.614H176.586V195.224H176.572H173.159Z" fill="#111E31"/>
<path d="M125.895 149.766C125.895 149.341 125.55 148.993 125.125 148.993H114.878C114.452 148.993 114.11 149.341 114.11 149.766C114.11 150.07 114.284 150.329 114.535 150.456C114.527 150.453 114.519 150.451 114.513 150.448C114.947 150.672 115.284 151.296 115.284 152.008C115.284 152.72 114.971 153.32 114.543 153.546C114.549 153.543 114.555 153.543 114.56 153.541C114.298 153.684 114.115 153.999 114.115 154.363C114.115 154.869 114.461 155.277 114.886 155.277H125.125C125.55 155.277 125.895 154.869 125.895 154.363C125.895 153.991 125.708 153.67 125.437 153.53C125.437 153.527 125.437 153.527 125.437 153.527C124.99 153.314 124.705 152.662 124.705 152.008C124.705 151.331 124.951 150.691 125.401 150.489L125.398 150.486C125.688 150.376 125.895 150.097 125.895 149.766Z" fill="#111E31"/>
<path d="M112.508 226.952H127.408V222.719H112.508V226.952Z" fill="#111E31"/>
<path d="M118.721 168.192C120.383 167.954 122.493 167.813 124.73 167.786V156.624H115.275V168.852C116.393 168.581 117.547 168.357 118.721 168.192Z" fill="#111E31"/>
<path d="M124.341 196.059C121.18 197.787 118.04 199.317 115.273 200.482V216.197C115.273 218.221 114.884 219.643 114.323 220.535C114.133 220.842 114.323 221.259 114.654 221.259H125.393C125.719 221.259 125.852 220.853 125.647 220.535C125.079 219.646 124.731 218.318 124.731 216.197V195.843C124.598 195.918 124.466 195.99 124.341 196.059Z" fill="#111E31"/>
<path d="M125.933 181.865V186.786C127.538 185.748 128.783 184.635 129.609 183.817L130.216 183.215C129.404 182.555 127.626 181.976 125.933 181.865Z" fill="#111E31"/>
<path d="M130.903 230.535C130.066 230.709 128.802 230.971 127.559 230.74C126.526 230.546 125.684 230.226 124.869 229.917C123.591 229.431 122.271 228.928 120.299 228.928C118.259 228.928 116.919 229.436 115.624 229.925C114.81 230.231 113.965 230.552 112.924 230.745C111.714 230.969 110.541 230.726 109.685 230.549C109.276 230.466 108.95 230.397 108.685 230.397V231.888C108.798 231.888 109.11 231.955 109.384 232.01C110.03 232.145 110.911 232.325 111.897 232.325C112.314 232.325 112.75 232.294 113.194 232.211C114.368 231.993 115.274 231.651 116.152 231.319C117.375 230.858 118.532 230.419 120.299 230.419C121.998 230.419 123.083 230.833 124.339 231.311C125.215 231.643 126.12 231.988 127.286 232.206C128.815 232.49 130.312 232.181 131.207 231.996C131.433 231.949 131.715 231.891 131.8 231.888L131.798 230.397C131.571 230.397 131.29 230.455 130.903 230.535Z" fill="#111E31"/>
<path d="M130.904 233.922C130.067 234.093 128.802 234.358 127.56 234.124C126.524 233.93 125.682 233.61 124.867 233.301C123.591 232.817 122.272 232.315 120.3 232.315C118.259 232.315 116.92 232.82 115.625 233.309C114.81 233.618 113.965 233.936 112.924 234.129C111.715 234.355 110.541 234.112 109.685 233.936C109.277 233.85 108.951 233.784 108.686 233.784V235.275C108.799 235.275 109.111 235.339 109.384 235.397C110.031 235.529 110.911 235.711 111.897 235.711C112.314 235.711 112.75 235.678 113.195 235.595C114.369 235.377 115.274 235.035 116.152 234.706C117.376 234.242 118.533 233.806 120.3 233.806C121.998 233.806 123.083 234.217 124.34 234.695C125.215 235.029 126.121 235.372 127.286 235.59C128.816 235.877 130.313 235.568 131.207 235.383C131.434 235.336 131.715 235.275 131.801 235.275L131.798 233.784C131.572 233.784 131.29 233.842 130.904 233.922Z" fill="#111E31"/>
<path d="M130.903 237.074C130.066 237.248 128.802 237.511 127.559 237.279C126.523 237.085 125.681 236.765 124.869 236.456C123.591 235.97 122.271 235.467 120.299 235.467C118.259 235.467 116.919 235.975 115.624 236.464C114.81 236.771 113.965 237.091 112.924 237.284C111.714 237.508 110.541 237.265 109.685 237.088C109.276 237.003 108.95 236.936 108.685 236.936V238.427C108.798 238.427 109.11 238.494 109.384 238.549C110.03 238.684 110.911 238.864 111.897 238.864C112.314 238.864 112.75 238.833 113.197 238.748C114.368 238.532 115.274 238.19 116.152 237.859C117.375 237.397 118.532 236.958 120.299 236.958C121.998 236.958 123.083 237.373 124.339 237.85C125.215 238.182 126.12 238.527 127.286 238.745C128.815 239.029 130.312 238.72 131.207 238.535C131.433 238.488 131.715 238.43 131.8 238.427L131.798 236.936C131.571 236.936 131.29 236.994 130.903 237.074Z" fill="#111E31"/>
<path d="M124.73 177.275C123.319 177.311 121.933 177.408 120.668 177.565C118.707 177.808 116.885 178.242 115.275 178.783V192.236C117.699 191.248 120.466 189.864 123.25 188.238C123.722 187.962 124.222 187.658 124.73 187.343V177.275Z" fill="#111E31"/>
<path d="M111.282 199.578C111.185 199.978 111.097 200.354 111.017 200.691C118.668 198.156 130.476 191.332 131.197 190.007L130.542 184.758C129.203 186.086 126.334 187.969 123.918 189.383C119.698 191.849 115.537 193.754 112.436 194.643C112.21 195.712 111.699 197.838 111.282 199.578Z" fill="#111E31"/>
<path d="M112.546 172.923L112.162 173.072L112.786 174.624C112.924 174.563 113.057 174.5 113.173 174.428C113.645 174.105 113.559 173.663 113.465 173.428C113.291 172.995 112.905 172.782 112.546 172.923Z" fill="#111E31"/>
<path d="M126.031 174.54C126.139 174.3 126.263 174.021 126.34 173.734L126.357 173.667L126.644 173.689L126.652 173.753C126.721 174.175 127.089 174.468 127.613 174.518C128.036 174.559 128.483 174.41 128.525 173.99C128.563 173.568 128.138 173.358 127.641 173.112C126.998 172.795 126.269 172.43 126.36 171.494C126.429 170.76 127.094 170.08 128.428 170.202C128.983 170.251 129.516 170.472 129.712 170.657L129.759 170.702L129.726 170.76C129.607 170.964 129.505 171.179 129.411 171.384L129.386 171.436L129.154 171.417L129.138 171.367C129.013 171.008 128.74 170.798 128.345 170.76C127.818 170.71 127.528 170.876 127.492 171.254C127.462 171.585 127.873 171.801 128.351 172.052C128.994 172.391 129.795 172.811 129.707 173.725C129.629 174.54 128.801 175.076 127.691 175.076C127.583 175.076 127.473 175.073 127.359 175.062C126.862 175.015 126.401 174.866 126.062 174.645L126.001 174.603L126.031 174.54ZM124.888 170.729C124.311 172.104 123.717 173.529 123.228 174.973L123.209 175.026L122.422 175.089L122.394 175.042C121.685 173.711 120.887 172.322 119.882 170.663L119.807 170.541L119.951 170.539C120.183 170.533 121.124 170.456 121.351 170.425L121.411 170.417L121.436 170.475C121.768 171.21 122.179 171.947 122.577 172.657C122.731 172.933 122.883 173.209 123.035 173.485C123.4 172.574 123.844 171.414 124.195 170.251L124.214 170.191L124.278 170.193C124.396 170.199 124.88 170.16 124.996 170.135L125.148 170.108L124.888 170.729ZM116.913 175.97L116.894 175.89L115.872 171.378L116.099 171.345C116.248 171.323 116.402 171.301 116.549 171.268C116.695 171.237 116.841 171.193 116.982 171.149L117.209 171.085L117.228 171.171L118.109 175.045C118.752 174.899 119.293 174.733 119.793 174.578L119.879 174.551L120.045 175.277L116.913 175.97ZM114.759 173.833C114.549 174.316 114 174.714 112.984 175.12L113.732 176.984L112.459 177.481L110.689 173.085L112.605 172.336C113.989 171.792 114.525 172.292 114.729 172.803C114.881 173.178 114.892 173.526 114.759 173.833ZM118.907 169.503C112.144 170.464 107.041 173.132 105.492 175.272C105.108 175.802 104.948 176.282 105.014 176.707C105.136 177.061 106.398 179.911 107.469 182.31C107.563 182.128 107.679 181.943 107.817 181.758C109.665 179.251 115.002 176.934 120.506 176.249C122.237 176.036 124.095 175.932 125.918 175.932C129.397 175.932 132.418 176.183 134.445 176.851V169.859C132.678 169.299 129.309 169.105 125.578 169.105C123.209 169.105 120.823 169.233 118.907 169.503Z" fill="#111E31"/>
<path d="M114.071 186.461V180.361C113.276 180.359 112.599 180.287 111.926 180.207C110.49 180.977 109.432 181.8 108.883 182.543C108.789 182.673 108.709 182.8 108.648 182.918L108.242 183.703C108.245 183.733 108.245 183.761 108.25 183.791C108.512 185.266 110.677 186.207 114.071 186.461Z" fill="#111E31"/>
<path d="M121.273 141.153C121.375 141.166 121.477 141.18 121.576 141.197C121.902 140.247 122.234 139.283 122.41 138.767C122.866 137.427 123.926 135.351 125.409 133.898C125.451 133.863 125.481 133.838 125.506 133.818V133.81C125.506 132.371 124.341 131.198 122.905 131.198C122.311 131.198 121.734 131.405 121.273 131.778V141.153Z" fill="#111E31"/>
<path d="M122.476 141.379C122.849 141.47 123.216 141.584 123.573 141.713C123.959 140.587 124.219 139.833 124.362 139.405C124.859 137.928 125.779 135.901 127.35 134.517C127.201 134.481 126.994 134.451 126.732 134.451C126.632 134.451 126.536 134.454 126.447 134.462C126.312 134.481 126.174 134.512 126.039 134.553C124.677 135.89 123.697 137.817 123.272 139.062C123.1 139.559 122.788 140.468 122.476 141.379Z" fill="#111E31"/>
<path d="M124.416 142.059C125.051 142.349 125.661 142.708 126.238 143.119C127.318 141.46 128.688 139.27 129.193 138.091L129.218 138.033C129.345 137.704 129.408 137.384 129.408 137.053C129.408 136.197 128.994 135.401 128.301 134.912L128.157 135.028C126.617 136.271 125.711 138.254 125.225 139.698C125.023 140.286 124.642 141.399 124.416 142.059Z" fill="#111E31"/>
<path d="M117.197 138.754C117.366 139.248 117.678 140.154 117.99 141.065L118.017 141.151C118.098 141.137 118.175 141.126 118.255 141.115V131.798C117.802 131.439 117.239 131.24 116.662 131.24C115.256 131.24 114.11 132.384 114.102 133.797C114.118 133.808 114.135 133.822 114.152 133.836C115.67 135.322 116.739 137.409 117.197 138.754Z" fill="#111E31"/>
<path d="M110.372 138.084C110.881 139.269 112.25 141.461 113.33 143.118C113.907 142.706 114.517 142.35 115.152 142.058C114.926 141.398 114.542 140.285 114.343 139.697C113.857 138.252 112.952 136.27 111.411 135.03L111.267 134.914C110.563 135.419 110.16 136.206 110.16 137.051C110.16 137.38 110.223 137.703 110.345 138.015L110.372 138.084Z" fill="#111E31"/>
<path d="M119.272 130.16L119.327 130.141C119.62 130.036 119.94 130.036 120.233 130.141L120.288 130.16V129.03H121.451V128.009H120.288V126.689H119.272V128.009H118.109V129.03H119.272V130.16Z" fill="#111E31"/>
<path d="M120.363 131.43C120.363 131.107 120.1 130.844 119.78 130.844C119.46 130.844 119.197 131.107 119.197 131.43V141.081C119.587 141.056 119.971 141.053 120.363 141.072V131.43Z" fill="#111E31"/>
<path d="M113.689 143.938L115.396 146.534C115.459 146.631 115.567 146.683 115.677 146.683C115.733 146.683 115.791 146.669 115.84 146.642C117.075 145.968 118.466 145.612 119.864 145.612C121.266 145.612 122.608 145.951 123.851 146.622C124.011 146.708 124.215 146.653 124.304 146.501L125.853 143.85L125.872 143.817L125.842 143.795C124.08 142.516 122.015 141.842 119.864 141.842C117.638 141.842 115.514 142.558 113.72 143.916L113.689 143.938Z" fill="#111E31"/>
<path d="M115.246 139.392C115.411 139.883 115.712 140.767 116.021 141.659C116.353 141.54 116.692 141.435 117.038 141.35C116.728 140.447 116.425 139.563 116.256 139.074C115.836 137.84 114.864 135.929 113.509 134.595C113.379 134.551 113.241 134.521 113.105 134.501C113.036 134.496 112.943 134.493 112.835 134.493C112.619 134.493 112.443 134.513 112.305 134.54C113.846 135.929 114.751 137.931 115.246 139.392Z" fill="#111E31"/>
<path d="M36.0059 165.12C39.6059 166.5 41.7959 168.89 42.5759 172.29C42.5759 172.31 42.5859 172.35 42.6059 172.41V172.53C42.6059 172.55 42.6159 172.61 42.6359 172.71C42.6359 172.87 42.6459 172.98 42.6659 173.04V173.97C42.6659 175.41 42.4059 176.83 41.8859 178.23C41.3659 179.63 40.5459 180.85 39.4259 181.89L36.8159 184.32H36.2759C35.8959 184.32 35.4659 184.18 34.9859 183.9C34.6259 183.7 34.2359 183.44 33.8159 183.12C33.7559 183.08 33.6859 183.02 33.6059 182.94C33.5859 182.92 33.5559 182.89 33.5159 182.85C33.4759 182.81 33.4359 182.78 33.3959 182.76C33.3559 182.74 33.3059 182.7 33.2459 182.64C33.2059 182.58 33.1359 182.52 33.0359 182.46C32.0759 181.64 31.3059 180.63 30.7259 179.43C30.1659 178.23 29.8859 177 29.8859 175.74V175.47C29.8859 175.55 29.9059 175.21 29.9459 174.45C29.9459 174.27 29.9659 174.09 30.0059 173.91C30.0259 173.79 30.0559 173.62 30.0959 173.4C30.1959 172.9 30.3659 172.32 30.6059 171.66C30.7459 171.28 30.9759 170.73 31.2959 170.01C32.4159 168.11 33.9859 166.5 36.0059 165.18V165.12ZM34.0259 167.91C32.7059 169.81 32.0459 172.04 32.0459 174.6L33.2159 177.75C33.2759 177.89 33.3459 178.04 33.4259 178.2C33.5259 178.36 33.6259 178.49 33.7259 178.59C34.2859 179.39 34.9959 180.12 35.8559 180.78C36.7159 181.44 37.6359 181.77 38.6159 181.77C38.6159 181.73 38.6259 181.7 38.6459 181.68C38.6859 181.64 38.7159 181.6 38.7359 181.56C38.8359 181.46 38.8959 181.38 38.9159 181.32C40.0359 179.6 40.5959 178.08 40.5959 176.76V176.46C40.5759 176.44 40.5659 176.4 40.5659 176.34V176.07C40.5659 174.45 39.9359 172.72 38.6759 170.88C37.5759 169.26 36.0259 168.29 34.0259 167.97V167.91Z" fill="#111E31"/>
<path d="M19.82 165L26.51 169.2V169.5C26.51 169.62 26.52 169.71 26.54 169.77V170.16C26.54 170.2 26.55 170.25 26.57 170.31V170.43C26.57 172.71 25.39 174.76 23.03 176.58L18.83 179.13C17.63 179.85 16.68 180.77 15.98 181.89C16.6 181.61 17.35 181.35 18.23 181.11C19.01 180.89 19.8 180.74 20.6 180.66C20.72 180.66 20.82 180.65 20.9 180.63H21.2C21.32 180.63 21.42 180.62 21.5 180.6H22.19C22.19 180.6 22.32 180.61 22.58 180.63C23.1 180.67 23.36 180.69 23.36 180.69C23.48 180.69 23.63 180.71 23.81 180.75C24.01 180.79 24.16 180.82 24.26 180.84C24.26 180.84 24.54 180.92 25.1 181.08C25.66 181.24 26.23 181.45 26.81 181.71L24.47 184.44L21.56 183.45L18.08 183.33C17.96 183.37 17.62 183.46 17.06 183.6C16.82 183.66 16.65 183.69 16.55 183.69C16.55 183.69 16.38 183.73 16.04 183.81C15.9 183.85 15.56 183.94 15.02 184.08C14.86 184.14 14.63 184.19 14.33 184.23C14.29 184.25 14.23 184.27 14.15 184.29C14.09 184.31 14.04 184.32 14 184.32C14.24 182.88 14.82 181.64 15.74 180.6C16.66 179.56 17.62 178.58 18.62 177.66C18.62 177.66 18.65 177.63 18.71 177.57L18.8 177.48C19.3 177.02 20.02 176.32 20.96 175.38C21.66 174.64 22.25 173.84 22.73 172.98C22.77 172.92 22.81 172.82 22.85 172.68C22.85 172.72 22.89 172.63 22.97 172.41C23.05 172.17 23.1 171.94 23.12 171.72C23.12 171.6 23.14 171.44 23.18 171.24C23.18 171.14 23.19 171.06 23.21 171V170.61C23.19 170.59 23.18 170.54 23.18 170.46V170.1C23.1 169.6 22.93 169.09 22.67 168.57C22.41 168.05 22.06 167.66 21.62 167.4L16.4 171.48H16.22L14.48 169.77L14.42 169.32L19.82 165Z" fill="#111E31"/>
<path d="M330.506 165C331.726 165.82 332.516 166.76 332.876 167.82V175.83H335.576L336.146 178.05H332.936V181.29L334.166 181.98L335.156 181.23C335.176 181.29 335.196 181.34 335.216 181.38C335.236 181.42 335.266 181.47 335.306 181.53C335.366 181.57 335.396 181.65 335.396 181.77L332.306 184.44L328.946 182.28C329.346 182 329.606 181.63 329.726 181.17C329.866 180.69 329.936 180.23 329.936 179.79V178.14H323.576L322.766 175.71L330.506 165ZM329.336 168.15L323.756 175.83H329.876V168.78L329.336 168.15Z" fill="#111E31"/>
<path d="M312.82 165L319.51 169.2V169.5C319.51 169.62 319.52 169.71 319.54 169.77V170.16C319.54 170.2 319.55 170.25 319.57 170.31V170.43C319.57 172.71 318.39 174.76 316.03 176.58L311.83 179.13C310.63 179.85 309.68 180.77 308.98 181.89C309.6 181.61 310.35 181.35 311.23 181.11C312.01 180.89 312.8 180.74 313.6 180.66C313.72 180.66 313.82 180.65 313.9 180.63H314.2C314.32 180.63 314.42 180.62 314.5 180.6H315.19C315.19 180.6 315.32 180.61 315.58 180.63C316.1 180.67 316.36 180.69 316.36 180.69C316.48 180.69 316.63 180.71 316.81 180.75C317.01 180.79 317.16 180.82 317.26 180.84C317.26 180.84 317.54 180.92 318.1 181.08C318.66 181.24 319.23 181.45 319.81 181.71L317.47 184.44L314.56 183.45L311.08 183.33C310.96 183.37 310.62 183.46 310.06 183.6C309.82 183.66 309.65 183.69 309.55 183.69C309.55 183.69 309.38 183.73 309.04 183.81C308.9 183.85 308.56 183.94 308.02 184.08C307.86 184.14 307.63 184.19 307.33 184.23C307.29 184.25 307.23 184.27 307.15 184.29C307.09 184.31 307.04 184.32 307 184.32C307.24 182.88 307.82 181.64 308.74 180.6C309.66 179.56 310.62 178.58 311.62 177.66C311.62 177.66 311.65 177.63 311.71 177.57L311.8 177.48C312.3 177.02 313.02 176.32 313.96 175.38C314.66 174.64 315.25 173.84 315.73 172.98C315.77 172.92 315.81 172.82 315.85 172.68C315.85 172.72 315.89 172.63 315.97 172.41C316.05 172.17 316.1 171.94 316.12 171.72C316.12 171.6 316.14 171.44 316.18 171.24C316.18 171.14 316.19 171.06 316.21 171V170.61C316.19 170.59 316.18 170.54 316.18 170.46V170.1C316.1 169.6 315.93 169.09 315.67 168.57C315.41 168.05 315.06 167.66 314.62 167.4L309.4 171.48H309.22L307.48 169.77L307.42 169.32L312.82 165Z" fill="#111E31"/>
<path d="M256.654 41.3551L260.867 43.7778L250.398 61.9824L246.185 59.5596L256.654 41.3551ZM237.915 54.8037L233.702 52.381L244.17 34.1765L248.383 36.5992L237.915 54.8037ZM250.789 52.2752L241.895 47.1604L243.944 43.5975L252.838 48.7123L250.789 52.2752Z" fill="#111E31"/>
<path d="M216.299 45.817C214.711 45.2689 213.261 44.5358 211.949 43.6175C210.643 42.6803 209.663 41.7181 209.01 40.7309L211.763 37.8093C212.405 38.7079 213.234 39.5547 214.251 40.3496C215.292 41.1322 216.409 41.7291 217.6 42.1401C218.507 42.4532 219.264 42.6193 219.871 42.6383C220.504 42.645 221.008 42.5333 221.383 42.3032C221.759 42.0732 222.019 41.7502 222.162 41.3342C222.345 40.8049 222.28 40.3172 221.969 39.8711C221.664 39.4062 221.204 38.9618 220.588 38.5379C219.979 38.095 219.288 37.645 218.515 37.1878C217.768 36.7182 217.023 36.2076 216.283 35.6558C215.561 35.1106 214.932 34.5126 214.395 33.8618C213.858 33.211 213.489 32.4703 213.289 31.6396C213.108 30.8155 213.2 29.874 213.566 28.8153C213.957 27.6809 214.615 26.7549 215.54 26.0373C216.49 25.3073 217.674 24.8802 219.092 24.756C220.536 24.6194 222.193 24.874 224.065 25.5199C225.313 25.9504 226.489 26.5257 227.595 27.2458C228.707 27.9469 229.625 28.7503 230.349 29.6561L227.728 32.655C226.984 31.8059 226.191 31.0987 225.35 30.5332C224.515 29.9489 223.653 29.5034 222.764 29.1968C221.876 28.8901 221.112 28.7429 220.473 28.7552C219.834 28.7674 219.333 28.9013 218.97 29.1568C218.613 29.3934 218.36 29.7291 218.21 30.1639C218.034 30.6744 218.098 31.1621 218.403 31.627C218.715 32.0731 219.178 32.508 219.793 32.932C220.409 33.3559 221.09 33.8026 221.838 34.2722C222.605 34.7483 223.352 35.2495 224.08 35.7759C224.827 36.3087 225.469 36.9005 226.006 37.5513C226.544 38.2021 226.903 38.9396 227.084 39.7637C227.284 40.5944 227.204 41.5296 226.845 42.5695C226.46 43.6849 225.796 44.5982 224.853 45.3093C223.909 46.0204 222.716 46.4443 221.272 46.5809C219.847 46.724 218.19 46.4693 216.299 45.817Z" fill="#111E31"/>
<path d="M196.989 40.9507L200.94 20.3257L205.714 21.2401L201.763 41.8651L196.989 40.9507Z" fill="#111E31"/>
<path d="M169.558 39.0648L170.232 18.0757L174.25 18.2046L186.149 33.7143L184.2 33.6517L184.685 18.5395L189.482 18.6935L188.809 39.6827L184.821 39.5547L172.892 24.0441L174.841 24.1066L174.356 39.2188L169.558 39.0648Z" fill="#111E31"/>
<path d="M139.581 42.6372L145.299 20.3681L150.032 19.5659L162.8 38.701L157.771 39.5534L147.101 22.5579L148.994 22.237L144.491 41.8048L139.581 42.6372ZM143.443 37.4183L144.098 33.5646L154.746 31.7594L156.664 35.1769L143.443 37.4183Z" fill="#111E31"/>
<path d="M122.004 49.5163L115.012 29.7145L123.583 26.6879C125.356 26.062 126.986 25.8149 128.475 25.9467C129.957 26.0597 131.237 26.5304 132.315 27.359C133.392 28.1876 134.194 29.3468 134.72 30.8366C135.239 32.3076 135.34 33.7038 135.021 35.0251C134.703 36.3465 134.006 37.5259 132.93 38.5633C131.848 39.5819 130.42 40.4042 128.647 41.0301L122.622 43.1577L123.929 40.3735L126.586 47.8982L122.004 49.5163ZM124.109 40.8827L121.303 39.4236L127.074 37.386C128.488 36.8865 129.438 36.2119 129.923 35.362C130.407 34.5121 130.46 33.5497 130.08 32.4748C129.694 31.381 129.046 30.6555 128.135 30.2984C127.224 29.9413 126.061 30.0125 124.647 30.5119L118.876 32.5496L120.144 29.6522L124.109 40.8827Z" fill="#111E31"/>
<path d="M105.852 57.6868C104.399 58.5297 102.896 59.1471 101.343 59.5391C99.7802 59.9138 98.4116 60.0255 97.2372 59.8743L96.8284 55.8804C97.928 55.9825 99.1108 55.9092 100.377 55.6604C101.65 55.3844 102.832 54.9303 103.922 54.2981C104.752 53.8165 105.373 53.3523 105.785 52.9056C106.203 52.4316 106.448 51.9773 106.52 51.5427C106.592 51.1081 106.517 50.7005 106.296 50.3199C106.016 49.8355 105.604 49.5652 105.063 49.5092C104.512 49.4358 103.875 49.4932 103.152 49.6814C102.419 49.8523 101.626 50.0807 100.775 50.3665C99.9303 50.6249 99.0573 50.8538 98.1556 51.053C97.2712 51.2423 96.4072 51.3272 95.5636 51.3078C94.7201 51.2884 93.9187 51.0827 93.1596 50.6906C92.4177 50.2885 91.7659 49.6031 91.204 48.6342C90.6019 47.5962 90.3319 46.4927 90.3939 45.3239C90.4631 44.1277 90.9145 42.9527 91.7481 41.7988C92.5889 40.6175 93.8658 39.5302 95.5785 38.5368C96.7204 37.8746 97.9252 37.3608 99.193 36.9955C100.451 36.6128 101.659 36.4438 102.818 36.4885L103.372 40.433C102.243 40.4403 101.189 40.5773 100.211 40.844C99.223 41.0935 98.3223 41.454 97.5092 41.9256C96.6961 42.3972 96.0852 42.8786 95.6765 43.3699C95.2678 43.8613 95.0414 44.3279 94.9971 44.7697C94.9427 45.1943 95.031 45.6055 95.2617 46.0034C95.5326 46.4706 95.9437 46.7408 96.4949 46.8142C97.0361 46.8702 97.6682 46.8042 98.3914 46.616C99.1146 46.4278 99.8983 46.2044 100.743 45.946C101.604 45.6775 102.472 45.44 103.347 45.2334C104.238 45.0169 105.106 44.9183 105.949 44.9377C106.793 44.9571 107.586 45.1678 108.328 45.5699C109.087 45.962 109.742 46.6338 110.294 47.5853C110.886 48.6061 111.142 49.7059 111.063 50.8847C110.984 52.0636 110.524 53.2437 109.683 54.4249C108.859 55.5962 107.583 56.6835 105.852 57.6868Z" fill="#111E31"/>
</svg>
