<svg xmlns="http://www.w3.org/2000/svg" width="109.89" height="191.55" viewBox="0 0 109.89 191.55"><title>Celta Vigo logo - Brandlogos.net</title><path d="M561.07,479.69c1-.9,1.66-2.05,2.43-2.82a4.61,4.61,0,0,1,3.45-1.8,4.61,4.61,0,0,1-3.45-1.8,23.88,23.88,0,0,0-2.43-2.82,4,4,0,0,0-2.43-.9,3.75,3.75,0,0,0-3.45,2.31c-.77,0-3.19,0-4.47-.13-1.66-.13-2.81-.13-.89-1.54l.89-.64a6.53,6.53,0,0,0,2.81-3.33c.13-.13.13-.38.26-.64a8.05,8.05,0,0,0,.26-.9,5.28,5.28,0,0,0,.13-1.41,7.17,7.17,0,0,0-6.77-7.18H546c-.13,0-.38.13-.51.13a7.8,7.8,0,0,0-2.17.9l-.26.13a15.42,15.42,0,0,0-5.24,6.67,17.47,17.47,0,0,1,4.6-1.15c2.81-.38,4.47.9,4.09,3.46-.64,4-6,5-6,5h-9.33v7.56h9.33s5.37,1,6,5c.38,2.69-1.28,4-4.09,3.33a31,31,0,0,1-4.6-1.15s1.66,4.49,5.24,6.67l.26.13a6,6,0,0,0,2.17.9c.13,0,.38.13.51.13a2.61,2.61,0,0,0,1.41,0,7.26,7.26,0,0,0,6.77-7.18,5.28,5.28,0,0,0-.13-1.41,2.38,2.38,0,0,0-.26-.9c-.13-.26-.13-.38-.26-.64a7.2,7.2,0,0,0-2.81-3.33l-.89-.64c-1.92-1.41-.64-1.41.89-1.54,1.28-.13,3.71-.13,4.47-.13a3.63,3.63,0,0,0,3.45,2.31,2.85,2.85,0,0,0,2.43-.64Zm-98,0c-1-.9-1.66-2.05-2.43-2.82a5.11,5.11,0,0,0-3.58-1.8,4.61,4.61,0,0,0,3.45-1.8,23.87,23.87,0,0,1,2.43-2.82,4,4,0,0,1,2.43-.9,3.75,3.75,0,0,1,3.45,2.31c.77,0,3.07,0,4.47-.13,1.66-.13,2.81-.13.89-1.54l-.89-.64a6.53,6.53,0,0,1-2.81-3.33c-.13-.13-.13-.38-.26-.64a8.05,8.05,0,0,1-.26-.9,4.81,4.81,0,0,1-.13-1.41,7.17,7.17,0,0,1,6.77-7.18H478c.13,0,.38.13.51.13a7.79,7.79,0,0,1,2.17.9l.26.13a15.41,15.41,0,0,1,5.24,6.67,17.47,17.47,0,0,0-4.6-1.15c-2.81-.38-4.47.9-4.09,3.46.64,4,6,5,6,5h9.33v7.56h-9.33s-5.37,1-6,5c-.38,2.69,1.28,4,4.09,3.33a31,31,0,0,0,4.6-1.15s-1.66,4.49-5.24,6.67l-.26.13a6,6,0,0,1-2.17.9c-.13,0-.38.13-.51.13a2.61,2.61,0,0,1-1.41,0,7.05,7.05,0,0,1-6.77-7.05,5.26,5.26,0,0,1,.13-1.41,2.38,2.38,0,0,1,.26-.9c.13-.26.13-.38.26-.64a7.2,7.2,0,0,1,2.81-3.33l.89-.64c1.92-1.41.64-1.41-.89-1.54-1.28-.13-3.71-.13-4.47-.13a3.63,3.63,0,0,1-3.45,2.31A3,3,0,0,1,463.06,479.69Zm49.2,128.09L498.07,526a12.58,12.58,0,0,0,9.33-11.54h9.71A12.45,12.45,0,0,0,526.44,526l-14.18,81.8Zm0-152.06h-4.34c0-7.69-.26-17.31-1.79-18-1.79-.77-3.71.26-2.43,2.95,1.53,2.95.64,5-2.3,5.26-2.43.26-5.62-.26-7.28-5.9-1.92-6.67,2.56-8.33,10-15.26,6.39-5.9,8.18-8.59,8.18-8.59s1.79,2.69,8.31,8.72c7.41,6.8,11.88,8.46,10,15.26-1.66,5.64-4.86,6-7.28,5.9-2.94-.26-3.71-2.31-2.3-5.26,1.41-2.69-.51-3.72-2.43-2.95-1.53.64-1.79,10.26-1.79,18h-4.47v-.13Z" transform="translate(-457.05 -416.22)" style="fill:#d50032"/><path d="M525.8,509.69c-3.71,4.49-8.31,7.31-13.16,9.87l-.64.38-.64-.26c-4.86-2.56-9.58-5.51-13.29-9.87-8.82-10.64-13.29-26.28-13.16-40.13H539c.38,13.59-4.47,29.62-13.16,40Z" transform="translate(-457.05 -416.22)" style="fill:#fff"/><path d="M537.68,466.36c1.15,14.1-3.71,31.54-12.78,42.57-3.58,4.23-8.05,7.05-12.78,9.62-4.73-2.56-9.33-5.39-12.91-9.62-9.2-11.15-13.67-28.21-12.78-42.57Z" transform="translate(-457.05 -416.22)" style="fill:#6cace4"/><path d="M526.18,462.38c-7.41-2.95-8.43-3.59-14.06-3.59-6.77,0-7.41.64-14.06,3.59a9,9,0,0,1-2-1.8,3.51,3.51,0,0,1,.51-1.8,7.93,7.93,0,0,1,5.75-4,12.76,12.76,0,0,1,9.2-2.44,5.51,5.51,0,0,1,.64.13c.26,0,.38-.13.64-.13a12.77,12.77,0,0,1,9.2,2.44,7.7,7.7,0,0,1,5.75,4,3.51,3.51,0,0,1,.51,1.8A9,9,0,0,1,526.18,462.38Z" transform="translate(-457.05 -416.22)" style="fill:#c09a4e"/><path d="M525.54,460.33c.26,0,3.58,0,3.19-4.36-.26-2.44-2.81-5.9-5.11-4.1,0,2.18-.77,2.69-1,4.1-.38,2.05-.64,4.49,2.94,4.36Zm-12.39-12.05a13.14,13.14,0,0,1,.64,6.67c-.13.51-.13,1,.38,1.28C522.61,460.46,525,443,513.15,448.28Zm-2.17,0c-11.88-5.26-9.46,12.05-1,7.95.51-.26.51-.77.38-1.28a13.41,13.41,0,0,1,.64-6.67Zm-12.39,12.05c3.58.13,3.32-2.31,2.94-4.23-.26-1.41-1-1.92-1-4.1-2.3-1.92-4.86,1.67-5.11,4.1-.26,4.23,2.94,4.23,3.19,4.23Zm13.54-12.82c7.16-3.21,10.73-.64,11.37,3.08,8.82-2.18,8,11,2.68,13.08l-.77,1.54a59.15,59.15,0,0,0-13.29-1.28,115.59,115.59,0,0,0-13.67.77l-.38-1c-5.49-1.92-6.26-15.26,2.56-13.08.77-3.72,4.22-6.28,11.5-3.08Z" transform="translate(-457.05 -416.22)" style="fill:#c09a4e"/><path d="M511,442.64v-.13h2.17l-.38,1.28,1-.38v2.18l-1-.38.38,1.67H511l.38-1.67-1,.38V443.4l1,.38Zm15.46,21.54-2,3.33.13.13v.13c0,.13,0,.13-.13.26s-.13.13-.26.13H524c-.13,0-.26,0-.26-.13a14.2,14.2,0,0,0-2-.9c-1-.38-1.92-.64-2.68-.9a28.55,28.55,0,0,0-2.81-.64,23.25,23.25,0,0,0-2.68-.26h-2.81a20.89,20.89,0,0,0-2.68.26,12.5,12.5,0,0,0-2.81.64,21.92,21.92,0,0,0-2.68.9,14.2,14.2,0,0,0-2,.9.39.39,0,0,1-.26.13c-.13,0-.13,0-.26-.13a.39.39,0,0,1,0-.51l-2-3.33c7.54-5.26,20.83-5.26,28.49,0Z" transform="translate(-457.05 -416.22)" style="fill:#c09a4e"/><path d="M516.09,457.38a.93.93,0,0,1,0-1.28l.26-.26c.13,0,.13-.13.26-.13h.51c.13,0,.13,0,.26.13s.26.13.26.26a1,1,0,0,1,.26.64V457c0,.26-.13.38-.26.64l-.26.26c-.13,0-.13.13-.26.13H517a2.36,2.36,0,0,0,3.32,1.67,3.9,3.9,0,0,0,.89-.64c-.13-.13-.13-.26-.26-.38h-.26l-.13-.13a.45.45,0,0,0-.26.13h-.13c-.13,0-.13.13-.26.13s-.13.13-.26.13a.13.13,0,0,0-.13.13.45.45,0,0,1-.26.13.13.13,0,0,0-.13.13H519c-.26,0-.38-.26-.26-.51s.13-.26.26-.38l.13-.13v-.13c0-.13,0-.13-.13-.26a.72.72,0,0,1,.13-.77c0-.13.13-.13.13-.26s.13-.13.13-.26.26-.13.26-.26a.13.13,0,0,0,.13-.13,2.63,2.63,0,0,1,.13-.64h.38c.13,0,.26.26.26.51v.13a1.16,1.16,0,0,0,.13.64c0,.13.13.13.13.26s.13.26.26.38a.7.7,0,0,1,.64-.38v.13a2.25,2.25,0,0,1-.51-.64,3.25,3.25,0,0,1-.26-.64,1.84,1.84,0,0,0-.26-.38.47.47,0,0,1,.13-.38c.13,0,.26-.13.51.13l.26.26c.13.13.26,0,.38,0s.26-.13.38-.13h.26a.45.45,0,0,1,.38.26.47.47,0,0,1,.13.38.28.28,0,0,0,.26.26h.38c.26.13.51.13.51.26s-.13.26-.26.38h-.38c-.26,0-.38.13-.64.26a1.81,1.81,0,0,1-.77.26h-.13a.71.71,0,0,1,.38.64c.26,0,.38-.13.64-.26s.38-.38.64-.51.26-.13.38-.13.38.26.26.51l-.26.26c-.13.13,0,.38,0,.51a.85.85,0,0,1-.26.9c-.26.38-.64.38-.51.64.13.51-.13.77-.26.77s-.51,0-.51-.64a2.19,2.19,0,0,0-.13-.9c-.13-.26-.26-.26-.26-.64-.13.13-.26.13-.51.13A2.16,2.16,0,0,0,524.4,461a1.7,1.7,0,0,0,1-.38.47.47,0,0,1-.13-.38.77.77,0,1,1,.77.77h-.26c-.13,1.41,1,2.56,2.43,1.67a.47.47,0,0,1-.13-.38,3.93,3.93,0,0,1-1,.26c-.26,0-.26-.13-.26-.26a.28.28,0,0,1,.26-.26c.13-.13,0-.38.13-.64s.13-.26.38-.26.26,0,.26-.13.13-.26.13-.26l.13-.13h.26a.47.47,0,0,1,.13.38v.77c.13,0,.13-.13.26-.13h.13c0-.13.13-.51.13-.77v-.38c.13-.13.26,0,.38,0s.38.51.51.51h.38c.26.13.64.51.64.64s0,.13-.13.26-.64,0-1,0c-.13,0-.26.13-.38.13l-.38.38-.26.26h-.13a2.91,2.91,0,0,1-1.53.77h-.26a3.24,3.24,0,0,1-.89-.26c-.89-.38-.64-1.67-.64-1.92-.26.26-.51.26-.89.38a3.27,3.27,0,0,1-1.92-.13c-1-.38-1.28-1.79-1.28-2.31a1.31,1.31,0,0,1-.89.64,2.47,2.47,0,0,1-1.92.26c-1-.26-1.41-1-1.92-1.67-.13.13-.13.26-.26.38a3.61,3.61,0,0,1-2,.77,2.73,2.73,0,0,1-2-1.54c-.26.26-1,1.41-2,1.54a2.9,2.9,0,0,1-2-.77l-.26-.26c-.51.64-.77,1.41-1.92,1.67a2.47,2.47,0,0,1-1.92-.26c-.51-.26-.89-.51-.89-.64a2.87,2.87,0,0,1-1.28,2.31,3.34,3.34,0,0,1-1.92.13,6.26,6.26,0,0,1-.89-.38c0,.26.13,1.54-.64,1.92a1.7,1.7,0,0,1-.89.38h-.26a2.22,2.22,0,0,1-1.53-.77h-.13l-.26-.26a1.59,1.59,0,0,1-.38-.26.47.47,0,0,0-.38-.13,2.65,2.65,0,0,0-1,0c-.13-.13-.13,0-.13-.26a.82.82,0,0,1,.64-.64c.26-.13.13,0,.38,0s.38-.38.51-.51a.24.24,0,0,1,.38,0c.13.13,0,0,0,.38s0,.64.13.77h.13c.13,0,.26,0,.26.13v-.77a.47.47,0,0,1,.13-.38.18.18,0,0,1,.26,0,.13.13,0,0,1,.13.13.45.45,0,0,0,.13.26c.13.13.13,0,.26.13a1,1,0,0,1,.38.26c.13.26,0,.51.13.64l.26.26c0,.13,0,.26-.26.26s-.77-.26-1-.26a.47.47,0,0,1-.13.38c1.41.9,2.56-.13,2.43-1.67h-.26a.77.77,0,1,1,.77-.77c0,.13,0,.38-.13.38a8.68,8.68,0,0,0,1,.38,2.16,2.16,0,0,0,2.68-2.18.66.66,0,0,1-.51-.26c0,.38-.13.38-.26.64a2.19,2.19,0,0,0-.13.9c0,.64-.38.64-.51.64s-.38-.26-.26-.77c0-.26-.26-.26-.51-.64a1.23,1.23,0,0,1-.26-.9c0-.13.13-.26,0-.51l-.26-.26c-.13-.26,0-.51.26-.51s.38,0,.38.13a2.26,2.26,0,0,1,.64.51c.26.13.38.26.51.26a.71.71,0,0,1,.38-.64h-.13c-.38.13-.64-.13-.89-.26s-.26-.26-.51-.26h-.38c-.13-.13-.26-.26-.13-.38s.26-.26.51-.26h.38a.25.25,0,0,0,.26-.26.47.47,0,0,1,.13-.38,1.85,1.85,0,0,1,.38-.26h.26a.47.47,0,0,1,.38.13c.13,0,.26.13.38,0l.26-.26a1,1,0,0,1,.51-.13c.13,0,.13.26.13.38s-.26.26-.26.38-.13.38-.26.64a2.24,2.24,0,0,1-.51.64l-.13.13a.7.7,0,0,1,.64.38,2.79,2.79,0,0,1,.38-.64,1.63,1.63,0,0,0,.13-.77c0-.64.38-.64.51-.51s.26.13.26.64c0,.26.38.13.64.51a1,1,0,0,1,.26,1c0,.13-.13.38,0,.51s.13.26.26.38-.13.51-.38.51-.26-.13-.38-.26a4.09,4.09,0,0,0-.64-.38l-.51-.26c-.13,0-.13,0-.26-.13,0,.13-.13.26-.26.38a1.48,1.48,0,0,0,.89.64,2.33,2.33,0,0,0,3.32-1.67,1.09,1.09,0,0,1-.89-1,1,1,0,0,1,1-1,1.1,1.1,0,0,1,1,1,1,1,0,0,1-.64.9c.13.13.13.26.26.38a2,2,0,0,0,2.3.77,2,2,0,0,0,1.66-1.54c-.38-.13-.64-.26-.77-.64a1,1,0,0,1-.26.51,1.7,1.7,0,0,0-.38.64c-.13.26-.26.38-.26.51a.39.39,0,0,1-.26.13c-.13,0-.26-.26-.26-.38s0-.64-.13-.64c-.13-.26-.51-.38-.51-.9s.38-.64.38-.9-.13-.64-.13-.77.13-.38.26-.38.51.13.51.26.26.26.38.38.38.26.51.51.13.13.13.26a1.15,1.15,0,0,1,.77-.77h-.13a1.17,1.17,0,0,1-.77-.51c-.26-.26-.26-.38-.51-.38a1,1,0,0,1-.38-.26.24.24,0,0,1,0-.38.51.51,0,0,1,.64-.13c.26,0,.26,0,.38.13s.26,0,.38,0,.26-.38.38-.38a.64.64,0,0,1,.77,0c.26.13.26.38.38.38s.13.13.38,0,.26-.13.38-.13a1,1,0,0,1,.64.13.24.24,0,0,1,0,.38,1,1,0,0,1-.38.26c-.26.13-.26.26-.51.38a1.63,1.63,0,0,1-.77.51h-.13a1.15,1.15,0,0,1,.77.77.45.45,0,0,1,.13-.26.13.13,0,0,1,.13-.13l.26-.26.13-.13a.13.13,0,0,0,.13-.13c.13-.13.26-.26.26-.38l.26-.26c.13,0,.13-.13.26-.13s.26.26.26.38-.13.64-.13.77l.13.13a.75.75,0,0,1,.26.64v.13a1,1,0,0,1-.26.64c-.13.13-.26.13-.26.26a5.58,5.58,0,0,1-.13.64c0,.13-.13.26-.26.38h-.26a.13.13,0,0,1-.13-.13.45.45,0,0,1-.13-.26c0-.13-.13-.13-.13-.26s-.13-.13-.13-.26-.26-.26-.26-.38-.26-.38-.26-.64a1.31,1.31,0,0,1-.77.64,2,2,0,0,0,1.66,1.54,2.67,2.67,0,0,0,2.3-.77c.13-.13.13-.26.26-.38h-.13c-.51,0-.51-.13-.64-.13Z" transform="translate(-457.05 -416.22)" style="fill:#fff"/><path d="M500.88,447.89a1.18,1.18,0,0,1,1.28-1.15,1.15,1.15,0,0,1,1.15,1.15,1.26,1.26,0,0,1-1.15,1.28A1.28,1.28,0,0,1,500.88,447.89Zm-.51,6.92a1.28,1.28,0,0,1,1.28-1.28,1.38,1.38,0,0,1,1.28,1.28,1.28,1.28,0,1,1-2.56,0Z" transform="translate(-457.05 -416.22)" style="fill:#fff"/><path d="M508,446.1a.77.77,0,1,1,.77.77A.68.68,0,0,1,508,446.1Zm-1.53-.13a.77.77,0,1,1,.77.77.74.74,0,0,1-.77-.77Zm-1.79.13a.89.89,0,1,1,.89.9A.87.87,0,0,1,504.72,446.1Zm-1.79.51a.89.89,0,1,1,.89.9A.87.87,0,0,1,502.93,446.61Z" transform="translate(-457.05 -416.22)" style="fill:#fff"/><path d="M510.47,447a.51.51,0,1,1,.51.51A.55.55,0,0,1,510.47,447Zm-1-.51a.51.51,0,1,1,1,0c0,.26-.26.64-.51.64A.59.59,0,0,1,509.44,446.48Z" transform="translate(-457.05 -416.22)" style="fill:#fff"/><path d="M511.36,447.51a.77.77,0,1,1,1.53,0,.74.74,0,0,1-.77.77C511.74,448.15,511.36,447.89,511.36,447.51Z" transform="translate(-457.05 -416.22)" style="fill:#fff"/><path d="M494.11,460.71a1.15,1.15,0,1,1,.09.44A1.14,1.14,0,0,1,494.11,460.71Zm16.61-7.31a1.41,1.41,0,1,1,1.41,1.41A1.51,1.51,0,0,1,510.72,453.41Zm.38-2.44a1,1,0,1,1,1,1A.94.94,0,0,1,511.11,451Zm.13-1.92a.89.89,0,1,1,.89.9A.88.88,0,0,1,511.23,449Z" transform="translate(-457.05 -416.22)" style="fill:#fff"/><path d="M493,458.66a1.38,1.38,0,0,1,1.28-1.28,1.28,1.28,0,0,1,1.28,1.28,1.38,1.38,0,0,1-1.28,1.28A1.21,1.21,0,0,1,493,458.66Z" transform="translate(-457.05 -416.22)" style="fill:#fff"/><path d="M493,454.17a1,1,0,1,1,1,1C493.47,455.33,493,454.82,493,454.17Zm-.38,2.31a1.15,1.15,0,1,1,1.15,1.15,1.24,1.24,0,0,1-1.15-1.15Z" transform="translate(-457.05 -416.22)" style="fill:#fff"/><path d="M494,452.51a1,1,0,1,1,1,1C494.37,453.41,494,453,494,452.51Z" transform="translate(-457.05 -416.22)" style="fill:#fff"/><path d="M495.26,451.23a.89.89,0,1,1,.89.9A1.08,1.08,0,0,1,495.26,451.23Z" transform="translate(-457.05 -416.22)" style="fill:#fff"/><path d="M520.82,447.89a1.18,1.18,0,0,1,1.28-1.15,1.15,1.15,0,0,1,1.15,1.15,1.26,1.26,0,0,1-1.15,1.28A1.38,1.38,0,0,1,520.82,447.89Zm.51,6.92a1.28,1.28,0,0,1,1.28-1.28,1.38,1.38,0,0,1,1.28,1.28,1.28,1.28,0,0,1-1.28,1.28,1.38,1.38,0,0,1-1.28-1.28Zm-23-4.62a.64.64,0,1,1,.64.64A.6.6,0,0,1,498.33,450.2Zm-1.53.26a.77.77,0,1,1,.77.77A.83.83,0,0,1,496.79,450.46Z" transform="translate(-457.05 -416.22)" style="fill:#fff"/><path d="M519.41,446.61a.89.89,0,1,1,.89.9A1,1,0,0,1,519.41,446.61Z" transform="translate(-457.05 -416.22)" style="fill:#fff"/><path d="M516.22,446a.77.77,0,1,1,.77.77A.74.74,0,0,1,516.22,446Zm1.53.13a.89.89,0,1,1,.89.9A.87.87,0,0,1,517.75,446.1Z" transform="translate(-457.05 -416.22)" style="fill:#fff"/><path d="M513.66,446.48a.59.59,0,0,1,.64-.51.55.55,0,0,1,.51.51c0,.26-.26.64-.51.64A.6.6,0,0,1,513.66,446.48Zm1.15-.38a.74.74,0,0,1,.77-.77.77.77,0,0,1,0,1.54A.68.68,0,0,1,514.81,446.1Z" transform="translate(-457.05 -416.22)" style="fill:#fff"/><path d="M528.74,458.66a1.28,1.28,0,1,1,1.28,1.28A1.21,1.21,0,0,1,528.74,458.66Zm-16-11.67a.51.51,0,1,1,.51.51A.55.55,0,0,1,512.77,447Z" transform="translate(-457.05 -416.22)" style="fill:#fff"/><path d="M529.12,454.17a1.1,1.1,0,0,1,1-1,1,1,0,0,1,0,2.05C529.63,455.33,529.12,454.82,529.12,454.17Zm.26,2.31a1.15,1.15,0,1,1,1.15,1.15A1.35,1.35,0,0,1,529.38,456.48Z" transform="translate(-457.05 -416.22)" style="fill:#fff"/><path d="M528.36,452.51a.89.89,0,1,1,.89.9A1,1,0,0,1,528.36,452.51Z" transform="translate(-457.05 -416.22)" style="fill:#fff"/><path d="M527.21,451.23a.89.89,0,1,1,.89.9A1.08,1.08,0,0,1,527.21,451.23Z" transform="translate(-457.05 -416.22)" style="fill:#fff"/><path d="M499.61,449.94a1.38,1.38,0,0,1,1.28-1.28,1.28,1.28,0,0,1,0,2.56A1.49,1.49,0,0,1,499.61,449.94Zm24.92.26a.64.64,0,1,1,.64.64A.69.69,0,0,1,524.52,450.2Zm1.41.26a.74.74,0,0,1,.77-.77.77.77,0,0,1,0,1.54A.74.74,0,0,1,525.93,450.46Z" transform="translate(-457.05 -416.22)" style="fill:#fff"/><path d="M499.61,449.94a1.38,1.38,0,0,1,1.28-1.28,1.28,1.28,0,0,1,0,2.56A1.49,1.49,0,0,1,499.61,449.94Z" transform="translate(-457.05 -416.22)" style="fill:#fff"/><path d="M512,464.3l-2.94-1.79,2.94-1.8,2.94,1.8C513.92,463,513,463.66,512,464.3Zm10.22-11.8a1.41,1.41,0,1,1,1.41,1.41A1.42,1.42,0,0,1,522.22,452.51Zm-.13-2.56a1.26,1.26,0,0,1,1.15-1.28,1.28,1.28,0,0,1,1.28,1.28,1.18,1.18,0,0,1-1.28,1.15A1.07,1.07,0,0,1,522.09,449.94Zm-23,2.56a1.41,1.41,0,1,1,1.41,1.41,1.42,1.42,0,0,1-1.41-1.41Z" transform="translate(-457.05 -416.22)" style="fill:#fff"/><path d="M521.71,463.41l-4.47-1.54-.77,2.31,4.6,1.54ZM512,461.1c.77.38,1.41.9,2.17,1.28L512,463.66l-2-1.28Z" transform="translate(-457.05 -416.22)" style="fill:#fff"/><path d="M526.06,464.82v1.41l-1.28.64-1.15-1.92Zm-4.73-1.15-4-1.28-.38,1.41,3.83,1.41.51-1.54Z" transform="translate(-457.05 -416.22)" style="fill:#fff"/><path d="M502.29,463.41l4.6-1.54.64,2.31-4.47,1.54-.77-2.31Zm24,1.54h-2.56l1.28,1.92c.13.26-.13.38-.26.38l-1.28-2.56s.26,0,2.94-.26c0,0,0,.51-.13.51Z" transform="translate(-457.05 -416.22)" style="fill:#fff"/><path d="M498.2,464.82l.13,1.41,1.28.64,1-1.92Zm4.6-1.15,3.83-1.28.51,1.41-4,1.41-.38-1.54Z" transform="translate(-457.05 -416.22)" style="fill:#fff"/><path d="M495.26,475.46c1.15,14.49,6.77,26.16,18.27,35.26a32.12,32.12,0,0,1-2.43,2.31,53.24,53.24,0,0,1-19.29-40.9h38.85v3.33Zm32.58-14.74a1.15,1.15,0,1,1,.09.44A1.14,1.14,0,0,1,527.84,460.71Zm-29.77,4.23h2.56l-1.28,1.92c-.13.26.13.38.26.38l1.28-2.56s-.26,0-2.94-.26c-.13,0-.13.51.13.51Z" transform="translate(-457.05 -416.22)" style="fill:#fff"/><path d="M530.78,479.43H500.24c2,13.21,6.39,20.64,16.48,28.08.64-.77,1.53-1.54,2.17-2.18-9.2-6.54-13.16-13.85-14.57-22.57h26.45Z" transform="translate(-457.05 -416.22)" style="fill:#fff"/></svg>