<svg width="286" height="377" viewBox="0 0 286 377" fill="none" xmlns="http://www.w3.org/2000/svg">
<path d="M283.974 250.144C283.974 284.657 268.551 307.868 247.61 324.516L246.609 325.303C225.119 342.039 198.104 352.032 175.954 360.218H175.951L175.623 360.338L175.624 360.339C162.482 365.196 150.979 369.456 143.539 374.161L142.737 374.668L141.936 374.161C134.496 369.456 122.993 365.196 109.851 360.339V360.338L109.522 360.219L109.52 360.218C87.7169 352.16 61.1985 342.351 39.876 326.082L38.8643 325.303C17.4175 308.601 1.50006 285.205 1.5 250.144V16.9834L2.61426 16.6865C27.17 10.1551 88.2825 1.5 142.737 1.5C197.192 1.50005 258.304 10.1551 282.859 16.6865L283.974 16.9834V250.144Z" fill="#A5C2ED" stroke="#E2EDFF" stroke-width="3"/>
<path fill-rule="evenodd" clip-rule="evenodd" d="M143 3.00007C142.912 3.00002 142.825 3 142.737 3C88.3868 3 27.4075 11.6442 3 18.1362V250.144C3.00006 284.655 18.6291 307.644 39.7858 324.119C61.0628 340.69 87.8534 350.61 110.04 358.81L110.37 358.932C123.449 363.765 135.132 368.084 142.737 372.893C142.824 372.838 142.912 372.783 143 372.728V3.00007Z" fill="#C6DDFF"/>
</svg>
