<svg width="129" height="290" viewBox="0 0 129 290" fill="none" xmlns="http://www.w3.org/2000/svg">
<g clip-path="url(#clip0_603_169)">
<path d="M0 84.3999V251.919C0 258.78 1.47818 264.234 5.22257 268.788C12.9655 278.205 36.6226 290 64.4949 290C92.3672 290 116.024 278.205 123.768 268.788C127.512 264.234 128.99 258.78 128.99 251.919V84.3999H0Z" fill="#D6B048"/>
<path d="M121.681 91.709H7.30847V111.038H121.681V91.709Z" fill="#122680"/>
<path d="M118.122 264.146C115.541 267.286 109.156 272.084 98.9768 276.135C91.4619 279.126 79.3797 282.691 64.4949 282.691C49.6106 282.691 37.528 279.126 30.0131 276.135C19.8343 272.084 13.4492 267.286 10.8679 264.147C8.40648 261.152 7.30847 257.381 7.30847 251.919V118.346H121.681V251.919C121.681 257.381 120.584 261.152 118.122 264.146Z" fill="white"/>
<path d="M102.96 125.655V193.74C102.96 200.246 101.581 205.232 98.6324 209.146C93.1275 216.454 78.0859 222.781 64.4948 222.781C50.9038 222.781 35.8622 216.454 30.3573 209.146C27.4096 205.232 26.0293 200.246 26.0293 193.74V125.655H102.96Z" fill="#D6B048"/>
<path d="M95.6525 132.963H33.3373V193.74C33.3373 198.662 34.2452 202.161 36.1948 204.748C40.0155 209.82 52.5777 215.473 64.4949 215.473C76.4121 215.473 88.9738 209.821 92.7946 204.748C94.7441 202.16 95.652 198.662 95.652 193.74L95.6525 132.963Z" fill="#122680"/>
<path d="M69.9552 173.263L89.8458 174.571V164.057L69.9557 165.365C69.5355 164.784 69.0262 164.275 68.4462 163.855L69.7523 137.131H59.238L60.5445 163.855C59.964 164.275 59.4547 164.784 59.0345 165.365L39.1444 164.057V174.571L59.0351 173.263C59.5049 173.911 60.0829 174.476 60.7489 174.922L59.2385 210.472H69.7528L68.2428 174.922C68.9079 174.476 69.4853 173.911 69.9552 173.263Z" fill="#D6B048"/>
<path d="M41.2488 252.736C41.2498 239.897 51.657 229.491 64.4949 229.49C77.3339 229.491 87.7401 239.898 87.7411 252.736C87.7401 265.575 77.3333 275.982 64.4949 275.982C51.657 275.982 41.2498 265.575 41.2488 252.736Z" fill="#122680"/>
<path d="M61.8172 267.395C57.0292 264.61 54.0877 260.419 52.776 258.219C50.683 259.938 48.6586 262.299 46.9832 265.558C47.6405 266.455 48.3619 267.3 49.1464 268.086C53.0768 272.015 58.4991 274.443 64.4954 274.443C69.4418 274.443 73.9952 272.788 77.6453 270.004C76.4059 270.197 74.9446 270.343 73.3291 270.345C69.9045 270.345 65.786 269.686 61.8172 267.395Z" fill="white"/>
<path d="M56.5522 252.681C59.94 251.218 62.9076 250.866 64.4437 250.786C64.4883 250.671 64.5328 250.562 64.5779 250.44C65.2291 248.682 65.8824 246.169 65.8814 243.189C65.8809 243.005 65.8773 242.818 65.8717 242.63C63.6803 242.638 58.8179 243.017 54.5335 245.502C46.7772 249.932 44.7114 258.912 44.532 259.92C44.5197 259.986 44.5161 260.004 44.5161 260.004L44.3676 260.868C44.6427 261.547 44.9496 262.21 45.2898 262.854C48.5044 257.359 52.7822 254.304 56.5522 252.681Z" fill="white"/>
<path d="M66.2093 253.668C66.8769 254.503 67.7761 255.493 68.9304 256.483C69.9454 257.351 71.1516 258.215 72.5606 258.979C72.9116 258.361 73.3717 257.485 73.8313 256.409C74.795 254.165 75.7429 251.071 75.7414 247.727C75.7429 243.248 74.0956 239.466 72.3136 236.69C70.5347 233.919 68.6312 232.183 68.2562 231.855C68.206 231.812 68.1916 231.8 68.1916 231.8L67.5225 231.243C66.8062 231.144 66.0786 231.078 65.3413 231.05C67.8304 235.424 68.6743 239.615 68.6707 243.189C68.6635 248.196 67.0726 251.978 66.2093 253.668Z" fill="white"/>
<path d="M53.1392 243.087C57.9427 240.324 63.0464 239.889 65.6041 239.845C65.1625 237.172 64.1357 234.24 62.1461 231.158C57.0896 231.702 52.5561 233.978 49.1458 237.387C45.216 241.317 42.7878 246.74 42.7878 252.737C42.7878 253.668 42.8534 254.584 42.9672 255.485C43.2234 254.822 43.5262 254.107 43.8905 253.355C45.528 249.968 48.3588 245.85 53.1392 243.087Z" fill="white"/>
<path d="M67.1136 258.599C64.9186 256.713 63.5368 254.843 62.8312 253.755C61.4453 253.965 59.6258 254.388 57.6594 255.241C56.8114 255.609 55.9368 256.058 55.056 256.598C55.4147 257.211 55.9445 258.047 56.6454 258.984C58.1077 260.94 60.3129 263.31 63.2109 264.98C66.6479 266.964 70.2539 267.556 73.3286 267.556C77.1094 267.558 80.0524 266.651 80.6632 266.444C80.7508 266.414 80.7785 266.404 80.7785 266.404L81.5895 266.106C82.0409 265.53 82.4631 264.932 82.8551 264.312C75.5902 264.273 70.4056 261.435 67.1136 258.599Z" fill="white"/>
<path d="M78.5296 247.727C78.5117 253.262 76.3556 257.903 75.106 260.14C77.3302 260.976 79.9489 261.525 83.0267 261.527C83.4606 261.527 83.9069 261.514 84.3599 261.491C85.5419 258.813 86.2028 255.854 86.2028 252.737C86.2028 246.74 83.7747 241.318 79.8454 237.387C77.8605 235.403 75.4949 233.804 72.8674 232.705C73.3173 233.262 73.7887 233.886 74.2631 234.583C76.3766 237.695 78.5276 242.205 78.5296 247.727Z" fill="white"/>
<path d="M106.01 73.085H22.9797V81.5477H106.01V73.085Z" fill="#D6B048"/>
<path d="M29.0431 13.3823C32.7608 13.3823 36.309 14.2897 39.4795 15.8832C42.6516 14.2908 46.2002 13.3823 49.9185 13.3823C55.3593 13.3823 60.4349 15.3262 64.4954 18.5239C68.5554 15.3262 73.6314 13.3823 79.0723 13.3823C82.79 13.3823 86.3387 14.2902 89.5107 15.8832C92.6813 14.2897 96.2294 13.3823 99.9467 13.3823C112.858 13.3823 123.758 24.2871 123.758 37.064C123.758 45.8403 120.423 50.1545 117.499 54.2288L106.01 70.2316H22.9797L11.4914 54.2288C8.56628 50.1545 5.2323 45.8403 5.2323 37.064C5.2323 24.2871 16.1319 13.3823 29.0431 13.3823Z" fill="#D6B048"/>
<path d="M17.5901 55.2608L25.3131 66.019H103.677L111.4 55.2608C115.193 49.9768 117.659 46.5419 117.659 40.0645C117.659 30.5601 109.552 22.4482 99.9467 22.4482C99.2017 22.4482 98.467 22.5026 97.7435 22.5979C100.945 26.6399 102.883 31.6837 102.883 37.0635C102.883 38.7492 102.688 40.4006 102.329 42.0002H96.668C96.7428 41.3628 96.7843 40.7172 96.7843 40.0645C96.7843 30.5601 88.6766 22.4482 79.0723 22.4482C75.1178 22.4482 71.4206 23.8275 68.4355 26.1096V42.0007H60.5553V26.1096C57.5697 23.8281 53.873 22.4482 49.9185 22.4482C40.3137 22.4482 32.2059 30.5601 32.2059 40.0645C32.2059 40.7172 32.248 41.3628 32.3223 42.0002H26.6611C26.3024 40.4006 26.1072 38.7492 26.1072 37.0635C26.1072 31.6837 28.045 26.6394 31.2468 22.5979C30.5228 22.5026 29.7886 22.4482 29.0436 22.4482C19.4393 22.4482 11.3315 30.5601 11.3315 40.0645C11.331 46.5424 13.7971 49.9773 17.5901 55.2608Z" fill="#C51718"/>
<path d="M70.4363 13.8324C69.9885 11.5519 68.2628 9.73244 66.0335 9.14731V6.05824H69.0145V2.98045H66.0335V0H62.9562V2.98045H59.9753V6.05824H62.9562V9.14731C60.7264 9.73244 59.0013 11.5513 58.5535 13.8324C60.6813 14.645 62.678 15.743 64.4949 17.0747C66.3112 15.743 68.3079 14.645 70.4363 13.8324Z" fill="#D6B048"/>
<path d="M70.4245 52.2168C70.0853 52.2168 69.7538 52.2516 69.432 52.3126C69.7185 51.6542 69.8793 50.9292 69.8793 50.1658C69.8793 47.1915 67.4686 44.7803 64.4938 44.7803C61.52 44.7803 59.1094 47.1915 59.1094 50.1658C59.1094 50.9292 59.2697 51.6542 59.5566 52.3126C59.2349 52.2521 58.9039 52.2168 58.5642 52.2168C55.5904 52.2168 53.1792 54.628 53.1792 57.6023C53.1792 60.5766 55.5904 62.9878 58.5642 62.9878C61.0282 62.9878 63.1007 61.3313 63.7412 59.0728C63.9866 59.1143 64.2376 59.1409 64.4943 59.1409C64.7521 59.1409 65.0021 59.1143 65.248 59.0723C65.8885 61.3308 67.961 62.9878 70.425 62.9878C73.3998 62.9878 75.8105 60.5766 75.8105 57.6023C75.8105 54.628 73.3993 52.2168 70.4245 52.2168Z" fill="#D6B048"/>
<path d="M98.3768 52.2168C98.0371 52.2168 97.7061 52.2516 97.3843 52.3126C97.6707 51.6542 97.8316 50.9292 97.8316 50.1658C97.8316 47.1915 95.4204 44.7803 92.4461 44.7803C89.4718 44.7803 87.0611 47.1915 87.0611 50.1658C87.0611 50.9292 87.2215 51.6542 87.5084 52.3126C87.1867 52.2521 86.8557 52.2168 86.516 52.2168C83.5417 52.2168 81.131 54.628 81.131 57.6023C81.131 60.5766 83.5417 62.9878 86.516 62.9878C88.9799 62.9878 91.0525 61.3313 91.6929 59.0728C91.9384 59.1143 92.1889 59.1409 92.4461 59.1409C92.7033 59.1409 92.9539 59.1143 93.1998 59.0723C93.8403 61.3308 95.9128 62.9878 98.3768 62.9878C101.351 62.9878 103.762 60.5766 103.762 57.6023C103.762 54.628 101.351 52.2168 98.3768 52.2168Z" fill="#D6B048"/>
<path d="M30.6129 52.2168C30.9526 52.2168 31.2836 52.2516 31.6054 52.3126C31.319 51.6542 31.1581 50.9292 31.1581 50.1658C31.1581 47.1915 33.5688 44.7803 36.5431 44.7803C39.5169 44.7803 41.9281 47.1915 41.9281 50.1658C41.9281 50.9292 41.7672 51.6542 41.4808 52.3126C41.8026 52.2521 42.1335 52.2168 42.4732 52.2168C45.4475 52.2168 47.8582 54.628 47.8582 57.6023C47.8582 60.5766 45.4475 62.9878 42.4732 62.9878C40.0093 62.9878 37.9367 61.3313 37.2963 59.0728C37.0509 59.1143 36.8003 59.1409 36.5431 59.1409C36.2859 59.1409 36.0353 59.1143 35.7894 59.0723C35.1489 61.3308 33.0764 62.9878 30.6124 62.9878C27.6381 62.9878 25.2269 60.5766 25.2269 57.6023C25.2269 54.628 27.6386 52.2168 30.6129 52.2168Z" fill="#D6B048"/>
<path d="M69.3629 101.372C69.3645 96.8312 73.0438 93.1519 77.5859 93.1504C82.127 93.1519 85.8064 96.8312 85.8079 101.372C85.8064 105.915 82.127 109.593 77.5859 109.595C73.0438 109.593 69.3645 105.915 69.3629 101.372ZM73.0176 101.372C73.0228 103.894 75.0635 105.936 77.5859 105.94C80.1073 105.936 82.148 103.894 82.1532 101.372C82.148 98.851 80.1073 96.8092 77.5859 96.8046C75.0635 96.8092 73.0228 98.851 73.0176 101.372Z" fill="white"/>
<path d="M52.1007 102.962C54.2408 102.398 55.8194 100.458 55.8199 98.1414C55.8194 95.3843 53.5876 93.1519 50.8295 93.1504H45.0095C44.5284 93.1504 44.057 93.3461 43.7173 93.6863C43.3766 94.0265 43.1824 94.4969 43.1824 94.978V107.768C43.1824 108.777 44.0001 109.595 45.01 109.595C46.0183 109.595 46.8371 108.776 46.8371 107.768V103.132H47.4535L52.3891 108.95C52.7509 109.376 53.2653 109.595 53.7838 109.595C54.2009 109.595 54.621 109.452 54.9643 109.161C55.7344 108.508 55.8292 107.355 55.1759 106.585L52.1007 102.962ZM50.8295 96.8051C51.5668 96.8061 52.1642 97.4036 52.1657 98.1409C52.1642 98.8776 51.5673 99.4756 50.8295 99.4761H46.8366V96.8046L50.8295 96.8051Z" fill="white"/>
</g>
<defs>
<clipPath id="clip0_603_169">
<rect width="128.99" height="290" fill="white"/>
</clipPath>
</defs>
</svg>
