<svg width="216" height="300" viewBox="0 0 216 300" fill="none" xmlns="http://www.w3.org/2000/svg">
<path d="M167.448 56.0719C167.448 56.0719 165.04 52.1804 159.741 50.0952C154.671 48.1051 146.964 46.9009 146.261 46.7994C146.273 46.7424 145.709 46.2354 140.702 42.8572C131.088 36.3735 116.941 35.9299 107.739 38.2052C98.5424 35.9299 84.3961 36.3735 74.7814 42.8572C69.7744 46.2354 69.2104 46.7424 69.2167 46.7994C68.5195 46.9009 60.8063 48.1051 55.7422 50.0952C50.4374 52.1804 48.0353 56.0719 48.0353 56.0719L45.9882 64.7295L47.4079 76.2138L56.6866 78.4131L84.2249 71.1815L107.739 68.4625L131.259 71.1815L158.797 78.4131L168.076 76.2138L169.489 64.7295L167.448 56.0719Z" fill="#E7223F"/>
<path d="M167.448 56.0719C167.448 56.0719 165.04 52.1804 159.741 50.0952C154.671 48.1051 146.964 46.9009 146.261 46.7994C146.273 46.7424 145.709 46.2354 140.702 42.8572C131.088 36.3735 116.941 35.9299 107.739 38.2052C98.5424 35.9299 84.3961 36.3735 74.7814 42.8572C69.7744 46.2354 69.2104 46.7424 69.2167 46.7994C68.5195 46.9009 60.8063 48.1051 55.7422 50.0952C50.4374 52.1804 48.0353 56.0719 48.0353 56.0719L45.9882 64.7295L47.4079 76.2138L56.6866 78.4131L84.2249 71.1815L107.739 68.4625L131.259 71.1815L158.797 78.4131L168.076 76.2138L169.489 64.7295L167.448 56.0719Z" stroke="#004798" stroke-width="0.665484" stroke-linejoin="round"/>
<path d="M159.171 82.666C143.542 75.3013 126.163 71.2007 107.739 71.2007C89.3206 71.2007 71.9419 75.3013 56.3126 82.666C55.7422 82.9322 55.5837 83.5914 55.8499 84.1618C56.1161 84.7258 56.7879 84.973 57.3583 84.7068L59.8745 90.1194C59.228 90.4237 58.9492 91.1969 59.247 91.8497C59.5576 92.5025 60.2548 92.8321 60.9076 92.5278C75.1363 85.8096 90.9621 82.1146 107.739 82.1146C124.521 82.1146 140.347 85.8096 154.576 92.5278C155.229 92.8321 155.926 92.5025 156.23 91.8497C156.541 91.1969 156.256 90.4237 155.609 90.1194L158.125 84.7068C158.689 84.973 159.367 84.7258 159.634 84.1618C159.9 83.5914 159.741 82.9322 159.171 82.666Z" fill="#FABD00"/>
<path d="M159.171 82.666C143.542 75.3013 126.163 71.2007 107.739 71.2007C89.3206 71.2007 71.9419 75.3013 56.3126 82.666C55.7422 82.9322 55.5837 83.5914 55.8499 84.1618C56.1161 84.7258 56.7879 84.973 57.3583 84.7068L59.8745 90.1194C59.228 90.4237 58.9492 91.1969 59.247 91.8497C59.5576 92.5025 60.2548 92.8321 60.9076 92.5278C75.1363 85.8096 90.9621 82.1146 107.739 82.1146C124.521 82.1146 140.347 85.8096 154.576 92.5278C155.229 92.8321 155.926 92.5025 156.23 91.8497C156.541 91.1969 156.256 90.4237 155.609 90.1194L158.125 84.7068C158.689 84.973 159.367 84.7258 159.634 84.1618C159.9 83.5914 159.741 82.9322 159.171 82.666Z" stroke="#004798" stroke-width="0.988719" stroke-linejoin="round"/>
<path d="M166.802 74.9335C165.617 75.3708 164.26 75.3074 163.075 74.6546C161.446 73.7546 160.591 72.0053 160.762 70.2688C161.231 69.7364 161.592 69.0899 161.782 68.3547C162.422 65.8892 160.933 63.3731 158.461 62.7393C155.996 62.1055 153.486 63.5949 152.846 66.0604C152.77 66.3773 152.725 66.6942 152.713 67.0111C151.648 68.4308 149.804 69.1406 147.978 68.6716C145.811 68.1139 144.429 66.0667 144.619 63.9118C149.018 65.0083 150.716 63.0118 151.432 60.1978C152.047 57.8147 151.768 55.6091 148.999 54.2845C149.068 53.226 148.897 52.3641 148.536 51.6542C150.431 51.0965 151.819 49.3409 151.819 47.262C151.819 45.0501 150.254 43.2058 148.168 42.7748C149.246 41.9318 149.937 40.6326 149.937 39.1621C149.937 38.972 149.918 38.7945 149.899 38.6171L149.918 38.6615C162.41 44.9804 166.333 51.4958 167.379 64.8752C165.883 65.3315 164.939 66.8019 164.33 68.3864C163.386 70.8772 163.5 73.2856 166.802 74.9335ZM149.829 72.6011C151.546 72.487 153.201 71.8913 154.557 70.8962C155.02 71.2511 155.565 71.5173 156.167 71.6758C156.37 71.7201 156.566 71.7582 156.763 71.7835C157.073 73.425 157.865 74.9969 159.038 76.2518C156.027 74.9208 152.96 73.7039 149.829 72.6011ZM103.099 65.528C105.558 64.3555 107.346 62.0168 107.739 59.2281C108.138 62.0168 109.925 64.3555 112.378 65.528C110.844 65.4773 109.291 65.4456 107.739 65.4456C106.186 65.4456 104.646 65.4773 103.099 65.528ZM65.6547 72.6011C62.5238 73.7039 59.4499 74.9208 56.4457 76.2581C57.6119 74.9969 58.4105 73.425 58.7147 71.7835C58.9175 71.7582 59.114 71.7201 59.3168 71.6758C59.9189 71.5173 60.4576 71.2511 60.933 70.8962C62.283 71.8913 63.9372 72.487 65.6547 72.6011ZM48.6817 74.9335C51.9775 73.2856 52.0979 70.8772 51.1535 68.3864C50.5514 66.8019 49.5944 65.3315 48.0986 64.8752C49.1444 51.4958 53.0676 44.9804 65.566 38.6615L65.585 38.6171C65.566 38.7945 65.547 38.972 65.547 39.1621C65.547 40.6326 66.2378 41.9318 67.3153 42.7748C65.2301 43.2058 63.6646 45.0501 63.6646 47.262C63.6646 49.3409 65.0526 51.0965 66.9477 51.6542C66.5928 52.3641 66.4153 53.226 66.485 54.2845C63.7153 55.6091 63.4365 57.8147 64.0512 60.1978C64.7674 63.0118 66.466 65.0083 70.8582 63.9118C71.0547 66.0667 69.6667 68.1139 67.4991 68.6716C65.6801 69.1406 63.8358 68.4308 62.771 67.0111C62.7583 66.6942 62.7139 66.3773 62.6315 66.0604C61.9977 63.5949 59.4879 62.1055 57.0225 62.7393C54.5507 63.3731 53.0676 65.8892 53.7014 68.3547C53.8915 69.0899 54.2464 69.7364 54.7218 70.2688C54.8929 72.0053 54.0373 73.7546 52.4084 74.6546C51.2169 75.3074 49.8669 75.3708 48.6817 74.9335ZM74.6356 63.4111C75.7067 65.9906 77.9884 67.8096 80.6313 68.3547C77.6398 69.0012 74.6863 69.7617 71.7708 70.6237C73.818 68.8744 74.9398 66.1871 74.6356 63.4111ZM96.8057 65.9083C93.4656 66.1935 90.1699 66.6118 86.9122 67.1505C88.5981 66.073 89.8974 64.4569 90.5565 62.6189C90.6326 62.6189 90.7086 62.6252 90.791 62.6252C91.2537 62.6252 91.7037 62.5555 92.1346 62.4287C93.2248 64.0512 94.898 65.2871 96.8057 65.9083ZM103.758 23.9004C103.739 24.0462 103.727 24.2046 103.727 24.3631C103.727 25.1997 103.987 25.9792 104.43 26.6194V30.3207C103.987 30.9609 103.727 31.7341 103.727 32.577C103.727 33.4136 103.987 34.1932 104.43 34.8397V38.5347C103.987 39.1812 103.727 39.9544 103.727 40.7973C103.727 42.4325 104.715 43.8395 106.122 44.4607C104.132 44.7902 102.592 45.8423 102.117 48.3585C99.1127 48.9479 98.2888 51.0204 98.2888 53.4796C98.2888 56.376 99.4359 58.7337 103.961 58.7654C103.613 60.9076 101.762 62.5428 99.5247 62.5428C97.4839 62.5428 95.7663 61.1928 95.2085 59.3358C95.3353 58.9112 95.3987 58.4738 95.3987 58.0175C95.3987 55.4697 93.3389 53.4035 90.791 53.4035C88.2431 53.4035 86.177 55.4697 86.177 58.0175C86.177 58.8605 86.4115 59.64 86.7981 60.3182C86.7537 62.283 85.4164 64.0639 83.42 64.5773C81.2524 65.135 79.0468 64.0132 78.1785 62.0358C82.558 60.8696 83.0777 58.3027 82.3552 55.495C81.7404 53.112 80.4348 51.312 77.3672 51.4831C76.7525 50.1521 75.8968 49.3789 74.9018 48.9923C76.3722 34.6495 87.4953 22.7089 103.758 23.9004ZM128.571 67.1505C125.314 66.6118 122.005 66.1935 118.672 65.9083C120.579 65.2871 122.253 64.0512 123.355 62.4287C123.774 62.5555 124.224 62.6252 124.686 62.6252C124.769 62.6252 124.851 62.6189 124.927 62.6189C125.58 64.4569 126.886 66.073 128.571 67.1505ZM111.751 40.7973C111.751 39.9544 111.497 39.1812 111.053 38.5347V34.8397C111.497 34.1932 111.751 33.4136 111.751 32.577C111.751 31.7341 111.497 30.9609 111.053 30.3207V26.6194C111.497 25.9792 111.751 25.1997 111.751 24.3631C111.751 24.2046 111.744 24.0462 111.719 23.9004C127.988 22.7089 139.111 34.6495 140.576 48.9923C139.587 49.3789 138.738 50.1521 138.11 51.4831C135.049 51.312 133.737 53.112 133.128 55.495C132.4 58.3027 132.926 60.8696 137.305 62.0358C136.431 64.0132 134.231 65.135 132.064 64.5773C130.061 64.0639 128.724 62.283 128.679 60.3182C129.072 59.64 129.3 58.8605 129.3 58.0175C129.3 55.4697 127.24 53.4035 124.686 53.4035C122.145 53.4035 120.079 55.4697 120.079 58.0175C120.079 58.4738 120.148 58.9112 120.275 59.3358C119.717 61.1928 118 62.5428 115.953 62.5428C113.722 62.5428 111.871 60.9076 111.522 58.7654C116.048 58.7337 117.189 56.376 117.189 53.4796C117.189 51.0204 116.371 48.9479 113.36 48.3585C112.891 45.8423 111.345 44.7902 109.361 44.4607C110.768 43.8395 111.751 42.4325 111.751 40.7973ZM140.848 63.4111C140.544 66.1871 141.666 68.8744 143.706 70.6237C140.797 69.7617 137.844 69.0012 134.852 68.3547C137.495 67.8096 139.777 65.9906 140.848 63.4111ZM56.0274 82.1207C71.7455 74.7116 89.2192 70.5983 107.739 70.5983C126.264 70.5983 143.821 74.737 159.532 82.1461L159.368 82.0953C160.66 82.7038 162.201 82.1461 162.809 80.8468C163.151 80.1242 163.126 79.3193 162.809 78.6412C165.408 79.4398 168.209 78.901 170.319 77.2785C172.677 78.8757 175.13 78.1215 176.968 76.6891C178.907 75.1743 180.555 71.587 178.204 69.6159C180.017 67.2519 179.554 64.216 177.348 62.8217C177.748 62.1499 177.969 61.3639 177.969 60.521C177.969 58.3154 176.41 56.4711 174.331 56.0337C175.409 55.1971 176.1 53.8915 176.1 52.4275C176.1 50.0444 174.274 48.086 171.948 47.8641C172.43 47.1353 172.715 46.2606 172.715 45.3226C172.715 42.7875 170.662 40.734 168.127 40.734C167.715 40.734 167.309 40.7973 166.922 40.8987C167.189 40.322 167.334 39.6819 167.334 39.0037C167.334 36.4685 165.287 34.415 162.752 34.415C161.998 34.415 161.288 34.5988 160.673 34.9157C160.711 34.6876 160.736 34.4467 160.736 34.1995C160.736 31.6707 158.677 29.6172 156.141 29.6172C155.165 29.6172 154.259 29.9214 153.524 30.4411C153.068 28.3813 151.236 26.8349 149.037 26.8349C147.414 26.8349 146.001 27.6778 145.183 28.9454C144.34 28.0201 143.136 27.4433 141.792 27.4433C141.431 27.4433 141.089 27.4813 140.753 27.5637C140.956 27.0503 141.064 26.4926 141.064 25.9159C141.064 23.3743 139.016 21.3209 136.481 21.3209C135.588 21.3209 134.764 21.5807 134.054 22.0244C134.092 21.7835 134.117 21.5363 134.117 21.2892C134.117 18.7603 132.064 16.7005 129.535 16.7005C128.502 16.7005 127.557 17.0427 126.797 17.6195C126.341 15.566 124.509 14.0259 122.322 14.0259C121.048 14.0259 119.901 14.5393 119.071 15.3695C118.342 13.8167 116.758 12.7329 114.92 12.7329C114.4 12.7329 113.899 12.8217 113.43 12.9801C112.625 12.0611 111.592 11.3386 110.42 10.8949C110.153 10.7872 109.875 10.6985 109.596 10.6224V7.12386H113.056V3.61265H109.596V0.494383H105.888V3.61265H102.427V7.12386H105.888V10.6224C105.603 10.6985 105.324 10.7872 105.058 10.8949C103.892 11.3386 102.858 12.0611 102.047 12.9801C101.578 12.8217 101.084 12.7329 100.558 12.7329C98.7261 12.7329 97.1416 13.8167 96.4128 15.3695C95.5825 14.5393 94.4353 14.0259 93.1614 14.0259C90.9685 14.0259 89.1431 15.566 88.6868 17.6195C87.9263 17.0427 86.9756 16.7005 85.9488 16.7005C83.4136 16.7005 81.3602 18.7603 81.3602 21.2892C81.3602 21.5363 81.3855 21.7835 81.4299 22.0244C80.72 21.5807 79.8961 21.3209 79.0024 21.3209C76.4673 21.3209 74.4138 23.3743 74.4138 25.9159C74.4138 26.4926 74.5279 27.0503 74.7243 27.5637C74.3948 27.4813 74.0462 27.4433 73.6912 27.4433C72.3476 27.4433 71.1371 28.0201 70.3004 28.9454C69.4892 27.6778 68.0632 26.8349 66.447 26.8349C64.2477 26.8349 62.4097 28.3813 61.9661 30.4411C61.2182 29.9214 60.3182 29.6172 59.3358 29.6172C56.807 29.6172 54.7535 31.6707 54.7535 34.1995C54.7535 34.4467 54.7788 34.6876 54.8105 34.9157C54.1831 34.5988 53.4796 34.415 52.7317 34.415C50.1965 34.415 48.143 36.4685 48.143 39.0037C48.143 39.6819 48.2951 40.322 48.555 40.8987C48.1747 40.7973 47.7754 40.734 47.3508 40.734C44.8219 40.734 42.7684 42.7875 42.7684 45.3226C42.7684 46.2606 43.0473 47.1353 43.5353 47.8641C41.2093 48.086 39.384 50.0444 39.384 52.4275C39.384 53.8915 40.0748 55.1971 41.1459 56.0337C39.0734 56.4711 37.5143 58.3154 37.5143 60.521C37.5143 61.3639 37.7361 62.1499 38.1291 62.8217C35.9298 64.216 35.4608 67.2519 37.2798 69.6159C34.9284 71.587 36.5763 75.1743 38.5157 76.6891C40.3537 78.1215 42.8065 78.8757 45.1642 77.2785C47.2684 78.901 50.0761 79.4398 52.6746 78.6412C52.3577 79.3193 52.3324 80.1242 52.6746 80.8468C53.2831 82.1461 54.7345 82.7291 56.0274 82.1207Z" fill="#FABD00"/>
<mask id="mask0_528_141" style="mask-type:luminance" maskUnits="userSpaceOnUse" x="0" y="0" width="216" height="300">
<path d="M0 0.000434573V299.994H215.484V0.000434573" fill="white"/>
</mask>
<g mask="url(#mask0_528_141)">
<path d="M56.0338 82.1274C71.7455 74.7183 89.2256 70.5987 107.745 70.5987C126.271 70.5987 143.827 74.7437 159.539 82.1464L159.374 82.102C160.667 82.7041 162.207 82.1464 162.815 80.8534C163.158 80.1246 163.132 79.3197 162.809 78.6478C165.408 79.4464 168.215 78.9077 170.326 77.2852C172.684 78.8823 175.13 78.1218 176.968 76.6894C178.907 75.1747 180.555 71.5937 178.21 69.6226C180.023 67.2586 179.554 64.2227 177.355 62.8283C177.748 62.1502 177.976 61.3706 177.976 60.5277C177.976 58.3221 176.417 56.4777 174.338 56.0404C175.409 55.1975 176.1 53.8982 176.1 52.4278C176.1 50.0447 174.281 48.0863 171.955 47.8645C172.436 47.1419 172.715 46.2673 172.715 45.323C172.715 42.7941 170.662 40.7406 168.133 40.7406C167.721 40.7406 167.309 40.7977 166.929 40.8991C167.195 40.3287 167.341 39.6822 167.341 39.004C167.341 36.4689 165.294 34.4154 162.758 34.4154C162.004 34.4154 161.294 34.6055 160.679 34.9224C160.711 34.6879 160.737 34.4534 160.737 34.2062C160.737 31.671 158.683 29.6175 156.148 29.6175C155.165 29.6175 154.265 29.9281 153.524 30.4478C153.074 28.3816 151.236 26.8352 149.043 26.8352C147.421 26.8352 146.001 27.6781 145.183 28.9521C144.347 28.0267 143.136 27.45 141.792 27.45C141.438 27.45 141.095 27.488 140.759 27.5641C140.962 27.0507 141.07 26.4993 141.07 25.9162C141.07 23.381 139.023 21.3275 136.481 21.3275C135.588 21.3275 134.764 21.5874 134.06 22.0247C134.098 21.7902 134.124 21.543 134.124 21.2958C134.124 18.7607 132.07 16.7072 129.535 16.7072C128.508 16.7072 127.564 17.0494 126.797 17.6198C126.341 15.5663 124.515 14.0326 122.322 14.0326C121.055 14.0326 119.901 14.5396 119.077 15.3762C118.342 13.8171 116.764 12.7396 114.926 12.7396C114.4 12.7396 113.906 12.8283 113.436 12.9868C112.625 12.0615 111.598 11.3389 110.426 10.8953C110.16 10.7939 109.881 10.7051 109.596 10.6291V7.13054H113.056V3.61299H109.596V0.49472H105.894V3.61299H102.434V7.13054H105.894V10.6291C105.609 10.7051 105.33 10.7939 105.064 10.8953C103.892 11.3389 102.858 12.0615 102.054 12.9868C101.585 12.8283 101.084 12.7396 100.564 12.7396C98.7261 12.7396 97.148 13.8171 96.4128 15.3762C95.5825 14.5396 94.4354 14.0326 93.1678 14.0326C90.9748 14.0326 89.1432 15.5663 88.6868 17.6198C87.9263 17.0494 86.9756 16.7072 85.9552 16.7072C83.42 16.7072 81.3665 18.7607 81.3665 21.2958C81.3665 21.543 81.3919 21.7902 81.4362 22.0247C80.7264 21.5874 79.8961 21.3275 79.0025 21.3275C76.4736 21.3275 74.4138 23.381 74.4138 25.9162C74.4138 26.4993 74.5279 27.0507 74.7307 27.5641C74.3948 27.488 74.0525 27.45 73.6913 27.45C72.3476 27.45 71.1434 28.0267 70.3068 28.9521C69.4892 27.6781 68.0695 26.8352 66.447 26.8352C64.2478 26.8352 62.4161 28.3816 61.9724 30.4478C61.2246 29.9281 60.3182 29.6175 59.3422 29.6175C56.8133 29.6175 54.7535 31.671 54.7535 34.2062C54.7535 34.4534 54.7789 34.6879 54.8169 34.9224C54.1894 34.6055 53.4859 34.4154 52.7317 34.4154C50.1965 34.4154 48.1494 36.4689 48.1494 39.004C48.1494 39.6822 48.2952 40.3287 48.5614 40.8991C48.1747 40.7977 47.7754 40.7406 47.3571 40.7406C44.822 40.7406 42.7685 42.7941 42.7685 45.323C42.7685 46.2673 43.0537 47.1419 43.5417 47.8645C41.2093 48.0863 39.3904 50.0447 39.3904 52.4278C39.3904 53.8982 40.0812 55.1975 41.1523 56.0404C39.0735 56.4777 37.5143 58.3221 37.5143 60.5277C37.5143 61.3706 37.7425 62.1502 38.1354 62.8283C35.9362 64.2227 35.4672 67.2586 37.2798 69.6226C34.9284 71.5937 36.5826 75.1747 38.5221 76.6894C40.3601 78.1218 42.8128 78.8823 45.1706 77.2852C47.2748 78.9077 50.0761 79.4464 52.681 78.6478C52.3578 79.3197 52.3324 80.1246 52.681 80.8534C53.2831 82.1464 54.7408 82.7295 56.0338 82.1274Z" stroke="#004798" stroke-width="0.988719" stroke-linejoin="round"/>
</g>
<path d="M140.848 63.4114C140.55 66.1875 141.666 68.8748 143.706 70.624C140.797 69.7621 137.85 69.0015 134.852 68.355C137.495 67.81 139.777 65.991 140.848 63.4114Z" stroke="#004798" stroke-width="0.988719" stroke-linejoin="round"/>
<path d="M111.75 40.7974C111.75 39.9608 111.497 39.1812 111.053 38.5411V34.8397C111.497 34.1996 111.75 33.42 111.75 32.5771C111.75 31.7405 111.497 30.9609 111.053 30.3208V26.6194C111.497 25.9793 111.75 25.1997 111.75 24.3631C111.75 24.2047 111.744 24.0525 111.719 23.9004C127.988 22.7089 139.111 34.6559 140.575 48.9923C139.587 49.3789 138.731 50.1522 138.11 51.4895C135.049 51.312 133.737 53.112 133.128 55.4951C132.399 58.3091 132.926 60.876 137.305 62.0358C136.43 64.0196 134.231 65.1414 132.057 64.5837C130.061 64.064 128.723 62.2893 128.679 60.3182C129.072 59.6464 129.3 58.8605 129.3 58.0176C129.3 55.4697 127.24 53.4035 124.686 53.4035C122.145 53.4035 120.079 55.4697 120.079 58.0176C120.079 58.4802 120.148 58.9175 120.275 59.3359C119.717 61.1929 118 62.5492 115.953 62.5492C113.722 62.5492 111.871 60.9077 111.522 58.7718C116.048 58.7401 117.188 56.3824 117.188 53.4796C117.188 51.0205 116.371 48.9543 113.36 48.3585C112.891 45.8487 111.345 44.7903 109.361 44.467C110.768 43.8396 111.75 42.4389 111.75 40.7974Z" stroke="#004798" stroke-width="0.988719" stroke-linejoin="round"/>
<path d="M128.571 67.1509C125.314 66.6122 122.005 66.1939 118.672 65.9086C120.579 65.2875 122.252 64.0516 123.349 62.4291C123.774 62.5559 124.224 62.6256 124.686 62.6256C124.769 62.6256 124.845 62.6193 124.927 62.6193C125.58 64.4573 126.879 66.0734 128.571 67.1509Z" stroke="#004798" stroke-width="0.988719" stroke-linejoin="round"/>
<path d="M103.752 23.9004C103.733 24.0525 103.727 24.2047 103.727 24.3631C103.727 25.1997 103.987 25.9793 104.424 26.6194V30.3208C103.987 30.9609 103.727 31.7405 103.727 32.5771C103.727 33.42 103.987 34.1996 104.424 34.8397V38.5411C103.987 39.1812 103.727 39.9608 103.727 40.7974C103.727 42.4389 104.709 43.8396 106.116 44.467C104.126 44.7966 102.586 45.8487 102.117 48.3585C99.1063 48.9543 98.2824 51.0205 98.2824 53.4796C98.2824 56.3824 99.4296 58.7401 103.961 58.7718C103.606 60.9077 101.756 62.5492 99.5183 62.5492C97.4775 62.5492 95.7599 61.1929 95.2022 59.3359C95.3289 58.9175 95.3986 58.4802 95.3986 58.0176C95.3986 55.4697 93.3325 53.4035 90.7846 53.4035C88.2368 53.4035 86.1706 55.4697 86.1706 58.0176C86.1706 58.8605 86.4051 59.6464 86.7917 60.3182C86.7537 62.2893 85.4164 64.064 83.4136 64.5837C81.246 65.1414 79.0404 64.0196 78.1721 62.0358C82.5516 60.876 83.0777 58.3091 82.3552 55.4951C81.7404 53.112 80.4348 51.312 77.3672 51.4895C76.7461 50.1522 75.8905 49.3789 74.9017 48.9923C76.3658 34.6559 87.4889 22.7089 103.752 23.9004Z" stroke="#004798" stroke-width="0.988719" stroke-linejoin="round"/>
<path d="M96.7993 65.915C93.4592 66.2002 90.1571 66.6185 86.8994 67.1572C88.5853 66.0798 89.8909 64.4573 90.5437 62.6193C90.6261 62.6193 90.7022 62.6256 90.7782 62.6256C91.2472 62.6256 91.6972 62.5622 92.1219 62.4291C93.2183 64.0516 94.8916 65.2939 96.7993 65.915Z" stroke="#004798" stroke-width="0.988719" stroke-linejoin="round"/>
<path d="M74.6229 63.4178C75.694 65.9973 77.9757 67.8163 80.6186 68.3614C77.6271 69.0079 74.6736 69.7684 71.7645 70.6304C73.8053 68.8811 74.9272 66.1938 74.6229 63.4178Z" stroke="#004798" stroke-width="0.988719" stroke-linejoin="round"/>
<path d="M48.669 74.9402C51.9648 73.2924 52.0852 70.884 51.1408 68.3932C50.5324 66.8087 49.5817 65.3383 48.0859 64.8819C49.1317 51.5025 53.0549 44.9871 65.5533 38.6682L65.5723 38.6239C65.5533 38.8013 65.5343 38.9788 65.5343 39.1689C65.5343 40.6393 66.2251 41.9386 67.3026 42.7815C65.2174 43.2125 63.6519 45.0569 63.6519 47.2688C63.6519 49.3477 65.0399 51.1033 66.935 51.661C66.5737 52.3708 66.4026 53.2328 66.466 54.2912C63.7026 55.6159 63.4237 57.8215 64.0385 60.2045C64.7547 63.0186 66.4533 65.015 70.8455 63.9186C71.042 66.0735 69.6539 68.1206 67.4864 68.6784C65.6674 69.1474 63.823 68.4375 62.7583 67.0178C62.7456 66.7009 62.7012 66.384 62.6188 66.0671C61.985 63.6017 59.4689 62.1123 57.0034 62.7461C54.538 63.3798 53.0549 65.896 53.6887 68.3615C53.8725 69.0967 54.2337 69.7431 54.7091 70.2755C54.8802 72.0121 54.0246 73.7614 52.3957 74.6614C51.2042 75.3142 49.8542 75.3776 48.669 74.9402Z" stroke="#004798" stroke-width="0.988719" stroke-linejoin="round"/>
<path d="M65.642 72.6077C62.5111 73.7041 59.4372 74.9273 56.433 76.2646C57.5992 75.0034 58.3977 73.4316 58.702 71.7837C58.9048 71.7584 59.1013 71.7267 59.3041 71.6823C59.9062 71.5239 60.4449 71.2577 60.9202 70.9028C62.2702 71.8915 63.9308 72.4936 65.642 72.6077Z" stroke="#004798" stroke-width="0.988719" stroke-linejoin="round"/>
<path d="M103.093 65.5347C105.546 64.3621 107.333 62.0171 107.732 59.2284C108.132 62.0171 109.919 64.3621 112.372 65.5347C110.832 65.4776 109.285 65.4523 107.732 65.4523C106.179 65.4523 104.633 65.4776 103.093 65.5347Z" stroke="#004798" stroke-width="0.988719" stroke-linejoin="round"/>
<path d="M149.816 72.6076C151.534 72.4936 153.188 71.8915 154.544 70.9027C155.013 71.2577 155.552 71.5239 156.154 71.6823C156.357 71.7267 156.553 71.7584 156.756 71.7837C157.06 73.4316 157.859 75.0034 159.025 76.2583C156.015 74.9273 152.947 73.7041 149.816 72.6076Z" stroke="#004798" stroke-width="0.988719" stroke-linejoin="round"/>
<path d="M166.789 74.9402C165.604 75.3776 164.248 75.3142 163.062 74.6614C161.434 73.7614 160.578 72.0121 160.749 70.2755C161.218 69.7431 161.579 69.0967 161.77 68.3615C162.41 65.896 160.92 63.3798 158.448 62.7461C155.983 62.1123 153.473 63.6017 152.833 66.0671C152.757 66.384 152.713 66.7009 152.7 67.0178C151.635 68.4375 149.791 69.1474 147.966 68.6784C145.798 68.1206 144.416 66.0735 144.606 63.9186C149.005 65.015 150.704 63.0186 151.42 60.2045C152.034 57.8215 151.756 55.6159 148.986 54.2912C149.056 53.2328 148.885 52.3708 148.523 51.661C150.418 51.1033 151.806 49.3477 151.806 47.2688C151.806 45.0569 150.241 43.2125 148.156 42.7815C149.233 41.9386 149.924 40.6393 149.924 39.1689C149.924 38.9788 149.905 38.8013 149.886 38.6239L149.905 38.6682C162.397 44.9871 166.32 51.5025 167.366 64.8819C165.87 65.3383 164.926 66.8087 164.317 68.3932C163.373 70.884 163.487 73.2924 166.789 74.9402Z" stroke="#004798" stroke-width="0.988719" stroke-linejoin="round"/>
<path d="M103.15 17.3218C103.15 18.7542 101.99 19.9077 100.558 19.9077C99.1254 19.9077 97.9656 18.7542 97.9656 17.3218C97.9656 15.8895 99.1254 14.7296 100.558 14.7296C101.99 14.7296 103.15 15.8895 103.15 17.3218Z" fill="white"/>
<path d="M103.15 17.3218C103.15 18.7542 101.99 19.9077 100.558 19.9077C99.1254 19.9077 97.9656 18.7542 97.9656 17.3218C97.9656 15.8895 99.1254 14.7296 100.558 14.7296C101.99 14.7296 103.15 15.8895 103.15 17.3218Z" stroke="#004798" stroke-width="0.665484" stroke-linejoin="round"/>
<path d="M110.337 24.3633C110.337 25.7957 109.177 26.9492 107.745 26.9492C106.313 26.9492 105.153 25.7957 105.153 24.3633C105.153 22.931 106.313 21.7711 107.745 21.7711C109.177 21.7711 110.337 22.931 110.337 24.3633Z" fill="white"/>
<path d="M110.337 24.3633C110.337 25.7957 109.177 26.9492 107.745 26.9492C106.313 26.9492 105.153 25.7957 105.153 24.3633C105.153 22.931 106.313 21.7711 107.745 21.7711C109.177 21.7711 110.337 22.931 110.337 24.3633Z" stroke="#004798" stroke-width="0.665484" stroke-linejoin="round"/>
<path d="M110.337 32.5772C110.337 34.0096 109.177 35.1694 107.745 35.1694C106.313 35.1694 105.153 34.0096 105.153 32.5772C105.153 31.1448 106.313 29.985 107.745 29.985C109.177 29.985 110.337 31.1448 110.337 32.5772Z" fill="white"/>
<path d="M110.337 32.5772C110.337 34.0096 109.177 35.1694 107.745 35.1694C106.313 35.1694 105.153 34.0096 105.153 32.5772C105.153 31.1448 106.313 29.985 107.745 29.985C109.177 29.985 110.337 31.1448 110.337 32.5772Z" stroke="#004798" stroke-width="0.665484" stroke-linejoin="round"/>
<path d="M110.337 40.7974C110.337 42.2298 109.177 43.3896 107.745 43.3896C106.313 43.3896 105.153 42.2298 105.153 40.7974C105.153 39.3651 106.313 38.2116 107.745 38.2116C109.177 38.2116 110.337 39.3651 110.337 40.7974Z" fill="white"/>
<path d="M110.337 40.7974C110.337 42.2298 109.177 43.3896 107.745 43.3896C106.313 43.3896 105.153 42.2298 105.153 40.7974C105.153 39.3651 106.313 38.2116 107.745 38.2116C109.177 38.2116 110.337 39.3651 110.337 40.7974Z" stroke="#004798" stroke-width="0.665484" stroke-linejoin="round"/>
<path d="M95.7535 18.6148C95.7535 20.0472 94.5937 21.2007 93.1613 21.2007C91.7353 21.2007 90.5754 20.0472 90.5754 18.6148C90.5754 17.1824 91.7353 16.0226 93.1613 16.0226C94.5937 16.0226 95.7535 17.1824 95.7535 18.6148Z" fill="white"/>
<path d="M95.7535 18.6148C95.7535 20.0472 94.5937 21.2007 93.1613 21.2007C91.7353 21.2007 90.5754 20.0472 90.5754 18.6148C90.5754 17.1824 91.7353 16.0226 93.1613 16.0226C94.5937 16.0226 95.7535 17.1824 95.7535 18.6148Z" stroke="#004798" stroke-width="0.665484" stroke-linejoin="round"/>
<path d="M88.541 21.2891C88.541 22.7215 87.3812 23.875 85.9488 23.875C84.5228 23.875 83.3629 22.7215 83.3629 21.2891C83.3629 19.8567 84.5228 18.6969 85.9488 18.6969C87.3812 18.6969 88.541 19.8567 88.541 21.2891Z" fill="white"/>
<path d="M88.541 21.2891C88.541 22.7215 87.3812 23.875 85.9488 23.875C84.5228 23.875 83.3629 22.7215 83.3629 21.2891C83.3629 19.8567 84.5228 18.6969 85.9488 18.6969C87.3812 18.6969 88.541 19.8567 88.541 21.2891Z" stroke="#004798" stroke-width="0.665484" stroke-linejoin="round"/>
<path d="M81.5883 25.9161C81.5883 27.3484 80.4284 28.502 79.0024 28.502C77.57 28.502 76.4102 27.3484 76.4102 25.9161C76.4102 24.4837 77.57 23.3239 79.0024 23.3239C80.4284 23.3239 81.5883 24.4837 81.5883 25.9161Z" fill="white"/>
<path d="M81.5883 25.9161C81.5883 27.3484 80.4284 28.502 79.0024 28.502C77.57 28.502 76.4102 27.3484 76.4102 25.9161C76.4102 24.4837 77.57 23.3239 79.0024 23.3239C80.4284 23.3239 81.5883 24.4837 81.5883 25.9161Z" stroke="#004798" stroke-width="0.665484" stroke-linejoin="round"/>
<path d="M76.2834 32.0323C76.2834 33.4647 75.1236 34.6182 73.6912 34.6182C72.2589 34.6182 71.1053 33.4647 71.1053 32.0323C71.1053 30.5999 72.2589 29.4401 73.6912 29.4401C75.1236 29.4401 76.2834 30.5999 76.2834 32.0323Z" fill="white"/>
<path d="M76.2834 32.0323C76.2834 33.4647 75.1236 34.6182 73.6912 34.6182C72.2589 34.6182 71.1053 33.4647 71.1053 32.0323C71.1053 30.5999 72.2589 29.4401 73.6912 29.4401C75.1236 29.4401 76.2834 30.5999 76.2834 32.0323Z" stroke="#004798" stroke-width="0.665484" stroke-linejoin="round"/>
<path d="M69.0328 31.4234C69.0328 32.8558 67.873 34.0156 66.447 34.0156C65.0082 34.0156 63.8547 32.8558 63.8547 31.4234C63.8547 29.991 65.0082 28.8375 66.447 28.8375C67.873 28.8375 69.0328 29.991 69.0328 31.4234Z" fill="white"/>
<path d="M69.0328 31.4234C69.0328 32.8558 67.873 34.0156 66.447 34.0156C65.0082 34.0156 63.8547 32.8558 63.8547 31.4234C63.8547 29.991 65.0082 28.8375 66.447 28.8375C67.873 28.8375 69.0328 29.991 69.0328 31.4234Z" stroke="#004798" stroke-width="0.665484" stroke-linejoin="round"/>
<path d="M61.928 34.2061C61.928 35.6385 60.7681 36.7983 59.3421 36.7983C57.9097 36.7983 56.7499 35.6385 56.7499 34.2061C56.7499 32.7737 57.9097 31.6139 59.3421 31.6139C60.7681 31.6139 61.928 32.7737 61.928 34.2061Z" fill="white"/>
<path d="M61.928 34.2061C61.928 35.6385 60.7681 36.7983 59.3421 36.7983C57.9097 36.7983 56.7499 35.6385 56.7499 34.2061C56.7499 32.7737 57.9097 31.6139 59.3421 31.6139C60.7681 31.6139 61.928 32.7737 61.928 34.2061Z" stroke="#004798" stroke-width="0.665484" stroke-linejoin="round"/>
<path d="M55.3175 39.004C55.3175 40.4363 54.1577 41.5962 52.7316 41.5962C51.2929 41.5962 50.1394 40.4363 50.1394 39.004C50.1394 37.5716 51.2929 36.4181 52.7316 36.4181C54.1577 36.4181 55.3175 37.5716 55.3175 39.004Z" fill="white"/>
<path d="M55.3175 39.004C55.3175 40.4363 54.1577 41.5962 52.7316 41.5962C51.2929 41.5962 50.1394 40.4363 50.1394 39.004C50.1394 37.5716 51.2929 36.4181 52.7316 36.4181C54.1577 36.4181 55.3175 37.5716 55.3175 39.004Z" stroke="#004798" stroke-width="0.665484" stroke-linejoin="round"/>
<path d="M49.9493 45.3228C49.9493 46.7552 48.7895 47.915 47.3571 47.915C45.9247 47.915 44.7712 46.7552 44.7712 45.3228C44.7712 43.8904 45.9247 42.7306 47.3571 42.7306C48.7895 42.7306 49.9493 43.8904 49.9493 45.3228Z" fill="white"/>
<path d="M49.9493 45.3228C49.9493 46.7552 48.7895 47.915 47.3571 47.915C45.9247 47.915 44.7712 46.7552 44.7712 45.3228C44.7712 43.8904 45.9247 42.7306 47.3571 42.7306C48.7895 42.7306 49.9493 43.8904 49.9493 45.3228Z" stroke="#004798" stroke-width="0.665484" stroke-linejoin="round"/>
<path d="M46.5648 52.4278C46.5648 53.8602 45.405 55.02 43.9726 55.02C42.5402 55.02 41.3804 53.8602 41.3804 52.4278C41.3804 50.9954 42.5402 49.8419 43.9726 49.8419C45.405 49.8419 46.5648 50.9954 46.5648 52.4278Z" fill="white"/>
<path d="M46.5648 52.4278C46.5648 53.8602 45.405 55.02 43.9726 55.02C42.5402 55.02 41.3804 53.8602 41.3804 52.4278C41.3804 50.9954 42.5402 49.8419 43.9726 49.8419C45.405 49.8419 46.5648 50.9954 46.5648 52.4278Z" stroke="#004798" stroke-width="0.665484" stroke-linejoin="round"/>
<path d="M44.6888 60.5211C44.6888 61.9534 43.529 63.1133 42.103 63.1133C40.6642 63.1133 39.5107 61.9534 39.5107 60.5211C39.5107 59.0887 40.6642 57.9352 42.103 57.9352C43.529 57.9352 44.6888 59.0887 44.6888 60.5211Z" fill="white"/>
<path d="M44.6888 60.5211C44.6888 61.9534 43.529 63.1133 42.103 63.1133C40.6642 63.1133 39.5107 61.9534 39.5107 60.5211C39.5107 59.0887 40.6642 57.9352 42.103 57.9352C43.529 57.9352 44.6888 59.0887 44.6888 60.5211Z" stroke="#004798" stroke-width="0.665484" stroke-linejoin="round"/>
<path d="M95.8043 77.1583C95.8043 78.5906 94.6445 79.7505 93.2121 79.7505C91.7797 79.7505 90.6199 78.5906 90.6199 77.1583C90.6199 75.7259 91.7797 74.5724 93.2121 74.5724C94.6445 74.5724 95.8043 75.7259 95.8043 77.1583Z" fill="white"/>
<path d="M95.8043 77.1583C95.8043 78.5906 94.6445 79.7505 93.2121 79.7505C91.7797 79.7505 90.6199 78.5906 90.6199 77.1583C90.6199 75.7259 91.7797 74.5724 93.2121 74.5724C94.6445 74.5724 95.8043 75.7259 95.8043 77.1583Z" stroke="#004798" stroke-width="0.665484" stroke-linejoin="round"/>
<path d="M67.7843 84.7257C67.7843 86.158 66.6245 87.3179 65.1921 87.3179C63.766 87.3179 62.6062 86.158 62.6062 84.7257C62.6062 83.2933 63.766 82.1334 65.1921 82.1334C66.6245 82.1334 67.7843 83.2933 67.7843 84.7257Z" fill="white"/>
<path d="M67.7843 84.7257C67.7843 86.158 66.6245 87.3179 65.1921 87.3179C63.766 87.3179 62.6062 86.158 62.6062 84.7257C62.6062 83.2933 63.766 82.1334 65.1921 82.1334C66.6245 82.1334 67.7843 83.2933 67.7843 84.7257Z" stroke="#004798" stroke-width="0.665484" stroke-linejoin="round"/>
<path d="M72.7279 39.1622C72.7279 40.5946 71.5681 41.7544 70.1357 41.7544C68.7096 41.7544 67.5498 40.5946 67.5498 39.1622C67.5498 37.7298 68.7096 36.57 70.1357 36.57C71.5681 36.57 72.7279 37.7298 72.7279 39.1622Z" fill="white"/>
<path d="M72.7279 39.1622C72.7279 40.5946 71.5681 41.7544 70.1357 41.7544C68.7096 41.7544 67.5498 40.5946 67.5498 39.1622C67.5498 37.7298 68.7096 36.57 70.1357 36.57C71.5681 36.57 72.7279 37.7298 72.7279 39.1622Z" stroke="#004798" stroke-width="0.665484" stroke-linejoin="round"/>
<path d="M70.8455 47.2686C70.8455 48.701 69.6856 49.8545 68.2532 49.8545C66.8209 49.8545 65.6674 48.701 65.6674 47.2686C65.6674 45.8362 66.8209 44.6764 68.2532 44.6764C69.6856 44.6764 70.8455 45.8362 70.8455 47.2686Z" fill="white"/>
<path d="M70.8455 47.2686C70.8455 48.701 69.6856 49.8545 68.2532 49.8545C66.8209 49.8545 65.6674 48.701 65.6674 47.2686C65.6674 45.8362 66.8209 44.6764 68.2532 44.6764C69.6856 44.6764 70.8455 45.8362 70.8455 47.2686Z" stroke="#004798" stroke-width="0.665484" stroke-linejoin="round"/>
<path d="M112.137 52.5419C112.137 54.9693 110.166 56.9341 107.739 56.9341C105.318 56.9341 103.346 54.9693 103.346 52.5419C103.346 50.1145 105.318 48.1434 107.739 48.1434C110.166 48.1434 112.137 50.1145 112.137 52.5419Z" fill="white"/>
<path d="M112.137 52.5419C112.137 54.9693 110.166 56.9341 107.739 56.9341C105.318 56.9341 103.346 54.9693 103.346 52.5419C103.346 50.1145 105.318 48.1434 107.739 48.1434C110.166 48.1434 112.137 50.1145 112.137 52.5419Z" stroke="#004798" stroke-width="0.665484" stroke-linejoin="round"/>
<path d="M77.2278 55.8436C77.8299 58.195 76.4166 60.5844 74.0652 61.1928C71.7138 61.7949 69.3181 60.3816 68.7096 58.0302C68.1075 55.6788 69.5209 53.2831 71.8786 52.681C74.2236 52.0725 76.6194 53.4859 77.2278 55.8436Z" fill="white"/>
<path d="M77.2278 55.8436C77.8299 58.195 76.4166 60.5844 74.0652 61.1928C71.7138 61.7949 69.3181 60.3816 68.7096 58.0302C68.1075 55.6788 69.5209 53.2831 71.8786 52.681C74.2236 52.0725 76.6194 53.4859 77.2278 55.8436Z" stroke="#004798" stroke-width="0.665484" stroke-linejoin="round"/>
<path d="M46.8247 68.9759C47.9972 71.0991 47.224 73.7737 45.0944 74.9462C42.9649 76.1187 40.2966 75.3392 39.1241 73.216C37.9516 71.0864 38.7311 68.4181 40.8543 67.2456C42.9839 66.0731 45.6522 66.8463 46.8247 68.9759Z" fill="white"/>
<path d="M46.8247 68.9759C47.9972 71.0991 47.224 73.7737 45.0944 74.9462C42.9649 76.1187 40.2966 75.3392 39.1241 73.216C37.9516 71.0864 38.7311 68.4181 40.8543 67.2456C42.9839 66.0731 45.6522 66.8463 46.8247 68.9759Z" stroke="#004798" stroke-width="0.665484" stroke-linejoin="round"/>
<path d="M112.334 17.3218C112.334 18.7542 113.493 19.9077 114.919 19.9077C116.358 19.9077 117.512 18.7542 117.512 17.3218C117.512 15.8895 116.358 14.7296 114.919 14.7296C113.493 14.7296 112.334 15.8895 112.334 17.3218Z" fill="white"/>
<path d="M112.334 17.3218C112.334 18.7542 113.493 19.9077 114.919 19.9077C116.358 19.9077 117.512 18.7542 117.512 17.3218C117.512 15.8895 116.358 14.7296 114.919 14.7296C113.493 14.7296 112.334 15.8895 112.334 17.3218Z" stroke="#004798" stroke-width="0.665484" stroke-linejoin="round"/>
<path d="M119.736 18.6148C119.736 20.0472 120.89 21.2007 122.322 21.2007C123.755 21.2007 124.914 20.0472 124.914 18.6148C124.914 17.1824 123.755 16.0226 122.322 16.0226C120.89 16.0226 119.736 17.1824 119.736 18.6148Z" fill="white"/>
<path d="M119.736 18.6148C119.736 20.0472 120.89 21.2007 122.322 21.2007C123.755 21.2007 124.914 20.0472 124.914 18.6148C124.914 17.1824 123.755 16.0226 122.322 16.0226C120.89 16.0226 119.736 17.1824 119.736 18.6148Z" stroke="#004798" stroke-width="0.665484" stroke-linejoin="round"/>
<path d="M126.943 21.2891C126.943 22.7215 128.096 23.875 129.529 23.875C130.967 23.875 132.121 22.7215 132.121 21.2891C132.121 19.8567 130.967 18.6969 129.529 18.6969C128.096 18.6969 126.943 19.8567 126.943 21.2891Z" fill="white"/>
<path d="M126.943 21.2891C126.943 22.7215 128.096 23.875 129.529 23.875C130.967 23.875 132.121 22.7215 132.121 21.2891C132.121 19.8567 130.967 18.6969 129.529 18.6969C128.096 18.6969 126.943 19.8567 126.943 21.2891Z" stroke="#004798" stroke-width="0.665484" stroke-linejoin="round"/>
<path d="M133.895 25.9161C133.895 27.3484 135.055 28.502 136.481 28.502C137.92 28.502 139.073 27.3484 139.073 25.9161C139.073 24.4837 137.92 23.3239 136.481 23.3239C135.055 23.3239 133.895 24.4837 133.895 25.9161Z" fill="white"/>
<path d="M133.895 25.9161C133.895 27.3484 135.055 28.502 136.481 28.502C137.92 28.502 139.073 27.3484 139.073 25.9161C139.073 24.4837 137.92 23.3239 136.481 23.3239C135.055 23.3239 133.895 24.4837 133.895 25.9161Z" stroke="#004798" stroke-width="0.665484" stroke-linejoin="round"/>
<path d="M139.2 32.0323C139.2 33.4647 140.36 34.6182 141.792 34.6182C143.225 34.6182 144.378 33.4647 144.378 32.0323C144.378 30.5999 143.225 29.4401 141.792 29.4401C140.36 29.4401 139.2 30.5999 139.2 32.0323Z" fill="white"/>
<path d="M139.2 32.0323C139.2 33.4647 140.36 34.6182 141.792 34.6182C143.225 34.6182 144.378 33.4647 144.378 32.0323C144.378 30.5999 143.225 29.4401 141.792 29.4401C140.36 29.4401 139.2 30.5999 139.2 32.0323Z" stroke="#004798" stroke-width="0.665484" stroke-linejoin="round"/>
<path d="M146.451 31.4234C146.451 32.8558 147.611 34.0156 149.043 34.0156C150.475 34.0156 151.629 32.8558 151.629 31.4234C151.629 29.991 150.475 28.8375 149.043 28.8375C147.611 28.8375 146.451 29.991 146.451 31.4234Z" fill="white"/>
<path d="M146.451 31.4234C146.451 32.8558 147.611 34.0156 149.043 34.0156C150.475 34.0156 151.629 32.8558 151.629 31.4234C151.629 29.991 150.475 28.8375 149.043 28.8375C147.611 28.8375 146.451 29.991 146.451 31.4234Z" stroke="#004798" stroke-width="0.665484" stroke-linejoin="round"/>
<path d="M153.556 34.2061C153.556 35.6385 154.709 36.7983 156.141 36.7983C157.574 36.7983 158.734 35.6385 158.734 34.2061C158.734 32.7737 157.574 31.6139 156.141 31.6139C154.709 31.6139 153.556 32.7737 153.556 34.2061Z" fill="white"/>
<path d="M153.556 34.2061C153.556 35.6385 154.709 36.7983 156.141 36.7983C157.574 36.7983 158.734 35.6385 158.734 34.2061C158.734 32.7737 157.574 31.6139 156.141 31.6139C154.709 31.6139 153.556 32.7737 153.556 34.2061Z" stroke="#004798" stroke-width="0.665484" stroke-linejoin="round"/>
<path d="M160.166 39.004C160.166 40.4363 161.326 41.5962 162.758 41.5962C164.191 41.5962 165.344 40.4363 165.344 39.004C165.344 37.5716 164.191 36.4181 162.758 36.4181C161.326 36.4181 160.166 37.5716 160.166 39.004Z" fill="white"/>
<path d="M160.166 39.004C160.166 40.4363 161.326 41.5962 162.758 41.5962C164.191 41.5962 165.344 40.4363 165.344 39.004C165.344 37.5716 164.191 36.4181 162.758 36.4181C161.326 36.4181 160.166 37.5716 160.166 39.004Z" stroke="#004798" stroke-width="0.665484" stroke-linejoin="round"/>
<path d="M165.534 45.3228C165.534 46.7552 166.694 47.915 168.127 47.915C169.559 47.915 170.719 46.7552 170.719 45.3228C170.719 43.8904 169.559 42.7306 168.127 42.7306C166.694 42.7306 165.534 43.8904 165.534 45.3228Z" fill="white"/>
<path d="M165.534 45.3228C165.534 46.7552 166.694 47.915 168.127 47.915C169.559 47.915 170.719 46.7552 170.719 45.3228C170.719 43.8904 169.559 42.7306 168.127 42.7306C166.694 42.7306 165.534 43.8904 165.534 45.3228Z" stroke="#004798" stroke-width="0.665484" stroke-linejoin="round"/>
<path d="M168.919 52.4278C168.919 53.8602 170.079 55.02 171.511 55.02C172.943 55.02 174.103 53.8602 174.103 52.4278C174.103 50.9954 172.943 49.8419 171.511 49.8419C170.079 49.8419 168.919 50.9954 168.919 52.4278Z" fill="white"/>
<path d="M168.919 52.4278C168.919 53.8602 170.079 55.02 171.511 55.02C172.943 55.02 174.103 53.8602 174.103 52.4278C174.103 50.9954 172.943 49.8419 171.511 49.8419C170.079 49.8419 168.919 50.9954 168.919 52.4278Z" stroke="#004798" stroke-width="0.665484" stroke-linejoin="round"/>
<path d="M170.795 60.5211C170.795 61.9534 171.955 63.1133 173.393 63.1133C174.819 63.1133 175.973 61.9534 175.973 60.5211C175.973 59.0887 174.819 57.9352 173.393 57.9352C171.955 57.9352 170.795 59.0887 170.795 60.5211Z" fill="white"/>
<path d="M170.795 60.5211C170.795 61.9534 171.955 63.1133 173.393 63.1133C174.819 63.1133 175.973 61.9534 175.973 60.5211C175.973 59.0887 174.819 57.9352 173.393 57.9352C171.955 57.9352 170.795 59.0887 170.795 60.5211Z" stroke="#004798" stroke-width="0.665484" stroke-linejoin="round"/>
<path d="M142.756 39.1622C142.756 40.5946 143.916 41.7544 145.348 41.7544C146.774 41.7544 147.934 40.5946 147.934 39.1622C147.934 37.7298 146.774 36.57 145.348 36.57C143.916 36.57 142.756 37.7298 142.756 39.1622Z" fill="white"/>
<path d="M142.756 39.1622C142.756 40.5946 143.916 41.7544 145.348 41.7544C146.774 41.7544 147.934 40.5946 147.934 39.1622C147.934 37.7298 146.774 36.57 145.348 36.57C143.916 36.57 142.756 37.7298 142.756 39.1622Z" stroke="#004798" stroke-width="0.665484" stroke-linejoin="round"/>
<path d="M144.638 47.2686C144.638 48.701 145.798 49.8545 147.23 49.8545C148.663 49.8545 149.822 48.701 149.822 47.2686C149.822 45.8362 148.663 44.6764 147.23 44.6764C145.798 44.6764 144.638 45.8362 144.638 47.2686Z" fill="white"/>
<path d="M144.638 47.2686C144.638 48.701 145.798 49.8545 147.23 49.8545C148.663 49.8545 149.822 48.701 149.822 47.2686C149.822 45.8362 148.663 44.6764 147.23 44.6764C145.798 44.6764 144.638 45.8362 144.638 47.2686Z" stroke="#004798" stroke-width="0.665484" stroke-linejoin="round"/>
<path d="M138.262 55.8436C137.654 58.195 139.073 60.5844 141.425 61.1928C143.776 61.7949 146.166 60.3816 146.774 58.0302C147.376 55.6788 145.963 53.2831 143.611 52.681C141.26 52.0725 138.864 53.4859 138.262 55.8436Z" fill="white"/>
<path d="M138.262 55.8436C137.654 58.195 139.073 60.5844 141.425 61.1928C143.776 61.7949 146.166 60.3816 146.774 58.0302C147.376 55.6788 145.963 53.2831 143.611 52.681C141.26 52.0725 138.864 53.4859 138.262 55.8436Z" stroke="#004798" stroke-width="0.665484" stroke-linejoin="round"/>
<path d="M168.665 68.9759C167.493 71.0991 168.266 73.7737 170.389 74.9462C172.525 76.1187 175.193 75.3392 176.366 73.216C177.538 71.0864 176.765 68.4181 174.636 67.2456C172.506 66.0731 169.831 66.8463 168.665 68.9759Z" fill="white"/>
<path d="M168.665 68.9759C167.493 71.0991 168.266 73.7737 170.389 74.9462C172.525 76.1187 175.193 75.3392 176.366 73.216C177.538 71.0864 176.765 68.4181 174.636 67.2456C172.506 66.0731 169.831 66.8463 168.665 68.9759Z" stroke="#004798" stroke-width="0.665484" stroke-linejoin="round"/>
<path d="M107.745 79.4717L115.927 76.4231L107.745 73.3746L99.5691 76.4231L107.745 79.4717Z" fill="#E7223F"/>
<path d="M107.745 79.4717L115.927 76.4231L107.745 73.3746L99.5691 76.4231L107.745 79.4717Z" stroke="#004798" stroke-width="0.665484" stroke-linejoin="round"/>
<path d="M79.7947 82.9956L86.9502 78.0013L78.2736 77.0886L71.1117 82.0766L79.7947 82.9956Z" fill="#004798"/>
<path d="M79.7947 82.9956L86.9502 78.0013L78.2736 77.0886L71.1117 82.0766L79.7947 82.9956Z" stroke="#004798" stroke-width="0.665484" stroke-linejoin="round"/>
<path d="M59.7477 90.208L60.8125 86.0376L57.1428 84.6877L56.2682 88.2686L59.7477 90.208Z" fill="#E7223F"/>
<path d="M59.7477 90.208L60.8125 86.0376L57.1428 84.6877L56.2682 88.2686L59.7477 90.208Z" stroke="#004798" stroke-width="0.665484" stroke-linejoin="round"/>
<path d="M119.686 77.1583C119.686 78.5906 120.846 79.7505 122.272 79.7505C123.71 79.7505 124.87 78.5906 124.87 77.1583C124.87 75.7259 123.71 74.5724 122.272 74.5724C120.846 74.5724 119.686 75.7259 119.686 77.1583Z" fill="white"/>
<path d="M119.686 77.1583C119.686 78.5906 120.846 79.7505 122.272 79.7505C123.71 79.7505 124.87 78.5906 124.87 77.1583C124.87 75.7259 123.71 74.5724 122.272 74.5724C120.846 74.5724 119.686 75.7259 119.686 77.1583Z" stroke="#004798" stroke-width="0.665484" stroke-linejoin="round"/>
<path d="M147.706 84.7257C147.706 86.158 148.866 87.3179 150.292 87.3179C151.73 87.3179 152.884 86.158 152.884 84.7257C152.884 83.2933 151.73 82.1334 150.292 82.1334C148.866 82.1334 147.706 83.2933 147.706 84.7257Z" fill="white"/>
<path d="M147.706 84.7257C147.706 86.158 148.866 87.3179 150.292 87.3179C151.73 87.3179 152.884 86.158 152.884 84.7257C152.884 83.2933 151.73 82.1334 150.292 82.1334C148.866 82.1334 147.706 83.2933 147.706 84.7257Z" stroke="#004798" stroke-width="0.665484" stroke-linejoin="round"/>
<path d="M135.695 82.9956L128.533 78.0013L137.216 77.0886L144.372 82.0766L135.695 82.9956Z" fill="#004798"/>
<path d="M135.695 82.9956L128.533 78.0013L137.216 77.0886L144.372 82.0766L135.695 82.9956Z" stroke="#004798" stroke-width="0.665484" stroke-linejoin="round"/>
<path d="M155.742 90.208L154.677 86.0376L158.347 84.6877L159.215 88.2686L155.742 90.208Z" fill="#E7223F"/>
<path d="M155.742 90.208L154.677 86.0376L158.347 84.6877L159.215 88.2686L155.742 90.208Z" stroke="#004798" stroke-width="0.665484" stroke-linejoin="round"/>
<path d="M107.745 85.9679C166.282 85.9679 213.924 133.724 213.924 192.255C213.924 250.678 166.282 298.435 107.745 298.435C49.2077 298.435 1.56543 250.678 1.56543 192.255C1.56543 133.724 49.2077 85.9679 107.745 85.9679Z" fill="#FABD00"/>
<path d="M107.745 85.9679C166.282 85.9679 213.924 133.724 213.924 192.255C213.924 250.678 166.282 298.435 107.745 298.435C49.2077 298.435 1.56543 250.678 1.56543 192.255C1.56543 133.724 49.2077 85.9679 107.745 85.9679Z" stroke="#004798" stroke-width="3.13094"/>
<path d="M107.745 99.4613C158.791 99.4613 200.539 141.095 200.539 192.249C200.539 243.301 158.791 285.042 107.745 285.042C56.6992 285.042 14.9512 243.301 14.9512 192.249C14.9512 141.095 56.6992 99.4613 107.745 99.4613Z" fill="white"/>
<path d="M107.745 99.4613C158.791 99.4613 200.539 141.095 200.539 192.249C200.539 243.301 158.791 285.042 107.745 285.042C56.6992 285.042 14.9512 243.301 14.9512 192.249C14.9512 141.095 56.6992 99.4613 107.745 99.4613Z" stroke="#004798" stroke-width="3.13094"/>
<path d="M27.2214 154.741C66.6181 194.917 104.259 233.23 143.624 273.488C160.267 266.098 174.243 253.739 183.642 238.313L63.9815 114.888C47.9718 124.002 35.0551 137.958 27.2214 154.741Z" fill="#004798"/>
<path d="M107.625 159.475L107.289 159.247L97.0718 148.701C100.596 147.902 104.449 147.452 106.946 147.566C107.054 147.566 107.175 147.566 107.289 147.566C110.8 147.674 114.21 148.245 117.493 149.043L107.625 159.475ZM149.708 115.351L129.408 136.45H129.288L128.838 136.906C122.601 134.517 115.566 133.04 107.739 132.932C107.625 132.932 107.396 132.932 107.289 132.932C100.139 132.932 92.312 134.288 85.7333 136.906L65.3124 115.579C38.541 130.549 20.2814 159.247 20.2814 191.919C20.2814 213.811 28.3369 232.869 41.9444 248.181L52.383 237.514C45.6902 231.164 33.4389 213.468 34.1171 191.121C34.9157 168.323 44.2134 149.151 62.3653 134.288L72.3475 144.613C58.5055 155.052 48.7514 171.384 48.5232 189.65C48.1873 216.308 66.561 240.81 92.9965 247.383V262.251H107.51V249.088C125.89 248.973 142.673 239.904 152.662 227.653L141.659 216.53C131.563 228.559 116.25 234.231 107.51 233.775V222.43H125.32V209.273H107.51V200.995H125.548V189.08H92.9965V231.164C73.5961 224.699 63.1575 208.138 63.4998 190.899C63.842 175.244 71.663 162.651 82.558 155.052L107.289 180.574L107.625 180.917L131.791 155.387C137.799 159.475 142.451 164.806 145.513 170.814L157.2 160.724C153.682 154.823 148.688 149.151 142.337 144.391L152.206 134.288C165.819 143.707 180.118 166.282 180.118 191.121C180.118 211.656 173.076 224.249 162.188 237.293L173.755 248.866C187.033 233.547 194.968 213.697 194.968 191.919C194.968 159.019 176.708 130.321 149.708 115.351Z" fill="#FABD00"/>
<path d="M149.715 115.344L129.408 136.443H129.294L128.838 136.9C122.601 134.517 115.572 133.034 107.745 132.926C100.482 132.926 92.5402 134.282 85.7333 136.9L65.3124 115.573C38.5473 130.543 20.2814 159.241 20.2814 191.913C20.2814 213.811 28.3369 232.862 41.9508 248.175L52.3894 237.514C45.6965 231.164 33.4389 213.462 34.1171 191.121C34.9157 168.317 44.2198 149.145 62.3716 134.282L72.3539 144.607C58.5118 155.045 48.7577 171.378 48.5296 189.644C48.1873 216.301 66.5673 240.804 92.9966 247.376V262.245H107.517V249.081C125.897 248.967 142.68 239.898 152.662 227.646L141.666 216.523C131.563 228.553 116.25 234.225 107.517 233.775V222.43H125.326V209.273H107.517V200.989H125.555V189.074H92.9966V231.164C73.6025 224.693 63.1639 208.132 63.4998 190.893C63.842 175.238 71.6694 162.644 82.558 155.045L107.631 180.91L131.791 155.387C137.799 159.469 142.451 164.799 145.519 170.814L157.2 160.718C153.682 154.823 148.694 149.145 142.337 144.385L152.212 134.282C165.826 143.7 180.118 166.276 180.118 191.121C180.118 211.649 173.083 224.243 162.194 237.286L173.761 248.859C187.039 233.541 194.974 213.69 194.974 191.913C194.974 159.019 176.714 130.321 149.715 115.344Z" stroke="#004798" stroke-width="3.13094"/>
<path d="M107.631 159.469L97.0781 148.695C100.602 147.896 104.455 147.446 106.953 147.56C110.584 147.668 114.102 148.124 117.499 149.037L107.631 159.469Z" stroke="#004798" stroke-width="3.13094"/>
</svg>
