<?xml version="1.0" encoding="UTF-8"?><svg id="Layer_1" xmlns="http://www.w3.org/2000/svg" xmlns:xlink="http://www.w3.org/1999/xlink" viewBox="0 0 91.39 120"><defs><style>.cls-1{fill:none;}.cls-2{fill:#d69100;}.cls-3{fill:#0f0c0d;}.cls-4{fill:#ffe524;}.cls-5{fill:#0a0909;}.cls-6{fill:#3e93cd;}.cls-7{fill:#fff;}.cls-8{fill:#b03e24;}.cls-9{fill:#e23c07;}.cls-10{clip-path:url(#clippath);}</style><clipPath id="clippath"><rect class="cls-1" width="91.39" height="120"/></clipPath></defs><g class="cls-10"><g id="Formato_Color"><path id="Vector" class="cls-5" d="M82.34,73.61c-7.93,20.29-26.19,42.25-36.5,42.25s-28.25-21.1-36.13-40.52c-6.02-14.83-6.03-23.99-5.65-26.3.2-1.21.75-2.88,1.38-4.7.84-2.45,2-4.7,2-4.7.75-1.36,1.54-2.82,2.5-4.26,6.55-9.98,12.26-8.53,12.26-8.53,1.36-.97,2.77-1.58,4.18-1.84,5.63-1.1,11.12,3.17,11.7,8.84,0,0-.79,1.06-.09,1.67.66.57.97.09.97.09l1.84-1.89c3.34,0,4.84,4.09,4.84,4.09,0,0,1.58-4.09,4.88-4.09l1.89,1.89s.26.48.97-.09c.7-.62-.09-1.67-.09-1.67.57-5.76,6.24-10.07,12-8.79,1.32.31,2.59.88,3.87,1.8,0,0,5.67-1.45,12.26,8.53.92,1.45,3.35,5.76,4.23,7.83.7,1.66,1.25,2.75,1.72,5.83.39,2.55-.56,13.13-5.04,24.57M26.4,11.01c1.14-1.63,2.55-3.34,4.35-5.05l.22.35s-2.28,2.29-4.57,5.71c-2.33,3.47-4.66,8.09-4.57,12.71,0,0-.74-6.15,4.57-13.71M60.9,5.96c1.8,1.72,3.25,3.43,4.39,5.05,5.28,7.56,4.53,13.71,4.53,13.71.09-4.62-2.2-9.23-4.53-12.71-2.29-3.43-4.57-5.71-4.57-5.71l.18-.35h0ZM83.67,26.58c-6.51-11.21-13.81-17.01-18.38-19.83-2.29-1.41-3.91-2.11-4.35-2.33-1.41-.7-1.98.18-1.98.18-5.67,6.5-9.32,1.49-9.32,1.49,0,0,.7-1.58,1.01-3.17.26-1.54-1.1-1.54-1.72-1.54-.66,0-1.71,1.19-1.71,1.19l-1.54-.27-1.54.27s-1.06-1.19-1.72-1.19c-.62,0-2.02,0-1.71,1.54.31,1.58.97,3.17.97,3.17,0,0-3.6,5.01-9.27-1.49,0,0-.62-.88-1.98-.18-.44.22-1.93.83-4.04,2.15-4.57,2.77-12.05,8.57-18.68,20C2.7,35.14,1.43,43.59,1.39,49.65v1.23c.04,2.86.31,5.14.53,6.55,1.01,6.11,4.22,22.42,18.07,41.23,2.2,3.03,15.13,19.95,25.71,19.95s23.16-16.43,25.71-19.95c13.85-18.82,17.01-35.12,18.02-41.23.26-1.41.53-3.69.57-6.55v-1.23c-.09-6.11-1.36-14.51-6.33-23.08"/><path id="Vector_2" class="cls-7" d="M45.7,120c-11.63,0-25.31-18.42-26.84-20.52C9.11,86.23,2.94,72.15.55,57.66c-.22-1.44-.5-3.77-.55-6.75v-1.25c.04-5.83,1.21-14.69,6.52-23.78C13.1,14.56,20.57,8.49,25.68,5.39c1.79-1.12,3.17-1.76,3.84-2.07.13-.06.23-.11.3-.14,1.84-.95,3.17-.1,3.67.54,1.67,1.9,3.27,2.87,4.68,2.83.84-.03,1.5-.44,1.92-.78-.23-.66-.53-1.61-.72-2.57-.22-1.1.13-1.82.46-2.23.79-.96,2.07-.96,2.61-.96.81,0,1.61.55,2.19,1.09l1.06-.18,1.06.18c.59-.54,1.38-1.09,2.19-1.09.53,0,1.78,0,2.57.94.34.4.7,1.11.51,2.22-.19.98-.51,1.95-.75,2.61.42.35,1.09.75,1.94.78h.1c1.38,0,2.96-.97,4.58-2.82.5-.65,1.8-1.49,3.68-.55.07.03.16.08.28.13.71.34,2.2,1.04,4.18,2.26,5.01,3.08,12.35,9.11,18.85,20.31,5.23,9.03,6.43,17.9,6.52,23.75v1.25c-.04,2.51-.25,4.99-.59,6.81-2.4,14.52-8.55,28.59-18.27,41.8-.6.83-15.05,20.51-26.83,20.51h0ZM8.67,40.3s-1.12,2.17-1.91,4.49c-.56,1.64-1.13,3.34-1.32,4.48-.01.08-1.33,8.57,5.56,25.55,8.12,20.01,25.38,39.66,34.84,39.66,4.37,0,11.13-4.87,18.08-13.03,6.99-8.19,13.38-18.78,17.12-28.34,4.34-11.11,5.31-21.57,4.96-23.87-.4-2.65-.84-3.67-1.45-5.09l-.17-.41c-.83-1.96-3.24-6.24-4.12-7.63-5.85-8.85-10.73-7.93-10.78-7.92l-.63.16-.5-.39c-1.08-.78-2.18-1.3-3.37-1.57-2.28-.51-4.74.03-6.73,1.46-1.91,1.38-3.18,3.44-3.52,5.67.48.96.53,2.18-.43,3.01l-.04.04c-.75.61-1.42.64-1.84.55-.42-.08-.8-.31-1.06-.64l-1.35-1.35c-1.97.42-3.06,3.12-3.07,3.15l-1.34,3.39-1.25-3.42s-1.03-2.7-3.01-3.12l-1.34,1.37c-.19.23-.56.55-1.14.64-.42.06-1.07,0-1.77-.6-.96-.84-.92-2.06-.44-3.02-.35-2.21-1.58-4.24-3.44-5.62-1.92-1.42-4.3-1.99-6.55-1.56-1.23.23-2.45.78-3.64,1.62l-.52.37-.62-.16s-4.94-.93-10.76,7.94c-.91,1.37-1.66,2.74-2.39,4.06l-.06.11ZM73.84,92.74c-1.72,2.62-3.54,5.16-5.41,7.55.69-.87,1.32-1.69,1.86-2.43,1.24-1.69,2.43-3.39,3.55-5.11h0ZM27.19,7.71s-.04.03-.06.04c-4.85,2.94-11.93,8.7-18.22,19.52-4.6,7.87-5.9,15.55-6.11,21,.27-1.28.81-2.86,1.33-4.39.86-2.51,2.03-4.79,2.08-4.89l.08-.14c.75-1.37,1.53-2.79,2.5-4.26,2.87-4.38,5.98-7.24,9.23-8.53,1.72-.68,3.07-.73,3.84-.67.39-.25.77-.48,1.17-.68l-2.59.18c-.04-.27-.74-6.77,4.81-14.68.62-.88,1.25-1.71,1.93-2.5h0ZM69.98,25.38c.79,0,1.95.13,3.36.69,3.25,1.28,6.36,4.15,9.25,8.53.99,1.55,3.43,5.9,4.35,8.06l.17.4c.54,1.27,1.02,2.39,1.44,4.56-.32-5.42-1.71-12.83-6.07-20.35-6.12-10.55-12.97-16.26-17.7-19.21.59.71,1.15,1.43,1.66,2.16,5.52,7.91,4.8,14.4,4.77,14.68l-2.76-.2c.08-4.43-2.29-8.92-4.29-11.9-2.18-3.26-4.38-5.48-4.4-5.51l-.7-.7.05-.09c-1.99,1.96-4.02,2.91-6.03,2.82-2.84-.12-4.46-2.31-4.53-2.41l-.47-.65.32-.73s.61-1.38.89-2.75c-.06,0-.13,0-.19,0-.2.12-.57.44-.82.72l-.51.57-2.06-.35-2.06.35-.51-.58c-.25-.28-.63-.61-.82-.72-.06,0-.12,0-.19,0,.29,1.38.86,2.76.86,2.78l.3.71-.45.63c-.07.09-1.67,2.28-4.49,2.41-1.93.09-3.87-.78-5.8-2.6l-.58.58s-2.23,2.24-4.4,5.5c-2.93,4.36-4.38,8.34-4.34,11.84.96-.48,1.94-.81,2.93-1,2.99-.59,6.18.16,8.72,2.05,2.47,1.83,4.1,4.53,4.54,7.48l.83-.85h.59c2.29,0,3.87,1.39,4.85,2.7,1-1.31,2.59-2.7,4.86-2.7h.57l.88.88c.44-3,2.11-5.75,4.65-7.58,2.62-1.9,5.89-2.6,8.96-1.92,1.4.32,2.68.89,3.92,1.71.13,0,.29-.02.46-.02h-.01Z"/><path id="Vector_3" class="cls-5" d="M82.52,73.61c-7.93,20.29-26.19,42.25-36.5,42.25s-28.25-21.1-36.13-40.52c-6.02-14.83-6.03-23.99-5.65-26.3.2-1.21.75-2.88,1.38-4.7.84-2.45,2.01-4.7,2.01-4.7.75-1.37,1.54-2.82,2.5-4.26,6.55-9.98,12.26-8.53,12.26-8.53,1.36-.97,2.77-1.58,4.18-1.84,5.63-1.1,11.12,3.17,11.69,8.84,0,0-.79,1.06-.09,1.67.66.57.97.09.97.09l1.84-1.89c3.34,0,4.84,4.09,4.84,4.09,0,0,1.58-4.09,4.88-4.09l1.89,1.89s.26.48.97-.09c.7-.62-.09-1.67-.09-1.67.57-5.76,6.24-10.07,12-8.79,1.32.31,2.59.88,3.87,1.8,0,0,5.67-1.45,12.26,8.53.92,1.45,3.35,5.76,4.23,7.83.7,1.66,1.25,2.75,1.72,5.83.39,2.55-.56,13.13-5.04,24.57M26.57,11.01c1.14-1.63,2.55-3.34,4.35-5.05l.22.35s-2.29,2.29-4.57,5.71c-2.33,3.47-4.66,8.09-4.57,12.71,0,0-.74-6.15,4.57-13.71M61.08,5.96c1.8,1.72,3.25,3.43,4.39,5.05,5.28,7.56,4.53,13.71,4.53,13.71.09-4.62-2.2-9.23-4.53-12.71-2.29-3.43-4.57-5.71-4.57-5.71l.18-.35h0ZM83.85,26.58c-6.5-11.21-13.81-17.01-18.38-19.83-2.29-1.41-3.91-2.11-4.35-2.33-1.41-.7-1.98.18-1.98.18-5.67,6.5-9.32,1.49-9.32,1.49,0,0,.7-1.58,1.01-3.17.27-1.54-1.1-1.54-1.71-1.54-.66,0-1.72,1.19-1.72,1.19l-1.54-.27-1.54.27s-1.06-1.19-1.72-1.19c-.62,0-2.02,0-1.71,1.54.31,1.58.97,3.17.97,3.17,0,0-3.6,5.01-9.27-1.49,0,0-.62-.88-1.98-.18-.44.22-1.93.84-4.04,2.15-4.57,2.77-12.05,8.57-18.68,20C2.88,35.14,1.6,43.59,1.57,49.65v1.23c.04,2.86.31,5.14.53,6.55,1.01,6.11,4.22,22.42,18.07,41.23,2.2,3.03,15.13,19.95,25.71,19.95s23.16-16.43,25.71-19.95c13.85-18.82,17.01-35.12,18.02-41.23.26-1.41.53-3.69.57-6.55v-1.23c-.09-6.11-1.36-14.51-6.33-23.08"/><path id="Vector_4" class="cls-6" d="M87.5,48.69H4.31s.43-1.68,1.31-4.4c.76-2.32,1.92-4.4,1.92-4.4h76.62s.79,1.37,1.68,3.31c1.4,3.08,1.66,5.49,1.66,5.49Z"/><path id="Vector_5" class="cls-7" d="M84.15,39.89H7.67s2.47-5.14,5.83-8.51c5.43-5.43,8.94-4.29,8.94-4.29,0,0,3.11-2.87,7.52-1.89,7.94,1.78,8.35,8.88,8.35,8.88,0,0-.86,1.24.1,1.85.16.1.51.19.78-.09.9-.92,1.84-1.89,1.84-1.89,3.43.09,4.84,4.09,4.84,4.09,0,0,1.58-3.8,4.26-4.04l.62-.05,2.06,2.02s.39.3.8-.22c.64-.81-.09-1.67-.09-1.67,0,0,.01-5.94,6.7-8.45,5.2-1.95,9.16,1.46,9.16,1.46,0,0,2.89-1.03,7.51,2.94,4.26,3.66,7.26,9.85,7.26,9.85"/><path id="Vector_6" class="cls-4" d="M46.02,115.86c9.42.05,23.54-16.44,32.03-32.6,9.6-18.86,10.09-32.14,9.45-34.57H4.31c-1.41,7.25,3.83,26.71,12.94,41.12,8.59,13.39,19.37,25.7,28.77,26.05"/><path id="Vector_7" class="cls-3" d="M46.06,115.86h-.04c-4.35-.16-9.3-2.9-14.7-8.14-2.36-2.29-4.81-5.06-7.28-8.25-2.25-2.9-4.54-6.15-6.8-9.67-2.19-3.45-4.23-7.32-6.06-11.49-1.7-3.86-3.17-7.82-4.35-11.76-1.12-3.72-1.94-7.33-2.38-10.42-.44-3.1-.49-5.68-.15-7.46h83.2c.32,1.21.36,5.17-.88,11.12-.69,3.33-1.68,6.84-2.95,10.43-1.5,4.27-3.4,8.65-5.62,13.02-2.14,4.07-4.58,8.07-7.27,11.92-2.74,3.92-5.56,7.44-8.41,10.46-3,3.19-5.88,5.69-8.58,7.42-2.89,1.86-5.49,2.8-7.75,2.8h-.01ZM46.02,115.85h.04c2.25,0,4.85-.94,7.74-2.8,2.7-1.74,5.58-4.23,8.58-7.42,2.84-3.02,5.67-6.54,8.41-10.46,2.68-3.84,5.13-7.85,7.27-11.92,2.23-4.37,4.11-8.75,5.62-13.02,1.26-3.59,2.26-7.1,2.95-10.43,1.23-5.94,1.2-9.9.88-11.11H4.31c-.7,3.6.25,10.27,2.53,17.86,1.18,3.95,2.65,7.9,4.35,11.76,1.84,4.17,3.88,8.03,6.06,11.49,2.26,3.52,4.54,6.77,6.8,9.67,2.47,3.18,4.93,5.96,7.28,8.24,5.4,5.23,10.34,7.97,14.69,8.13h0Z"/><path id="Vector_8" class="cls-9" d="M40.95,114.59s-1.76-.51-5.73-3.46c-1.95-1.45-3.6-3.1-3.6-3.1v-59.35h9.33v65.9Z"/><path id="Vector_9" class="cls-9" d="M50.47,114.77s1.76-.51,5.73-3.47c1.95-1.45,3.6-3.1,3.6-3.1v-59.52h-9.33v66.08Z"/><path id="Vector_10" class="cls-8" d="M59.17,70.86c0,7.43-5.95,13.46-13.3,13.46s-13.3-6.03-13.3-13.46,5.95-13.46,13.3-13.46,13.3,6.03,13.3,13.46Z"/><path id="Vector_11" class="cls-2" d="M48.53,82.6c1.26-.55,6.01-2.71,6.05-10.29.04-3.11-.75-7.71-3.65-9.66-1.96-.27-3.28.61-3.78,2.27.81.51,3.43,2.62,1.91,7.36.05.09.11.19.16.27,1.31,2.53,1.05,5.62-1.6,7.19-.4.23-.83.43-1.27.57.43,1.12,1.22,1.85,2.19,2.3"/><path id="Vector_12" class="cls-2" d="M35.76,78.27c1.3,1.78,3.05,3.2,5.09,4.1-.5-.72-.94-1.57-1.09-2.33-1.07-1.18-2.38-2.04-4-1.76"/><path id="Vector_13" class="cls-2" d="M33.37,71.29c.07,2.37.81,4.58,2.02,6.44,1.8-.42,3.48.41,4.7,1.76.66-.53,2.61-1.62,5.91.28,3.36-.94,4.11-4.16,2.67-6.94l-.08-.15c-1.29.39-7.67,2.03-15.22-1.39Z"/><path id="Vector_14" class="cls-2" d="M35.35,64.11c-1.21,1.88-1.92,4.11-1.98,6.5,4.12,1.92,7.9,2.29,10.67,2.17,2.11-.09,3.76-.51,4.46-.72.75-2.4.59-5.24-1.7-6.65-1.65.75-3.6,1.02-5.13-.08-2.31,1.1-4.61.81-6.22-1.11l-.09-.11h0Z"/><path id="Vector_15" class="cls-2" d="M45.42,58.36c-4,.14-7.52,2.16-9.71,5.21.05.07.12.16.19.25,1.49,1.77,3.42,1.88,5.46.96-.06-.82.11-3.48,4.05-6.42Z"/><path id="Vector_16" class="cls-2" d="M53.15,60.71c-1.9-1.37-4.2-2.23-6.69-2.35-1.92,1.31-4.37,3.52-4.49,6.03,0,.18,0,.31,0,.4.07.05.15.11.22.15,1.34.8,2.98.55,4.34-.1.55-1.93,2.14-3.15,4.28-2.88l.16-.16c.61-.56,1.36-.97,2.17-1.09"/><path id="Vector_17" class="cls-2" d="M49.38,82.91c5.17-1.52,8.96-6.32,8.96-12.01,0-3.87-1.73-7.32-4.45-9.62-.93-.08-1.8.33-2.48.95,1,.73,3.85,3.4,3.78,10.07-.04,7.07-4.02,9.69-5.85,10.59h.04Z"/><path id="Vector_18" class="cls-2" d="M45.88,83.42c.83,0,1.65-.08,2.43-.24-1.13-.51-2.04-1.37-2.5-2.56-.05-.13-.08-.24-.11-.32-1.73-.98-3.78-1.55-5.3-.24.04.16.12.39.23.65.23.55.63,1.3,1.31,2.08,1.24.41,2.56.63,3.94.63Z"/><path id="Vector_19" class="cls-9" d="M22.68,97.69s-3.07-4.19-5.44-7.88c-2.18-3.29-3.77-6.65-3.77-6.65v-34.47h9.2v49.01Z"/><path id="Vector_20" class="cls-9" d="M68.88,97.82s3.11-4.3,5.44-8.01c2.18-3.3,3.77-6.65,3.77-6.65v-34.47h-9.2v49.14Z"/><path id="Vector_21" class="cls-7" d="M14.38,41.2h1.39l-2.19,6.29h-1.27l-2.17-6.29h1.43l1.39,4.77,1.41-4.77Z"/><path id="Vector_22" class="cls-7" d="M18.58,45.11h1.64l-.81-2.47-.83,2.47ZM18.66,41.2h1.52l2.27,6.29h-1.45l-.43-1.29h-2.37l-.43,1.29h-1.41l2.29-6.29h0Z"/><path id="Vector_23" class="cls-7" d="M24.18,41.2h1.34v5.16h3.21v1.13h-4.55v-6.29Z"/><path id="Vector_24" class="cls-7" d="M35.29,42.32h-3.4v1.33h3.12v1.1h-3.12v1.61h3.56v1.13h-4.87v-6.29h4.71v1.11Z"/><path id="Vector_25" class="cls-7" d="M37.38,41.2h1.41l2.55,4.38v-4.38h1.25v6.29h-1.34l-2.62-4.46v4.46h-1.25v-6.29Z"/><path id="Vector_26" class="cls-7" d="M45.38,41.86c.52-.52,1.17-.78,1.97-.78,1.07,0,1.85.35,2.35,1.04.27.39.42.78.44,1.17h-1.34c-.08-.3-.19-.53-.33-.68-.24-.27-.59-.41-1.06-.41s-.86.19-1.13.58c-.27.39-.41.93-.41,1.64s.15,1.23.44,1.59c.29.35.66.53,1.11.53s.81-.15,1.05-.45c.13-.16.24-.4.33-.73h1.33c-.12.69-.41,1.24-.88,1.67-.47.43-1.08.64-1.82.64-.91,0-1.63-.29-2.15-.87-.52-.59-.78-1.38-.78-2.4,0-1.1.3-1.95.89-2.54Z"/><path id="Vector_27" class="cls-7" d="M53.34,41.2h-1.33v6.29h1.33v-6.29Z"/><path id="Vector_28" class="cls-7" d="M57.25,45.11h1.64l-.81-2.47-.83,2.47ZM57.34,41.2h1.52l2.27,6.29h-1.45l-.43-1.29h-2.36l-.43,1.29h-1.41l2.29-6.29Z"/><path id="Vector_29" class="cls-7" d="M66.54,41.86c.52-.52,1.17-.78,1.97-.78,1.07,0,1.85.35,2.35,1.04.27.39.42.78.44,1.17h-1.34c-.08-.3-.2-.53-.33-.68-.24-.27-.59-.41-1.06-.41s-.86.19-1.13.58c-.27.39-.41.93-.41,1.64s.15,1.23.44,1.59c.29.35.66.53,1.11.53s.81-.15,1.06-.45c.13-.16.24-.4.33-.73h1.33c-.12.69-.41,1.24-.88,1.67-.47.43-1.08.64-1.82.64-.91,0-1.63-.29-2.15-.87-.52-.59-.78-1.38-.78-2.4,0-1.1.3-1.95.89-2.54Z"/><path id="Vector_30" class="cls-7" d="M74.48,46.21h-1.32v1.28h1.32v-1.28Z"/><path id="Vector_31" class="cls-7" d="M76.67,41.21h4.58v1.1h-3.25v1.45h2.85v1.09h-2.85v2.63h-1.33v-6.28Z"/><path id="Vector_32" class="cls-7" d="M83.24,46.21h-1.32v1.28h1.32v-1.28Z"/></g></g></svg>